%
M48
M72
T01C0.0118
T02C0.0402
T03C0.0630
T04C0.0866
T05C0.1181
%
T01
X1681Y4993
X1524Y6174
X1445Y7355
X1839Y7512
X1917Y7906
X2862Y7985
X3413Y7985
X3728Y7276
X4280Y7827
X3807Y9323
X3728Y10347
X3886Y11685
X3886Y13496
X3886Y15071
X2783Y15150
X2705Y14756
X1917Y14363
X1681Y14756
X1445Y13496
X894Y13496
X1445Y11607
X2154Y10426
X3413Y5859
X3335Y4678
X3020Y3654
X4280Y4048
X5224Y5544
X5224Y6804
X5224Y7512
X5933Y8221
X6169Y9087
X6169Y10189
X6563Y11685
X6563Y13496
X7429Y10189
X7429Y9087
X7587Y8300
X7587Y7827
X7744Y5622
X7114Y4363
X7823Y3654
X6642Y7827
X6642Y8300
X6012Y5465
X5461Y3890
X7980Y10583
X9240Y11685
X9949Y13496
X9949Y16174
X9555Y18457
X9161Y17985
X9161Y18930
X9949Y19717
X9949Y23181
X8925Y24993
X8925Y26016
X8925Y27040
X8531Y28063
X7902Y28063
X7823Y27040
X7823Y26489
X7823Y26016
X7823Y25465
X7587Y25229
X7823Y24993
X7823Y24599
X7665Y24126
X7902Y23496
X8531Y23496
X7902Y20189
X7823Y19402
X8374Y18930
X6957Y20977
X6406Y19166
X5854Y21449
X6327Y22315
X6327Y22788
X6484Y23496
X6563Y24835
X7272Y25622
X7035Y22945
X5854Y23496
X5461Y24520
X5539Y25071
X5539Y25465
X5539Y26174
X5539Y26567
X5539Y26961
X5854Y28063
X6484Y28063
X8217Y32079
X9949Y30426
X9949Y27040
X5618Y18693
X5618Y17827
X5539Y16961
X4831Y19874
X5067Y20504
X4673Y20741
X4280Y21134
X4673Y22315
X4752Y22945
X5067Y23260
X4909Y23654
X4594Y23654
X4280Y23654
X3965Y23654
X3571Y22867
X3098Y24441
X2547Y23733
X2154Y23418
X1839Y22237
X1760Y21449
X1996Y21056
X2783Y22079
X2941Y20741
X3492Y21213
X4673Y24835
X4752Y25150
X5067Y25150
X4358Y24993
X4043Y25307
X4043Y26725
X2862Y26489
X2232Y26016
X2232Y25229
X1681Y25622
X894Y26882
X894Y30347
X2547Y32079
X5461Y32079
X894Y22945
X894Y18221
X1287Y17040
X1996Y18142
X2154Y17040
X9319Y6016
X9319Y5150
T02
X3650Y3662
X4831Y3662
X6012Y3662
X7193Y3662
T03
X7193Y23660
X7193Y23660
X7193Y27900
X7193Y27900
T04
X1484Y1961
X9358Y1961
X9358Y31489
X1484Y31489
T05
X4496Y1961
X6346Y1961
M30
