G75*
%MOIN*%
%OFA0B0*%
%FSLAX25Y25*%
%IPPOS*%
%LPD*%
%AMOC8*
5,1,8,0,0,1.08239X$1,22.5*
%
%ADD10C,0.00600*%
%ADD11C,0.00500*%
%ADD12C,0.00000*%
%ADD13C,0.00787*%
D10*
X0041080Y0086446D02*
X0039946Y0087580D01*
X0040513Y0088901D02*
X0039946Y0089468D01*
X0039946Y0091170D01*
X0039946Y0092584D02*
X0041080Y0093719D01*
X0042214Y0093719D01*
X0043349Y0092584D01*
X0042214Y0091170D02*
X0042214Y0089468D01*
X0041647Y0088901D01*
X0040513Y0088901D01*
X0041080Y0086446D02*
X0042214Y0086446D01*
X0043349Y0087580D01*
X0045898Y0086446D02*
X0049301Y0086446D01*
X0049301Y0088147D01*
X0048734Y0088714D01*
X0047599Y0088714D01*
X0047032Y0088147D01*
X0047032Y0086446D01*
X0047032Y0090129D02*
X0047032Y0091263D01*
X0047032Y0090696D02*
X0050435Y0090696D01*
X0050435Y0090129D01*
X0049301Y0092584D02*
X0047599Y0092584D01*
X0047032Y0093151D01*
X0047032Y0094853D01*
X0049301Y0094853D01*
X0049301Y0096267D02*
X0049301Y0096835D01*
X0048734Y0097402D01*
X0049301Y0097969D01*
X0048734Y0098536D01*
X0047032Y0098536D01*
X0047032Y0097402D02*
X0048734Y0097402D01*
X0049301Y0096267D02*
X0047032Y0096267D01*
X0047032Y0099951D02*
X0047032Y0101652D01*
X0047599Y0102219D01*
X0048734Y0102219D01*
X0049301Y0101652D01*
X0049301Y0099951D01*
X0045898Y0099951D01*
X0047599Y0103634D02*
X0047032Y0104201D01*
X0047032Y0105335D01*
X0047599Y0105902D01*
X0048734Y0105902D01*
X0049301Y0105335D01*
X0049301Y0104201D01*
X0048734Y0103634D01*
X0047599Y0103634D01*
X0049301Y0107317D02*
X0049301Y0108451D01*
X0049868Y0107884D02*
X0047599Y0107884D01*
X0047032Y0108451D01*
X0048734Y0109772D02*
X0048734Y0112041D01*
X0048734Y0113455D02*
X0047599Y0113455D01*
X0047032Y0114023D01*
X0047032Y0115724D01*
X0047599Y0117139D02*
X0047032Y0117706D01*
X0047032Y0119407D01*
X0048734Y0119407D01*
X0049301Y0118840D01*
X0049301Y0117706D01*
X0048167Y0117706D02*
X0048167Y0119407D01*
X0048167Y0117706D02*
X0047599Y0117139D01*
X0049301Y0115724D02*
X0049301Y0114023D01*
X0048734Y0113455D01*
X0049301Y0120822D02*
X0047032Y0120822D01*
X0047032Y0123090D02*
X0048734Y0123090D01*
X0049301Y0122523D01*
X0049301Y0120822D01*
X0048734Y0124505D02*
X0048734Y0126773D01*
X0047599Y0128188D02*
X0048167Y0128755D01*
X0048167Y0130457D01*
X0048734Y0130457D02*
X0047032Y0130457D01*
X0047032Y0128755D01*
X0047599Y0128188D01*
X0049301Y0128755D02*
X0049301Y0129889D01*
X0048734Y0130457D01*
X0048734Y0131871D02*
X0049301Y0132438D01*
X0049301Y0134140D01*
X0050435Y0134140D02*
X0047032Y0134140D01*
X0047032Y0132438D01*
X0047599Y0131871D01*
X0048734Y0131871D01*
X0047599Y0135554D02*
X0047032Y0136121D01*
X0047032Y0137823D01*
X0048734Y0137823D01*
X0049301Y0137256D01*
X0049301Y0136121D01*
X0048167Y0136121D02*
X0048167Y0137823D01*
X0048167Y0136121D02*
X0047599Y0135554D01*
X0047032Y0139237D02*
X0047032Y0140939D01*
X0047599Y0141506D01*
X0048734Y0141506D01*
X0049301Y0140939D01*
X0049301Y0139237D01*
X0045898Y0139237D01*
X0047599Y0143488D02*
X0047032Y0144055D01*
X0047599Y0143488D02*
X0049868Y0143488D01*
X0049301Y0142921D02*
X0049301Y0144055D01*
X0048734Y0145376D02*
X0047599Y0145376D01*
X0047032Y0145943D01*
X0047032Y0147077D01*
X0048167Y0147645D02*
X0048167Y0145376D01*
X0048734Y0145376D02*
X0049301Y0145943D01*
X0049301Y0147077D01*
X0048734Y0147645D01*
X0048167Y0147645D01*
X0048167Y0149059D02*
X0049301Y0150193D01*
X0049301Y0150761D01*
X0048734Y0152128D02*
X0048734Y0154397D01*
X0049301Y0155812D02*
X0050435Y0156946D01*
X0047032Y0156946D01*
X0047032Y0155812D02*
X0047032Y0158080D01*
X0047032Y0159495D02*
X0047032Y0160062D01*
X0047599Y0160062D01*
X0047599Y0159495D01*
X0047032Y0159495D01*
X0047599Y0161336D02*
X0047032Y0161903D01*
X0047032Y0163038D01*
X0047599Y0163605D01*
X0049868Y0163605D01*
X0047599Y0161336D01*
X0049868Y0161336D01*
X0050435Y0161903D01*
X0050435Y0163038D01*
X0049868Y0163605D01*
X0049868Y0166861D02*
X0050435Y0167428D01*
X0050435Y0168562D01*
X0049868Y0169130D01*
X0047599Y0166861D01*
X0047032Y0167428D01*
X0047032Y0168562D01*
X0047599Y0169130D01*
X0049868Y0169130D01*
X0048734Y0170544D02*
X0048734Y0172813D01*
X0049868Y0171678D02*
X0047599Y0171678D01*
X0047032Y0174227D02*
X0047032Y0176496D01*
X0047599Y0177910D02*
X0047032Y0178478D01*
X0047032Y0179612D01*
X0047599Y0180179D01*
X0049868Y0180179D01*
X0047599Y0177910D01*
X0049868Y0177910D01*
X0050435Y0178478D01*
X0050435Y0179612D01*
X0049868Y0180179D01*
X0049301Y0181594D02*
X0050435Y0182728D01*
X0047032Y0182728D01*
X0047032Y0181594D02*
X0047032Y0183862D01*
X0047032Y0185277D02*
X0047599Y0185277D01*
X0049868Y0187545D01*
X0050435Y0187545D01*
X0050435Y0185277D01*
X0049868Y0188960D02*
X0050435Y0189527D01*
X0050435Y0190661D01*
X0049868Y0191228D01*
X0047599Y0188960D01*
X0047032Y0189527D01*
X0047032Y0190661D01*
X0047599Y0191228D01*
X0049868Y0191228D01*
X0049868Y0192643D02*
X0049301Y0192643D01*
X0048734Y0193210D01*
X0048734Y0194344D01*
X0048167Y0194912D01*
X0047599Y0194912D01*
X0047032Y0194344D01*
X0047032Y0193210D01*
X0047599Y0192643D01*
X0048167Y0192643D01*
X0048734Y0193210D01*
X0048734Y0194344D02*
X0049301Y0194912D01*
X0049868Y0194912D01*
X0050435Y0194344D01*
X0050435Y0193210D01*
X0049868Y0192643D01*
X0049868Y0188960D02*
X0047599Y0188960D01*
X0047032Y0196326D02*
X0047032Y0198595D01*
X0047032Y0197460D02*
X0050435Y0197460D01*
X0049301Y0196326D01*
X0049301Y0200009D02*
X0048734Y0200576D01*
X0048734Y0202278D01*
X0049868Y0202278D02*
X0047599Y0202278D01*
X0047032Y0201711D01*
X0047032Y0200576D01*
X0047599Y0200009D01*
X0049301Y0200009D02*
X0049868Y0200009D01*
X0050435Y0200576D01*
X0050435Y0201711D01*
X0049868Y0202278D01*
X0042214Y0193684D02*
X0043349Y0192550D01*
X0042214Y0191415D01*
X0039946Y0191415D01*
X0040513Y0190001D02*
X0039946Y0189434D01*
X0039946Y0188299D01*
X0040513Y0187732D01*
X0041647Y0188299D02*
X0041647Y0189434D01*
X0041080Y0190001D01*
X0040513Y0190001D01*
X0041647Y0191415D02*
X0041647Y0193684D01*
X0042214Y0193684D02*
X0039946Y0193684D01*
X0041647Y0188299D02*
X0042214Y0187732D01*
X0042781Y0187732D01*
X0043349Y0188299D01*
X0043349Y0189434D01*
X0042781Y0190001D01*
X0041647Y0186318D02*
X0041647Y0184049D01*
X0042781Y0182634D02*
X0041647Y0181500D01*
X0039946Y0181500D01*
X0041647Y0181500D02*
X0042781Y0180366D01*
X0043349Y0180366D01*
X0042781Y0178951D02*
X0043349Y0178384D01*
X0043349Y0176683D01*
X0039946Y0176683D01*
X0039946Y0178384D01*
X0040513Y0178951D01*
X0041080Y0178951D01*
X0041647Y0178384D01*
X0041647Y0176683D01*
X0041647Y0175268D02*
X0041647Y0173000D01*
X0040513Y0171585D02*
X0039946Y0171018D01*
X0039946Y0169884D01*
X0040513Y0169316D01*
X0042781Y0169316D01*
X0043349Y0169884D01*
X0043349Y0171018D01*
X0042781Y0171585D01*
X0042781Y0167902D02*
X0043349Y0167335D01*
X0043349Y0166200D01*
X0042781Y0165633D01*
X0040513Y0165633D01*
X0039946Y0166200D01*
X0039946Y0167335D01*
X0040513Y0167902D01*
X0040513Y0160629D02*
X0040513Y0160062D01*
X0039946Y0160062D01*
X0039946Y0160629D01*
X0040513Y0160629D01*
X0039946Y0160629D02*
X0038811Y0159495D01*
X0039379Y0158080D02*
X0042214Y0158080D01*
X0042214Y0156379D01*
X0041647Y0155812D01*
X0040513Y0155812D01*
X0039946Y0156379D01*
X0039946Y0158080D01*
X0039379Y0158080D02*
X0038811Y0157513D01*
X0038811Y0156946D01*
X0039946Y0152742D02*
X0042214Y0152742D01*
X0041080Y0152742D02*
X0042214Y0153877D01*
X0042214Y0154444D01*
X0041647Y0151328D02*
X0042214Y0150761D01*
X0042214Y0149626D01*
X0041647Y0149059D01*
X0040513Y0149059D01*
X0039946Y0149626D01*
X0039946Y0150761D01*
X0040513Y0151328D01*
X0041647Y0151328D01*
X0040513Y0147785D02*
X0039946Y0147785D01*
X0039946Y0147218D01*
X0040513Y0147218D01*
X0040513Y0147785D01*
X0040513Y0145803D02*
X0041647Y0145803D01*
X0042214Y0145236D01*
X0042214Y0144102D01*
X0041647Y0143534D01*
X0040513Y0143534D01*
X0039946Y0144102D01*
X0039946Y0145236D01*
X0040513Y0145803D01*
X0039946Y0142167D02*
X0041080Y0140465D01*
X0042214Y0142167D01*
X0043349Y0140465D02*
X0039946Y0140465D01*
X0039946Y0139144D02*
X0040513Y0138577D01*
X0042781Y0138577D01*
X0042214Y0138010D02*
X0042214Y0139144D01*
X0042214Y0136642D02*
X0042214Y0136075D01*
X0041080Y0134940D01*
X0039946Y0134940D02*
X0042214Y0134940D01*
X0042214Y0133573D02*
X0041080Y0131871D01*
X0039946Y0133573D01*
X0039946Y0131871D02*
X0043349Y0131871D01*
X0042781Y0130457D02*
X0043349Y0129889D01*
X0043349Y0128755D01*
X0042781Y0128188D01*
X0040513Y0128188D01*
X0039946Y0128755D01*
X0039946Y0129889D01*
X0040513Y0130457D01*
X0041080Y0129889D02*
X0042214Y0129889D01*
X0042214Y0128755D01*
X0041080Y0128755D01*
X0041080Y0129889D01*
X0041647Y0130457D01*
X0042781Y0130457D01*
X0042214Y0126773D02*
X0039946Y0124505D01*
X0039946Y0123090D02*
X0039946Y0121389D01*
X0040513Y0120822D01*
X0042214Y0120822D01*
X0042214Y0119407D02*
X0042214Y0117706D01*
X0041647Y0117139D01*
X0040513Y0117139D01*
X0039946Y0117706D01*
X0039946Y0119407D01*
X0038811Y0119407D02*
X0042214Y0119407D01*
X0042214Y0123090D02*
X0039379Y0123090D01*
X0038811Y0122523D01*
X0038811Y0121956D01*
X0042214Y0124505D02*
X0039946Y0126773D01*
X0042781Y0112041D02*
X0040513Y0109772D01*
X0039946Y0109772D01*
X0039946Y0108358D02*
X0039946Y0106089D01*
X0039946Y0107223D02*
X0043349Y0107223D01*
X0042214Y0106089D01*
X0042781Y0104675D02*
X0040513Y0102406D01*
X0039946Y0102973D01*
X0039946Y0104107D01*
X0040513Y0104675D01*
X0042781Y0104675D01*
X0043349Y0104107D01*
X0043349Y0102973D01*
X0042781Y0102406D01*
X0040513Y0102406D01*
X0039946Y0100991D02*
X0039946Y0098723D01*
X0042214Y0100991D01*
X0042781Y0100991D01*
X0043349Y0100424D01*
X0043349Y0099290D01*
X0042781Y0098723D01*
X0043349Y0109772D02*
X0043349Y0112041D01*
X0042781Y0112041D01*
X0047032Y0149059D02*
X0049301Y0149059D01*
X0047599Y0165019D02*
X0047032Y0165019D01*
X0047032Y0165587D01*
X0047599Y0165587D01*
X0047599Y0165019D01*
X0047599Y0166861D02*
X0049868Y0166861D01*
X0049868Y0174227D02*
X0050435Y0174794D01*
X0050435Y0175929D01*
X0049868Y0176496D01*
X0049301Y0176496D01*
X0047032Y0174227D01*
X0043349Y0182634D02*
X0042781Y0182634D01*
X0042781Y0178951D02*
X0042214Y0178951D01*
X0041647Y0178384D01*
X0089670Y0231879D02*
X0093073Y0234147D01*
X0091939Y0235562D02*
X0093073Y0236696D01*
X0089670Y0236696D01*
X0089670Y0235562D02*
X0089670Y0237830D01*
X0089670Y0234147D02*
X0093073Y0231879D01*
D11*
X0005000Y0320791D02*
X0005000Y0013705D01*
X0005002Y0013581D01*
X0005008Y0013458D01*
X0005017Y0013334D01*
X0005031Y0013212D01*
X0005048Y0013089D01*
X0005070Y0012967D01*
X0005095Y0012846D01*
X0005124Y0012726D01*
X0005156Y0012607D01*
X0005193Y0012488D01*
X0005233Y0012371D01*
X0005276Y0012256D01*
X0005324Y0012141D01*
X0005375Y0012029D01*
X0005429Y0011918D01*
X0005487Y0011808D01*
X0005548Y0011701D01*
X0005613Y0011595D01*
X0005681Y0011492D01*
X0005752Y0011391D01*
X0005826Y0011292D01*
X0005903Y0011195D01*
X0005984Y0011101D01*
X0006067Y0011010D01*
X0006153Y0010921D01*
X0006242Y0010835D01*
X0006333Y0010752D01*
X0006427Y0010671D01*
X0006524Y0010594D01*
X0006623Y0010520D01*
X0006724Y0010449D01*
X0006827Y0010381D01*
X0006933Y0010316D01*
X0007040Y0010255D01*
X0007150Y0010197D01*
X0007261Y0010143D01*
X0007373Y0010092D01*
X0007488Y0010044D01*
X0007603Y0010001D01*
X0007720Y0009961D01*
X0007839Y0009924D01*
X0007958Y0009892D01*
X0008078Y0009863D01*
X0008199Y0009838D01*
X0008321Y0009816D01*
X0008444Y0009799D01*
X0008566Y0009785D01*
X0008690Y0009776D01*
X0008813Y0009770D01*
X0008937Y0009768D01*
X0099488Y0009768D01*
X0099612Y0009770D01*
X0099735Y0009776D01*
X0099859Y0009785D01*
X0099981Y0009799D01*
X0100104Y0009816D01*
X0100226Y0009838D01*
X0100347Y0009863D01*
X0100467Y0009892D01*
X0100586Y0009924D01*
X0100705Y0009961D01*
X0100822Y0010001D01*
X0100937Y0010044D01*
X0101052Y0010092D01*
X0101164Y0010143D01*
X0101275Y0010197D01*
X0101385Y0010255D01*
X0101492Y0010316D01*
X0101598Y0010381D01*
X0101701Y0010449D01*
X0101802Y0010520D01*
X0101901Y0010594D01*
X0101998Y0010671D01*
X0102092Y0010752D01*
X0102183Y0010835D01*
X0102272Y0010921D01*
X0102358Y0011010D01*
X0102441Y0011101D01*
X0102522Y0011195D01*
X0102599Y0011292D01*
X0102673Y0011391D01*
X0102744Y0011492D01*
X0102812Y0011595D01*
X0102877Y0011701D01*
X0102938Y0011808D01*
X0102996Y0011918D01*
X0103050Y0012029D01*
X0103101Y0012141D01*
X0103149Y0012256D01*
X0103192Y0012371D01*
X0103232Y0012488D01*
X0103269Y0012607D01*
X0103301Y0012726D01*
X0103330Y0012846D01*
X0103355Y0012967D01*
X0103377Y0013089D01*
X0103394Y0013212D01*
X0103408Y0013334D01*
X0103417Y0013458D01*
X0103423Y0013581D01*
X0103425Y0013705D01*
X0103425Y0320791D01*
X0103423Y0320915D01*
X0103417Y0321038D01*
X0103408Y0321162D01*
X0103394Y0321284D01*
X0103377Y0321407D01*
X0103355Y0321529D01*
X0103330Y0321650D01*
X0103301Y0321770D01*
X0103269Y0321889D01*
X0103232Y0322008D01*
X0103192Y0322125D01*
X0103149Y0322240D01*
X0103101Y0322355D01*
X0103050Y0322467D01*
X0102996Y0322578D01*
X0102938Y0322688D01*
X0102877Y0322795D01*
X0102812Y0322901D01*
X0102744Y0323004D01*
X0102673Y0323105D01*
X0102599Y0323204D01*
X0102522Y0323301D01*
X0102441Y0323395D01*
X0102358Y0323486D01*
X0102272Y0323575D01*
X0102183Y0323661D01*
X0102092Y0323744D01*
X0101998Y0323825D01*
X0101901Y0323902D01*
X0101802Y0323976D01*
X0101701Y0324047D01*
X0101598Y0324115D01*
X0101492Y0324180D01*
X0101385Y0324241D01*
X0101275Y0324299D01*
X0101164Y0324353D01*
X0101052Y0324404D01*
X0100937Y0324452D01*
X0100822Y0324495D01*
X0100705Y0324535D01*
X0100586Y0324572D01*
X0100467Y0324604D01*
X0100347Y0324633D01*
X0100226Y0324658D01*
X0100104Y0324680D01*
X0099981Y0324697D01*
X0099859Y0324711D01*
X0099735Y0324720D01*
X0099612Y0324726D01*
X0099488Y0324728D01*
X0008937Y0324728D01*
X0008813Y0324726D01*
X0008690Y0324720D01*
X0008566Y0324711D01*
X0008444Y0324697D01*
X0008321Y0324680D01*
X0008199Y0324658D01*
X0008078Y0324633D01*
X0007958Y0324604D01*
X0007839Y0324572D01*
X0007720Y0324535D01*
X0007603Y0324495D01*
X0007488Y0324452D01*
X0007373Y0324404D01*
X0007261Y0324353D01*
X0007150Y0324299D01*
X0007040Y0324241D01*
X0006933Y0324180D01*
X0006827Y0324115D01*
X0006724Y0324047D01*
X0006623Y0323976D01*
X0006524Y0323902D01*
X0006427Y0323825D01*
X0006333Y0323744D01*
X0006242Y0323661D01*
X0006153Y0323575D01*
X0006067Y0323486D01*
X0005984Y0323395D01*
X0005903Y0323301D01*
X0005826Y0323204D01*
X0005752Y0323105D01*
X0005681Y0323004D01*
X0005613Y0322901D01*
X0005548Y0322795D01*
X0005487Y0322688D01*
X0005429Y0322578D01*
X0005375Y0322467D01*
X0005324Y0322355D01*
X0005276Y0322240D01*
X0005233Y0322125D01*
X0005193Y0322008D01*
X0005156Y0321889D01*
X0005124Y0321770D01*
X0005095Y0321650D01*
X0005070Y0321529D01*
X0005048Y0321407D01*
X0005031Y0321284D01*
X0005017Y0321162D01*
X0005008Y0321038D01*
X0005002Y0320915D01*
X0005000Y0320791D01*
D12*
X0068779Y0279000D02*
X0068781Y0279112D01*
X0068787Y0279223D01*
X0068797Y0279335D01*
X0068811Y0279446D01*
X0068828Y0279556D01*
X0068850Y0279666D01*
X0068876Y0279775D01*
X0068905Y0279883D01*
X0068938Y0279989D01*
X0068975Y0280095D01*
X0069016Y0280199D01*
X0069061Y0280302D01*
X0069109Y0280403D01*
X0069160Y0280502D01*
X0069215Y0280599D01*
X0069274Y0280694D01*
X0069335Y0280788D01*
X0069400Y0280879D01*
X0069469Y0280967D01*
X0069540Y0281053D01*
X0069614Y0281137D01*
X0069692Y0281217D01*
X0069772Y0281295D01*
X0069855Y0281371D01*
X0069940Y0281443D01*
X0070028Y0281512D01*
X0070118Y0281578D01*
X0070211Y0281640D01*
X0070306Y0281700D01*
X0070403Y0281756D01*
X0070501Y0281808D01*
X0070602Y0281857D01*
X0070704Y0281902D01*
X0070808Y0281944D01*
X0070913Y0281982D01*
X0071020Y0282016D01*
X0071127Y0282046D01*
X0071236Y0282073D01*
X0071345Y0282095D01*
X0071456Y0282114D01*
X0071566Y0282129D01*
X0071678Y0282140D01*
X0071789Y0282147D01*
X0071901Y0282150D01*
X0072013Y0282149D01*
X0072125Y0282144D01*
X0072236Y0282135D01*
X0072347Y0282122D01*
X0072458Y0282105D01*
X0072568Y0282085D01*
X0072677Y0282060D01*
X0072785Y0282032D01*
X0072892Y0281999D01*
X0072998Y0281963D01*
X0073102Y0281923D01*
X0073205Y0281880D01*
X0073307Y0281833D01*
X0073406Y0281782D01*
X0073504Y0281728D01*
X0073600Y0281670D01*
X0073694Y0281609D01*
X0073785Y0281545D01*
X0073874Y0281478D01*
X0073961Y0281407D01*
X0074045Y0281333D01*
X0074127Y0281257D01*
X0074205Y0281177D01*
X0074281Y0281095D01*
X0074354Y0281010D01*
X0074424Y0280923D01*
X0074490Y0280833D01*
X0074554Y0280741D01*
X0074614Y0280647D01*
X0074671Y0280551D01*
X0074724Y0280452D01*
X0074774Y0280352D01*
X0074820Y0280251D01*
X0074863Y0280147D01*
X0074902Y0280042D01*
X0074937Y0279936D01*
X0074968Y0279829D01*
X0074996Y0279720D01*
X0075019Y0279611D01*
X0075039Y0279501D01*
X0075055Y0279390D01*
X0075067Y0279279D01*
X0075075Y0279168D01*
X0075079Y0279056D01*
X0075079Y0278944D01*
X0075075Y0278832D01*
X0075067Y0278721D01*
X0075055Y0278610D01*
X0075039Y0278499D01*
X0075019Y0278389D01*
X0074996Y0278280D01*
X0074968Y0278171D01*
X0074937Y0278064D01*
X0074902Y0277958D01*
X0074863Y0277853D01*
X0074820Y0277749D01*
X0074774Y0277648D01*
X0074724Y0277548D01*
X0074671Y0277449D01*
X0074614Y0277353D01*
X0074554Y0277259D01*
X0074490Y0277167D01*
X0074424Y0277077D01*
X0074354Y0276990D01*
X0074281Y0276905D01*
X0074205Y0276823D01*
X0074127Y0276743D01*
X0074045Y0276667D01*
X0073961Y0276593D01*
X0073874Y0276522D01*
X0073785Y0276455D01*
X0073694Y0276391D01*
X0073600Y0276330D01*
X0073504Y0276272D01*
X0073406Y0276218D01*
X0073307Y0276167D01*
X0073205Y0276120D01*
X0073102Y0276077D01*
X0072998Y0276037D01*
X0072892Y0276001D01*
X0072785Y0275968D01*
X0072677Y0275940D01*
X0072568Y0275915D01*
X0072458Y0275895D01*
X0072347Y0275878D01*
X0072236Y0275865D01*
X0072125Y0275856D01*
X0072013Y0275851D01*
X0071901Y0275850D01*
X0071789Y0275853D01*
X0071678Y0275860D01*
X0071566Y0275871D01*
X0071456Y0275886D01*
X0071345Y0275905D01*
X0071236Y0275927D01*
X0071127Y0275954D01*
X0071020Y0275984D01*
X0070913Y0276018D01*
X0070808Y0276056D01*
X0070704Y0276098D01*
X0070602Y0276143D01*
X0070501Y0276192D01*
X0070403Y0276244D01*
X0070306Y0276300D01*
X0070211Y0276360D01*
X0070118Y0276422D01*
X0070028Y0276488D01*
X0069940Y0276557D01*
X0069855Y0276629D01*
X0069772Y0276705D01*
X0069692Y0276783D01*
X0069614Y0276863D01*
X0069540Y0276947D01*
X0069469Y0277033D01*
X0069400Y0277121D01*
X0069335Y0277212D01*
X0069274Y0277306D01*
X0069215Y0277401D01*
X0069160Y0277498D01*
X0069109Y0277597D01*
X0069061Y0277698D01*
X0069016Y0277801D01*
X0068975Y0277905D01*
X0068938Y0278011D01*
X0068905Y0278117D01*
X0068876Y0278225D01*
X0068850Y0278334D01*
X0068828Y0278444D01*
X0068811Y0278554D01*
X0068797Y0278665D01*
X0068787Y0278777D01*
X0068781Y0278888D01*
X0068779Y0279000D01*
X0068781Y0279112D01*
X0068787Y0279223D01*
X0068797Y0279335D01*
X0068811Y0279446D01*
X0068828Y0279556D01*
X0068850Y0279666D01*
X0068876Y0279775D01*
X0068905Y0279883D01*
X0068938Y0279989D01*
X0068975Y0280095D01*
X0069016Y0280199D01*
X0069061Y0280302D01*
X0069109Y0280403D01*
X0069160Y0280502D01*
X0069215Y0280599D01*
X0069274Y0280694D01*
X0069335Y0280788D01*
X0069400Y0280879D01*
X0069469Y0280967D01*
X0069540Y0281053D01*
X0069614Y0281137D01*
X0069692Y0281217D01*
X0069772Y0281295D01*
X0069855Y0281371D01*
X0069940Y0281443D01*
X0070028Y0281512D01*
X0070118Y0281578D01*
X0070211Y0281640D01*
X0070306Y0281700D01*
X0070403Y0281756D01*
X0070501Y0281808D01*
X0070602Y0281857D01*
X0070704Y0281902D01*
X0070808Y0281944D01*
X0070913Y0281982D01*
X0071020Y0282016D01*
X0071127Y0282046D01*
X0071236Y0282073D01*
X0071345Y0282095D01*
X0071456Y0282114D01*
X0071566Y0282129D01*
X0071678Y0282140D01*
X0071789Y0282147D01*
X0071901Y0282150D01*
X0072013Y0282149D01*
X0072125Y0282144D01*
X0072236Y0282135D01*
X0072347Y0282122D01*
X0072458Y0282105D01*
X0072568Y0282085D01*
X0072677Y0282060D01*
X0072785Y0282032D01*
X0072892Y0281999D01*
X0072998Y0281963D01*
X0073102Y0281923D01*
X0073205Y0281880D01*
X0073307Y0281833D01*
X0073406Y0281782D01*
X0073504Y0281728D01*
X0073600Y0281670D01*
X0073694Y0281609D01*
X0073785Y0281545D01*
X0073874Y0281478D01*
X0073961Y0281407D01*
X0074045Y0281333D01*
X0074127Y0281257D01*
X0074205Y0281177D01*
X0074281Y0281095D01*
X0074354Y0281010D01*
X0074424Y0280923D01*
X0074490Y0280833D01*
X0074554Y0280741D01*
X0074614Y0280647D01*
X0074671Y0280551D01*
X0074724Y0280452D01*
X0074774Y0280352D01*
X0074820Y0280251D01*
X0074863Y0280147D01*
X0074902Y0280042D01*
X0074937Y0279936D01*
X0074968Y0279829D01*
X0074996Y0279720D01*
X0075019Y0279611D01*
X0075039Y0279501D01*
X0075055Y0279390D01*
X0075067Y0279279D01*
X0075075Y0279168D01*
X0075079Y0279056D01*
X0075079Y0278944D01*
X0075075Y0278832D01*
X0075067Y0278721D01*
X0075055Y0278610D01*
X0075039Y0278499D01*
X0075019Y0278389D01*
X0074996Y0278280D01*
X0074968Y0278171D01*
X0074937Y0278064D01*
X0074902Y0277958D01*
X0074863Y0277853D01*
X0074820Y0277749D01*
X0074774Y0277648D01*
X0074724Y0277548D01*
X0074671Y0277449D01*
X0074614Y0277353D01*
X0074554Y0277259D01*
X0074490Y0277167D01*
X0074424Y0277077D01*
X0074354Y0276990D01*
X0074281Y0276905D01*
X0074205Y0276823D01*
X0074127Y0276743D01*
X0074045Y0276667D01*
X0073961Y0276593D01*
X0073874Y0276522D01*
X0073785Y0276455D01*
X0073694Y0276391D01*
X0073600Y0276330D01*
X0073504Y0276272D01*
X0073406Y0276218D01*
X0073307Y0276167D01*
X0073205Y0276120D01*
X0073102Y0276077D01*
X0072998Y0276037D01*
X0072892Y0276001D01*
X0072785Y0275968D01*
X0072677Y0275940D01*
X0072568Y0275915D01*
X0072458Y0275895D01*
X0072347Y0275878D01*
X0072236Y0275865D01*
X0072125Y0275856D01*
X0072013Y0275851D01*
X0071901Y0275850D01*
X0071789Y0275853D01*
X0071678Y0275860D01*
X0071566Y0275871D01*
X0071456Y0275886D01*
X0071345Y0275905D01*
X0071236Y0275927D01*
X0071127Y0275954D01*
X0071020Y0275984D01*
X0070913Y0276018D01*
X0070808Y0276056D01*
X0070704Y0276098D01*
X0070602Y0276143D01*
X0070501Y0276192D01*
X0070403Y0276244D01*
X0070306Y0276300D01*
X0070211Y0276360D01*
X0070118Y0276422D01*
X0070028Y0276488D01*
X0069940Y0276557D01*
X0069855Y0276629D01*
X0069772Y0276705D01*
X0069692Y0276783D01*
X0069614Y0276863D01*
X0069540Y0276947D01*
X0069469Y0277033D01*
X0069400Y0277121D01*
X0069335Y0277212D01*
X0069274Y0277306D01*
X0069215Y0277401D01*
X0069160Y0277498D01*
X0069109Y0277597D01*
X0069061Y0277698D01*
X0069016Y0277801D01*
X0068975Y0277905D01*
X0068938Y0278011D01*
X0068905Y0278117D01*
X0068876Y0278225D01*
X0068850Y0278334D01*
X0068828Y0278444D01*
X0068811Y0278554D01*
X0068797Y0278665D01*
X0068787Y0278777D01*
X0068781Y0278888D01*
X0068779Y0279000D01*
X0068779Y0236598D02*
X0068781Y0236710D01*
X0068787Y0236821D01*
X0068797Y0236933D01*
X0068811Y0237044D01*
X0068828Y0237154D01*
X0068850Y0237264D01*
X0068876Y0237373D01*
X0068905Y0237481D01*
X0068938Y0237587D01*
X0068975Y0237693D01*
X0069016Y0237797D01*
X0069061Y0237900D01*
X0069109Y0238001D01*
X0069160Y0238100D01*
X0069215Y0238197D01*
X0069274Y0238292D01*
X0069335Y0238386D01*
X0069400Y0238477D01*
X0069469Y0238565D01*
X0069540Y0238651D01*
X0069614Y0238735D01*
X0069692Y0238815D01*
X0069772Y0238893D01*
X0069855Y0238969D01*
X0069940Y0239041D01*
X0070028Y0239110D01*
X0070118Y0239176D01*
X0070211Y0239238D01*
X0070306Y0239298D01*
X0070403Y0239354D01*
X0070501Y0239406D01*
X0070602Y0239455D01*
X0070704Y0239500D01*
X0070808Y0239542D01*
X0070913Y0239580D01*
X0071020Y0239614D01*
X0071127Y0239644D01*
X0071236Y0239671D01*
X0071345Y0239693D01*
X0071456Y0239712D01*
X0071566Y0239727D01*
X0071678Y0239738D01*
X0071789Y0239745D01*
X0071901Y0239748D01*
X0072013Y0239747D01*
X0072125Y0239742D01*
X0072236Y0239733D01*
X0072347Y0239720D01*
X0072458Y0239703D01*
X0072568Y0239683D01*
X0072677Y0239658D01*
X0072785Y0239630D01*
X0072892Y0239597D01*
X0072998Y0239561D01*
X0073102Y0239521D01*
X0073205Y0239478D01*
X0073307Y0239431D01*
X0073406Y0239380D01*
X0073504Y0239326D01*
X0073600Y0239268D01*
X0073694Y0239207D01*
X0073785Y0239143D01*
X0073874Y0239076D01*
X0073961Y0239005D01*
X0074045Y0238931D01*
X0074127Y0238855D01*
X0074205Y0238775D01*
X0074281Y0238693D01*
X0074354Y0238608D01*
X0074424Y0238521D01*
X0074490Y0238431D01*
X0074554Y0238339D01*
X0074614Y0238245D01*
X0074671Y0238149D01*
X0074724Y0238050D01*
X0074774Y0237950D01*
X0074820Y0237849D01*
X0074863Y0237745D01*
X0074902Y0237640D01*
X0074937Y0237534D01*
X0074968Y0237427D01*
X0074996Y0237318D01*
X0075019Y0237209D01*
X0075039Y0237099D01*
X0075055Y0236988D01*
X0075067Y0236877D01*
X0075075Y0236766D01*
X0075079Y0236654D01*
X0075079Y0236542D01*
X0075075Y0236430D01*
X0075067Y0236319D01*
X0075055Y0236208D01*
X0075039Y0236097D01*
X0075019Y0235987D01*
X0074996Y0235878D01*
X0074968Y0235769D01*
X0074937Y0235662D01*
X0074902Y0235556D01*
X0074863Y0235451D01*
X0074820Y0235347D01*
X0074774Y0235246D01*
X0074724Y0235146D01*
X0074671Y0235047D01*
X0074614Y0234951D01*
X0074554Y0234857D01*
X0074490Y0234765D01*
X0074424Y0234675D01*
X0074354Y0234588D01*
X0074281Y0234503D01*
X0074205Y0234421D01*
X0074127Y0234341D01*
X0074045Y0234265D01*
X0073961Y0234191D01*
X0073874Y0234120D01*
X0073785Y0234053D01*
X0073694Y0233989D01*
X0073600Y0233928D01*
X0073504Y0233870D01*
X0073406Y0233816D01*
X0073307Y0233765D01*
X0073205Y0233718D01*
X0073102Y0233675D01*
X0072998Y0233635D01*
X0072892Y0233599D01*
X0072785Y0233566D01*
X0072677Y0233538D01*
X0072568Y0233513D01*
X0072458Y0233493D01*
X0072347Y0233476D01*
X0072236Y0233463D01*
X0072125Y0233454D01*
X0072013Y0233449D01*
X0071901Y0233448D01*
X0071789Y0233451D01*
X0071678Y0233458D01*
X0071566Y0233469D01*
X0071456Y0233484D01*
X0071345Y0233503D01*
X0071236Y0233525D01*
X0071127Y0233552D01*
X0071020Y0233582D01*
X0070913Y0233616D01*
X0070808Y0233654D01*
X0070704Y0233696D01*
X0070602Y0233741D01*
X0070501Y0233790D01*
X0070403Y0233842D01*
X0070306Y0233898D01*
X0070211Y0233958D01*
X0070118Y0234020D01*
X0070028Y0234086D01*
X0069940Y0234155D01*
X0069855Y0234227D01*
X0069772Y0234303D01*
X0069692Y0234381D01*
X0069614Y0234461D01*
X0069540Y0234545D01*
X0069469Y0234631D01*
X0069400Y0234719D01*
X0069335Y0234810D01*
X0069274Y0234904D01*
X0069215Y0234999D01*
X0069160Y0235096D01*
X0069109Y0235195D01*
X0069061Y0235296D01*
X0069016Y0235399D01*
X0068975Y0235503D01*
X0068938Y0235609D01*
X0068905Y0235715D01*
X0068876Y0235823D01*
X0068850Y0235932D01*
X0068828Y0236042D01*
X0068811Y0236152D01*
X0068797Y0236263D01*
X0068787Y0236375D01*
X0068781Y0236486D01*
X0068779Y0236598D01*
X0068781Y0236710D01*
X0068787Y0236821D01*
X0068797Y0236933D01*
X0068811Y0237044D01*
X0068828Y0237154D01*
X0068850Y0237264D01*
X0068876Y0237373D01*
X0068905Y0237481D01*
X0068938Y0237587D01*
X0068975Y0237693D01*
X0069016Y0237797D01*
X0069061Y0237900D01*
X0069109Y0238001D01*
X0069160Y0238100D01*
X0069215Y0238197D01*
X0069274Y0238292D01*
X0069335Y0238386D01*
X0069400Y0238477D01*
X0069469Y0238565D01*
X0069540Y0238651D01*
X0069614Y0238735D01*
X0069692Y0238815D01*
X0069772Y0238893D01*
X0069855Y0238969D01*
X0069940Y0239041D01*
X0070028Y0239110D01*
X0070118Y0239176D01*
X0070211Y0239238D01*
X0070306Y0239298D01*
X0070403Y0239354D01*
X0070501Y0239406D01*
X0070602Y0239455D01*
X0070704Y0239500D01*
X0070808Y0239542D01*
X0070913Y0239580D01*
X0071020Y0239614D01*
X0071127Y0239644D01*
X0071236Y0239671D01*
X0071345Y0239693D01*
X0071456Y0239712D01*
X0071566Y0239727D01*
X0071678Y0239738D01*
X0071789Y0239745D01*
X0071901Y0239748D01*
X0072013Y0239747D01*
X0072125Y0239742D01*
X0072236Y0239733D01*
X0072347Y0239720D01*
X0072458Y0239703D01*
X0072568Y0239683D01*
X0072677Y0239658D01*
X0072785Y0239630D01*
X0072892Y0239597D01*
X0072998Y0239561D01*
X0073102Y0239521D01*
X0073205Y0239478D01*
X0073307Y0239431D01*
X0073406Y0239380D01*
X0073504Y0239326D01*
X0073600Y0239268D01*
X0073694Y0239207D01*
X0073785Y0239143D01*
X0073874Y0239076D01*
X0073961Y0239005D01*
X0074045Y0238931D01*
X0074127Y0238855D01*
X0074205Y0238775D01*
X0074281Y0238693D01*
X0074354Y0238608D01*
X0074424Y0238521D01*
X0074490Y0238431D01*
X0074554Y0238339D01*
X0074614Y0238245D01*
X0074671Y0238149D01*
X0074724Y0238050D01*
X0074774Y0237950D01*
X0074820Y0237849D01*
X0074863Y0237745D01*
X0074902Y0237640D01*
X0074937Y0237534D01*
X0074968Y0237427D01*
X0074996Y0237318D01*
X0075019Y0237209D01*
X0075039Y0237099D01*
X0075055Y0236988D01*
X0075067Y0236877D01*
X0075075Y0236766D01*
X0075079Y0236654D01*
X0075079Y0236542D01*
X0075075Y0236430D01*
X0075067Y0236319D01*
X0075055Y0236208D01*
X0075039Y0236097D01*
X0075019Y0235987D01*
X0074996Y0235878D01*
X0074968Y0235769D01*
X0074937Y0235662D01*
X0074902Y0235556D01*
X0074863Y0235451D01*
X0074820Y0235347D01*
X0074774Y0235246D01*
X0074724Y0235146D01*
X0074671Y0235047D01*
X0074614Y0234951D01*
X0074554Y0234857D01*
X0074490Y0234765D01*
X0074424Y0234675D01*
X0074354Y0234588D01*
X0074281Y0234503D01*
X0074205Y0234421D01*
X0074127Y0234341D01*
X0074045Y0234265D01*
X0073961Y0234191D01*
X0073874Y0234120D01*
X0073785Y0234053D01*
X0073694Y0233989D01*
X0073600Y0233928D01*
X0073504Y0233870D01*
X0073406Y0233816D01*
X0073307Y0233765D01*
X0073205Y0233718D01*
X0073102Y0233675D01*
X0072998Y0233635D01*
X0072892Y0233599D01*
X0072785Y0233566D01*
X0072677Y0233538D01*
X0072568Y0233513D01*
X0072458Y0233493D01*
X0072347Y0233476D01*
X0072236Y0233463D01*
X0072125Y0233454D01*
X0072013Y0233449D01*
X0071901Y0233448D01*
X0071789Y0233451D01*
X0071678Y0233458D01*
X0071566Y0233469D01*
X0071456Y0233484D01*
X0071345Y0233503D01*
X0071236Y0233525D01*
X0071127Y0233552D01*
X0071020Y0233582D01*
X0070913Y0233616D01*
X0070808Y0233654D01*
X0070704Y0233696D01*
X0070602Y0233741D01*
X0070501Y0233790D01*
X0070403Y0233842D01*
X0070306Y0233898D01*
X0070211Y0233958D01*
X0070118Y0234020D01*
X0070028Y0234086D01*
X0069940Y0234155D01*
X0069855Y0234227D01*
X0069772Y0234303D01*
X0069692Y0234381D01*
X0069614Y0234461D01*
X0069540Y0234545D01*
X0069469Y0234631D01*
X0069400Y0234719D01*
X0069335Y0234810D01*
X0069274Y0234904D01*
X0069215Y0234999D01*
X0069160Y0235096D01*
X0069109Y0235195D01*
X0069061Y0235296D01*
X0069016Y0235399D01*
X0068975Y0235503D01*
X0068938Y0235609D01*
X0068905Y0235715D01*
X0068876Y0235823D01*
X0068850Y0235932D01*
X0068828Y0236042D01*
X0068811Y0236152D01*
X0068797Y0236263D01*
X0068787Y0236375D01*
X0068781Y0236486D01*
X0068779Y0236598D01*
X0057559Y0019610D02*
X0057561Y0019763D01*
X0057567Y0019917D01*
X0057577Y0020070D01*
X0057591Y0020222D01*
X0057609Y0020375D01*
X0057631Y0020526D01*
X0057656Y0020677D01*
X0057686Y0020828D01*
X0057720Y0020978D01*
X0057757Y0021126D01*
X0057798Y0021274D01*
X0057843Y0021420D01*
X0057892Y0021566D01*
X0057945Y0021710D01*
X0058001Y0021852D01*
X0058061Y0021993D01*
X0058125Y0022133D01*
X0058192Y0022271D01*
X0058263Y0022407D01*
X0058338Y0022541D01*
X0058415Y0022673D01*
X0058497Y0022803D01*
X0058581Y0022931D01*
X0058669Y0023057D01*
X0058760Y0023180D01*
X0058854Y0023301D01*
X0058952Y0023419D01*
X0059052Y0023535D01*
X0059156Y0023648D01*
X0059262Y0023759D01*
X0059371Y0023867D01*
X0059483Y0023972D01*
X0059597Y0024073D01*
X0059715Y0024172D01*
X0059834Y0024268D01*
X0059956Y0024361D01*
X0060081Y0024450D01*
X0060208Y0024537D01*
X0060337Y0024619D01*
X0060468Y0024699D01*
X0060601Y0024775D01*
X0060736Y0024848D01*
X0060873Y0024917D01*
X0061012Y0024982D01*
X0061152Y0025044D01*
X0061294Y0025102D01*
X0061437Y0025157D01*
X0061582Y0025208D01*
X0061728Y0025255D01*
X0061875Y0025298D01*
X0062023Y0025337D01*
X0062172Y0025373D01*
X0062322Y0025404D01*
X0062473Y0025432D01*
X0062624Y0025456D01*
X0062777Y0025476D01*
X0062929Y0025492D01*
X0063082Y0025504D01*
X0063235Y0025512D01*
X0063388Y0025516D01*
X0063542Y0025516D01*
X0063695Y0025512D01*
X0063848Y0025504D01*
X0064001Y0025492D01*
X0064153Y0025476D01*
X0064306Y0025456D01*
X0064457Y0025432D01*
X0064608Y0025404D01*
X0064758Y0025373D01*
X0064907Y0025337D01*
X0065055Y0025298D01*
X0065202Y0025255D01*
X0065348Y0025208D01*
X0065493Y0025157D01*
X0065636Y0025102D01*
X0065778Y0025044D01*
X0065918Y0024982D01*
X0066057Y0024917D01*
X0066194Y0024848D01*
X0066329Y0024775D01*
X0066462Y0024699D01*
X0066593Y0024619D01*
X0066722Y0024537D01*
X0066849Y0024450D01*
X0066974Y0024361D01*
X0067096Y0024268D01*
X0067215Y0024172D01*
X0067333Y0024073D01*
X0067447Y0023972D01*
X0067559Y0023867D01*
X0067668Y0023759D01*
X0067774Y0023648D01*
X0067878Y0023535D01*
X0067978Y0023419D01*
X0068076Y0023301D01*
X0068170Y0023180D01*
X0068261Y0023057D01*
X0068349Y0022931D01*
X0068433Y0022803D01*
X0068515Y0022673D01*
X0068592Y0022541D01*
X0068667Y0022407D01*
X0068738Y0022271D01*
X0068805Y0022133D01*
X0068869Y0021993D01*
X0068929Y0021852D01*
X0068985Y0021710D01*
X0069038Y0021566D01*
X0069087Y0021420D01*
X0069132Y0021274D01*
X0069173Y0021126D01*
X0069210Y0020978D01*
X0069244Y0020828D01*
X0069274Y0020677D01*
X0069299Y0020526D01*
X0069321Y0020375D01*
X0069339Y0020222D01*
X0069353Y0020070D01*
X0069363Y0019917D01*
X0069369Y0019763D01*
X0069371Y0019610D01*
X0069369Y0019457D01*
X0069363Y0019303D01*
X0069353Y0019150D01*
X0069339Y0018998D01*
X0069321Y0018845D01*
X0069299Y0018694D01*
X0069274Y0018543D01*
X0069244Y0018392D01*
X0069210Y0018242D01*
X0069173Y0018094D01*
X0069132Y0017946D01*
X0069087Y0017800D01*
X0069038Y0017654D01*
X0068985Y0017510D01*
X0068929Y0017368D01*
X0068869Y0017227D01*
X0068805Y0017087D01*
X0068738Y0016949D01*
X0068667Y0016813D01*
X0068592Y0016679D01*
X0068515Y0016547D01*
X0068433Y0016417D01*
X0068349Y0016289D01*
X0068261Y0016163D01*
X0068170Y0016040D01*
X0068076Y0015919D01*
X0067978Y0015801D01*
X0067878Y0015685D01*
X0067774Y0015572D01*
X0067668Y0015461D01*
X0067559Y0015353D01*
X0067447Y0015248D01*
X0067333Y0015147D01*
X0067215Y0015048D01*
X0067096Y0014952D01*
X0066974Y0014859D01*
X0066849Y0014770D01*
X0066722Y0014683D01*
X0066593Y0014601D01*
X0066462Y0014521D01*
X0066329Y0014445D01*
X0066194Y0014372D01*
X0066057Y0014303D01*
X0065918Y0014238D01*
X0065778Y0014176D01*
X0065636Y0014118D01*
X0065493Y0014063D01*
X0065348Y0014012D01*
X0065202Y0013965D01*
X0065055Y0013922D01*
X0064907Y0013883D01*
X0064758Y0013847D01*
X0064608Y0013816D01*
X0064457Y0013788D01*
X0064306Y0013764D01*
X0064153Y0013744D01*
X0064001Y0013728D01*
X0063848Y0013716D01*
X0063695Y0013708D01*
X0063542Y0013704D01*
X0063388Y0013704D01*
X0063235Y0013708D01*
X0063082Y0013716D01*
X0062929Y0013728D01*
X0062777Y0013744D01*
X0062624Y0013764D01*
X0062473Y0013788D01*
X0062322Y0013816D01*
X0062172Y0013847D01*
X0062023Y0013883D01*
X0061875Y0013922D01*
X0061728Y0013965D01*
X0061582Y0014012D01*
X0061437Y0014063D01*
X0061294Y0014118D01*
X0061152Y0014176D01*
X0061012Y0014238D01*
X0060873Y0014303D01*
X0060736Y0014372D01*
X0060601Y0014445D01*
X0060468Y0014521D01*
X0060337Y0014601D01*
X0060208Y0014683D01*
X0060081Y0014770D01*
X0059956Y0014859D01*
X0059834Y0014952D01*
X0059715Y0015048D01*
X0059597Y0015147D01*
X0059483Y0015248D01*
X0059371Y0015353D01*
X0059262Y0015461D01*
X0059156Y0015572D01*
X0059052Y0015685D01*
X0058952Y0015801D01*
X0058854Y0015919D01*
X0058760Y0016040D01*
X0058669Y0016163D01*
X0058581Y0016289D01*
X0058497Y0016417D01*
X0058415Y0016547D01*
X0058338Y0016679D01*
X0058263Y0016813D01*
X0058192Y0016949D01*
X0058125Y0017087D01*
X0058061Y0017227D01*
X0058001Y0017368D01*
X0057945Y0017510D01*
X0057892Y0017654D01*
X0057843Y0017800D01*
X0057798Y0017946D01*
X0057757Y0018094D01*
X0057720Y0018242D01*
X0057686Y0018392D01*
X0057656Y0018543D01*
X0057631Y0018694D01*
X0057609Y0018845D01*
X0057591Y0018998D01*
X0057577Y0019150D01*
X0057567Y0019303D01*
X0057561Y0019457D01*
X0057559Y0019610D01*
X0039055Y0019610D02*
X0039057Y0019763D01*
X0039063Y0019917D01*
X0039073Y0020070D01*
X0039087Y0020222D01*
X0039105Y0020375D01*
X0039127Y0020526D01*
X0039152Y0020677D01*
X0039182Y0020828D01*
X0039216Y0020978D01*
X0039253Y0021126D01*
X0039294Y0021274D01*
X0039339Y0021420D01*
X0039388Y0021566D01*
X0039441Y0021710D01*
X0039497Y0021852D01*
X0039557Y0021993D01*
X0039621Y0022133D01*
X0039688Y0022271D01*
X0039759Y0022407D01*
X0039834Y0022541D01*
X0039911Y0022673D01*
X0039993Y0022803D01*
X0040077Y0022931D01*
X0040165Y0023057D01*
X0040256Y0023180D01*
X0040350Y0023301D01*
X0040448Y0023419D01*
X0040548Y0023535D01*
X0040652Y0023648D01*
X0040758Y0023759D01*
X0040867Y0023867D01*
X0040979Y0023972D01*
X0041093Y0024073D01*
X0041211Y0024172D01*
X0041330Y0024268D01*
X0041452Y0024361D01*
X0041577Y0024450D01*
X0041704Y0024537D01*
X0041833Y0024619D01*
X0041964Y0024699D01*
X0042097Y0024775D01*
X0042232Y0024848D01*
X0042369Y0024917D01*
X0042508Y0024982D01*
X0042648Y0025044D01*
X0042790Y0025102D01*
X0042933Y0025157D01*
X0043078Y0025208D01*
X0043224Y0025255D01*
X0043371Y0025298D01*
X0043519Y0025337D01*
X0043668Y0025373D01*
X0043818Y0025404D01*
X0043969Y0025432D01*
X0044120Y0025456D01*
X0044273Y0025476D01*
X0044425Y0025492D01*
X0044578Y0025504D01*
X0044731Y0025512D01*
X0044884Y0025516D01*
X0045038Y0025516D01*
X0045191Y0025512D01*
X0045344Y0025504D01*
X0045497Y0025492D01*
X0045649Y0025476D01*
X0045802Y0025456D01*
X0045953Y0025432D01*
X0046104Y0025404D01*
X0046254Y0025373D01*
X0046403Y0025337D01*
X0046551Y0025298D01*
X0046698Y0025255D01*
X0046844Y0025208D01*
X0046989Y0025157D01*
X0047132Y0025102D01*
X0047274Y0025044D01*
X0047414Y0024982D01*
X0047553Y0024917D01*
X0047690Y0024848D01*
X0047825Y0024775D01*
X0047958Y0024699D01*
X0048089Y0024619D01*
X0048218Y0024537D01*
X0048345Y0024450D01*
X0048470Y0024361D01*
X0048592Y0024268D01*
X0048711Y0024172D01*
X0048829Y0024073D01*
X0048943Y0023972D01*
X0049055Y0023867D01*
X0049164Y0023759D01*
X0049270Y0023648D01*
X0049374Y0023535D01*
X0049474Y0023419D01*
X0049572Y0023301D01*
X0049666Y0023180D01*
X0049757Y0023057D01*
X0049845Y0022931D01*
X0049929Y0022803D01*
X0050011Y0022673D01*
X0050088Y0022541D01*
X0050163Y0022407D01*
X0050234Y0022271D01*
X0050301Y0022133D01*
X0050365Y0021993D01*
X0050425Y0021852D01*
X0050481Y0021710D01*
X0050534Y0021566D01*
X0050583Y0021420D01*
X0050628Y0021274D01*
X0050669Y0021126D01*
X0050706Y0020978D01*
X0050740Y0020828D01*
X0050770Y0020677D01*
X0050795Y0020526D01*
X0050817Y0020375D01*
X0050835Y0020222D01*
X0050849Y0020070D01*
X0050859Y0019917D01*
X0050865Y0019763D01*
X0050867Y0019610D01*
X0050865Y0019457D01*
X0050859Y0019303D01*
X0050849Y0019150D01*
X0050835Y0018998D01*
X0050817Y0018845D01*
X0050795Y0018694D01*
X0050770Y0018543D01*
X0050740Y0018392D01*
X0050706Y0018242D01*
X0050669Y0018094D01*
X0050628Y0017946D01*
X0050583Y0017800D01*
X0050534Y0017654D01*
X0050481Y0017510D01*
X0050425Y0017368D01*
X0050365Y0017227D01*
X0050301Y0017087D01*
X0050234Y0016949D01*
X0050163Y0016813D01*
X0050088Y0016679D01*
X0050011Y0016547D01*
X0049929Y0016417D01*
X0049845Y0016289D01*
X0049757Y0016163D01*
X0049666Y0016040D01*
X0049572Y0015919D01*
X0049474Y0015801D01*
X0049374Y0015685D01*
X0049270Y0015572D01*
X0049164Y0015461D01*
X0049055Y0015353D01*
X0048943Y0015248D01*
X0048829Y0015147D01*
X0048711Y0015048D01*
X0048592Y0014952D01*
X0048470Y0014859D01*
X0048345Y0014770D01*
X0048218Y0014683D01*
X0048089Y0014601D01*
X0047958Y0014521D01*
X0047825Y0014445D01*
X0047690Y0014372D01*
X0047553Y0014303D01*
X0047414Y0014238D01*
X0047274Y0014176D01*
X0047132Y0014118D01*
X0046989Y0014063D01*
X0046844Y0014012D01*
X0046698Y0013965D01*
X0046551Y0013922D01*
X0046403Y0013883D01*
X0046254Y0013847D01*
X0046104Y0013816D01*
X0045953Y0013788D01*
X0045802Y0013764D01*
X0045649Y0013744D01*
X0045497Y0013728D01*
X0045344Y0013716D01*
X0045191Y0013708D01*
X0045038Y0013704D01*
X0044884Y0013704D01*
X0044731Y0013708D01*
X0044578Y0013716D01*
X0044425Y0013728D01*
X0044273Y0013744D01*
X0044120Y0013764D01*
X0043969Y0013788D01*
X0043818Y0013816D01*
X0043668Y0013847D01*
X0043519Y0013883D01*
X0043371Y0013922D01*
X0043224Y0013965D01*
X0043078Y0014012D01*
X0042933Y0014063D01*
X0042790Y0014118D01*
X0042648Y0014176D01*
X0042508Y0014238D01*
X0042369Y0014303D01*
X0042232Y0014372D01*
X0042097Y0014445D01*
X0041964Y0014521D01*
X0041833Y0014601D01*
X0041704Y0014683D01*
X0041577Y0014770D01*
X0041452Y0014859D01*
X0041330Y0014952D01*
X0041211Y0015048D01*
X0041093Y0015147D01*
X0040979Y0015248D01*
X0040867Y0015353D01*
X0040758Y0015461D01*
X0040652Y0015572D01*
X0040548Y0015685D01*
X0040448Y0015801D01*
X0040350Y0015919D01*
X0040256Y0016040D01*
X0040165Y0016163D01*
X0040077Y0016289D01*
X0039993Y0016417D01*
X0039911Y0016547D01*
X0039834Y0016679D01*
X0039759Y0016813D01*
X0039688Y0016949D01*
X0039621Y0017087D01*
X0039557Y0017227D01*
X0039497Y0017368D01*
X0039441Y0017510D01*
X0039388Y0017654D01*
X0039339Y0017800D01*
X0039294Y0017946D01*
X0039253Y0018094D01*
X0039216Y0018242D01*
X0039182Y0018392D01*
X0039152Y0018543D01*
X0039127Y0018694D01*
X0039105Y0018845D01*
X0039087Y0018998D01*
X0039073Y0019150D01*
X0039063Y0019303D01*
X0039057Y0019457D01*
X0039055Y0019610D01*
D13*
X0056181Y0231815D02*
X0056181Y0283783D01*
X0087677Y0283783D01*
X0087677Y0231815D01*
X0056181Y0231815D01*
M02*
