G75*
%MOIN*%
%OFA0B0*%
%FSLAX25Y25*%
%IPPOS*%
%LPD*%
%AMOC8*
5,1,8,0,0,1.08239X$1,22.5*
%
%ADD10C,0.00500*%
%ADD11C,0.17717*%
%ADD12R,0.05906X0.03150*%
%ADD13R,0.09843X0.04724*%
%ADD14C,0.00000*%
%ADD15R,0.06024X0.06024*%
%ADD16C,0.06024*%
%ADD17C,0.02381*%
%ADD18C,0.02400*%
%ADD19C,0.00787*%
%ADD20C,0.01600*%
%ADD21C,0.01000*%
D10*
X0005000Y0013705D02*
X0005000Y0320791D01*
X0005002Y0320915D01*
X0005008Y0321038D01*
X0005017Y0321162D01*
X0005031Y0321284D01*
X0005048Y0321407D01*
X0005070Y0321529D01*
X0005095Y0321650D01*
X0005124Y0321770D01*
X0005156Y0321889D01*
X0005193Y0322008D01*
X0005233Y0322125D01*
X0005276Y0322240D01*
X0005324Y0322355D01*
X0005375Y0322467D01*
X0005429Y0322578D01*
X0005487Y0322688D01*
X0005548Y0322795D01*
X0005613Y0322901D01*
X0005681Y0323004D01*
X0005752Y0323105D01*
X0005826Y0323204D01*
X0005903Y0323301D01*
X0005984Y0323395D01*
X0006067Y0323486D01*
X0006153Y0323575D01*
X0006242Y0323661D01*
X0006333Y0323744D01*
X0006427Y0323825D01*
X0006524Y0323902D01*
X0006623Y0323976D01*
X0006724Y0324047D01*
X0006827Y0324115D01*
X0006933Y0324180D01*
X0007040Y0324241D01*
X0007150Y0324299D01*
X0007261Y0324353D01*
X0007373Y0324404D01*
X0007488Y0324452D01*
X0007603Y0324495D01*
X0007720Y0324535D01*
X0007839Y0324572D01*
X0007958Y0324604D01*
X0008078Y0324633D01*
X0008199Y0324658D01*
X0008321Y0324680D01*
X0008444Y0324697D01*
X0008566Y0324711D01*
X0008690Y0324720D01*
X0008813Y0324726D01*
X0008937Y0324728D01*
X0099488Y0324728D01*
X0099612Y0324726D01*
X0099735Y0324720D01*
X0099859Y0324711D01*
X0099981Y0324697D01*
X0100104Y0324680D01*
X0100226Y0324658D01*
X0100347Y0324633D01*
X0100467Y0324604D01*
X0100586Y0324572D01*
X0100705Y0324535D01*
X0100822Y0324495D01*
X0100937Y0324452D01*
X0101052Y0324404D01*
X0101164Y0324353D01*
X0101275Y0324299D01*
X0101385Y0324241D01*
X0101492Y0324180D01*
X0101598Y0324115D01*
X0101701Y0324047D01*
X0101802Y0323976D01*
X0101901Y0323902D01*
X0101998Y0323825D01*
X0102092Y0323744D01*
X0102183Y0323661D01*
X0102272Y0323575D01*
X0102358Y0323486D01*
X0102441Y0323395D01*
X0102522Y0323301D01*
X0102599Y0323204D01*
X0102673Y0323105D01*
X0102744Y0323004D01*
X0102812Y0322901D01*
X0102877Y0322795D01*
X0102938Y0322688D01*
X0102996Y0322578D01*
X0103050Y0322467D01*
X0103101Y0322355D01*
X0103149Y0322240D01*
X0103192Y0322125D01*
X0103232Y0322008D01*
X0103269Y0321889D01*
X0103301Y0321770D01*
X0103330Y0321650D01*
X0103355Y0321529D01*
X0103377Y0321407D01*
X0103394Y0321284D01*
X0103408Y0321162D01*
X0103417Y0321038D01*
X0103423Y0320915D01*
X0103425Y0320791D01*
X0103425Y0013705D01*
X0103423Y0013581D01*
X0103417Y0013458D01*
X0103408Y0013334D01*
X0103394Y0013212D01*
X0103377Y0013089D01*
X0103355Y0012967D01*
X0103330Y0012846D01*
X0103301Y0012726D01*
X0103269Y0012607D01*
X0103232Y0012488D01*
X0103192Y0012371D01*
X0103149Y0012256D01*
X0103101Y0012141D01*
X0103050Y0012029D01*
X0102996Y0011918D01*
X0102938Y0011808D01*
X0102877Y0011701D01*
X0102812Y0011595D01*
X0102744Y0011492D01*
X0102673Y0011391D01*
X0102599Y0011292D01*
X0102522Y0011195D01*
X0102441Y0011101D01*
X0102358Y0011010D01*
X0102272Y0010921D01*
X0102183Y0010835D01*
X0102092Y0010752D01*
X0101998Y0010671D01*
X0101901Y0010594D01*
X0101802Y0010520D01*
X0101701Y0010449D01*
X0101598Y0010381D01*
X0101492Y0010316D01*
X0101385Y0010255D01*
X0101275Y0010197D01*
X0101164Y0010143D01*
X0101052Y0010092D01*
X0100937Y0010044D01*
X0100822Y0010001D01*
X0100705Y0009961D01*
X0100586Y0009924D01*
X0100467Y0009892D01*
X0100347Y0009863D01*
X0100226Y0009838D01*
X0100104Y0009816D01*
X0099981Y0009799D01*
X0099859Y0009785D01*
X0099735Y0009776D01*
X0099612Y0009770D01*
X0099488Y0009768D01*
X0008937Y0009768D01*
X0008813Y0009770D01*
X0008690Y0009776D01*
X0008566Y0009785D01*
X0008444Y0009799D01*
X0008321Y0009816D01*
X0008199Y0009838D01*
X0008078Y0009863D01*
X0007958Y0009892D01*
X0007839Y0009924D01*
X0007720Y0009961D01*
X0007603Y0010001D01*
X0007488Y0010044D01*
X0007373Y0010092D01*
X0007261Y0010143D01*
X0007150Y0010197D01*
X0007040Y0010255D01*
X0006933Y0010316D01*
X0006827Y0010381D01*
X0006724Y0010449D01*
X0006623Y0010520D01*
X0006524Y0010594D01*
X0006427Y0010671D01*
X0006333Y0010752D01*
X0006242Y0010835D01*
X0006153Y0010921D01*
X0006067Y0011010D01*
X0005984Y0011101D01*
X0005903Y0011195D01*
X0005826Y0011292D01*
X0005752Y0011391D01*
X0005681Y0011492D01*
X0005613Y0011595D01*
X0005548Y0011701D01*
X0005487Y0011808D01*
X0005429Y0011918D01*
X0005375Y0012029D01*
X0005324Y0012141D01*
X0005276Y0012256D01*
X0005233Y0012371D01*
X0005193Y0012488D01*
X0005156Y0012607D01*
X0005124Y0012726D01*
X0005095Y0012846D01*
X0005070Y0012967D01*
X0005048Y0013089D01*
X0005031Y0013212D01*
X0005017Y0013334D01*
X0005008Y0013458D01*
X0005002Y0013581D01*
X0005000Y0013705D01*
D11*
X0014843Y0019610D03*
X0093583Y0019610D03*
X0093583Y0314886D03*
X0014843Y0314886D03*
D12*
X0060315Y0270260D03*
X0060315Y0265260D03*
X0060315Y0260260D03*
X0060315Y0255260D03*
X0060315Y0250260D03*
X0060315Y0245260D03*
X0083543Y0245260D03*
X0083543Y0250260D03*
X0083543Y0255260D03*
X0083543Y0260260D03*
X0083543Y0265260D03*
X0083543Y0270260D03*
D13*
X0081969Y0280634D03*
X0081969Y0234965D03*
X0061890Y0234965D03*
X0061890Y0280634D03*
D14*
X0068779Y0279000D02*
X0068781Y0279112D01*
X0068787Y0279223D01*
X0068797Y0279335D01*
X0068811Y0279446D01*
X0068828Y0279556D01*
X0068850Y0279666D01*
X0068876Y0279775D01*
X0068905Y0279883D01*
X0068938Y0279989D01*
X0068975Y0280095D01*
X0069016Y0280199D01*
X0069061Y0280302D01*
X0069109Y0280403D01*
X0069160Y0280502D01*
X0069215Y0280599D01*
X0069274Y0280694D01*
X0069335Y0280788D01*
X0069400Y0280879D01*
X0069469Y0280967D01*
X0069540Y0281053D01*
X0069614Y0281137D01*
X0069692Y0281217D01*
X0069772Y0281295D01*
X0069855Y0281371D01*
X0069940Y0281443D01*
X0070028Y0281512D01*
X0070118Y0281578D01*
X0070211Y0281640D01*
X0070306Y0281700D01*
X0070403Y0281756D01*
X0070501Y0281808D01*
X0070602Y0281857D01*
X0070704Y0281902D01*
X0070808Y0281944D01*
X0070913Y0281982D01*
X0071020Y0282016D01*
X0071127Y0282046D01*
X0071236Y0282073D01*
X0071345Y0282095D01*
X0071456Y0282114D01*
X0071566Y0282129D01*
X0071678Y0282140D01*
X0071789Y0282147D01*
X0071901Y0282150D01*
X0072013Y0282149D01*
X0072125Y0282144D01*
X0072236Y0282135D01*
X0072347Y0282122D01*
X0072458Y0282105D01*
X0072568Y0282085D01*
X0072677Y0282060D01*
X0072785Y0282032D01*
X0072892Y0281999D01*
X0072998Y0281963D01*
X0073102Y0281923D01*
X0073205Y0281880D01*
X0073307Y0281833D01*
X0073406Y0281782D01*
X0073504Y0281728D01*
X0073600Y0281670D01*
X0073694Y0281609D01*
X0073785Y0281545D01*
X0073874Y0281478D01*
X0073961Y0281407D01*
X0074045Y0281333D01*
X0074127Y0281257D01*
X0074205Y0281177D01*
X0074281Y0281095D01*
X0074354Y0281010D01*
X0074424Y0280923D01*
X0074490Y0280833D01*
X0074554Y0280741D01*
X0074614Y0280647D01*
X0074671Y0280551D01*
X0074724Y0280452D01*
X0074774Y0280352D01*
X0074820Y0280251D01*
X0074863Y0280147D01*
X0074902Y0280042D01*
X0074937Y0279936D01*
X0074968Y0279829D01*
X0074996Y0279720D01*
X0075019Y0279611D01*
X0075039Y0279501D01*
X0075055Y0279390D01*
X0075067Y0279279D01*
X0075075Y0279168D01*
X0075079Y0279056D01*
X0075079Y0278944D01*
X0075075Y0278832D01*
X0075067Y0278721D01*
X0075055Y0278610D01*
X0075039Y0278499D01*
X0075019Y0278389D01*
X0074996Y0278280D01*
X0074968Y0278171D01*
X0074937Y0278064D01*
X0074902Y0277958D01*
X0074863Y0277853D01*
X0074820Y0277749D01*
X0074774Y0277648D01*
X0074724Y0277548D01*
X0074671Y0277449D01*
X0074614Y0277353D01*
X0074554Y0277259D01*
X0074490Y0277167D01*
X0074424Y0277077D01*
X0074354Y0276990D01*
X0074281Y0276905D01*
X0074205Y0276823D01*
X0074127Y0276743D01*
X0074045Y0276667D01*
X0073961Y0276593D01*
X0073874Y0276522D01*
X0073785Y0276455D01*
X0073694Y0276391D01*
X0073600Y0276330D01*
X0073504Y0276272D01*
X0073406Y0276218D01*
X0073307Y0276167D01*
X0073205Y0276120D01*
X0073102Y0276077D01*
X0072998Y0276037D01*
X0072892Y0276001D01*
X0072785Y0275968D01*
X0072677Y0275940D01*
X0072568Y0275915D01*
X0072458Y0275895D01*
X0072347Y0275878D01*
X0072236Y0275865D01*
X0072125Y0275856D01*
X0072013Y0275851D01*
X0071901Y0275850D01*
X0071789Y0275853D01*
X0071678Y0275860D01*
X0071566Y0275871D01*
X0071456Y0275886D01*
X0071345Y0275905D01*
X0071236Y0275927D01*
X0071127Y0275954D01*
X0071020Y0275984D01*
X0070913Y0276018D01*
X0070808Y0276056D01*
X0070704Y0276098D01*
X0070602Y0276143D01*
X0070501Y0276192D01*
X0070403Y0276244D01*
X0070306Y0276300D01*
X0070211Y0276360D01*
X0070118Y0276422D01*
X0070028Y0276488D01*
X0069940Y0276557D01*
X0069855Y0276629D01*
X0069772Y0276705D01*
X0069692Y0276783D01*
X0069614Y0276863D01*
X0069540Y0276947D01*
X0069469Y0277033D01*
X0069400Y0277121D01*
X0069335Y0277212D01*
X0069274Y0277306D01*
X0069215Y0277401D01*
X0069160Y0277498D01*
X0069109Y0277597D01*
X0069061Y0277698D01*
X0069016Y0277801D01*
X0068975Y0277905D01*
X0068938Y0278011D01*
X0068905Y0278117D01*
X0068876Y0278225D01*
X0068850Y0278334D01*
X0068828Y0278444D01*
X0068811Y0278554D01*
X0068797Y0278665D01*
X0068787Y0278777D01*
X0068781Y0278888D01*
X0068779Y0279000D01*
X0068781Y0279112D01*
X0068787Y0279223D01*
X0068797Y0279335D01*
X0068811Y0279446D01*
X0068828Y0279556D01*
X0068850Y0279666D01*
X0068876Y0279775D01*
X0068905Y0279883D01*
X0068938Y0279989D01*
X0068975Y0280095D01*
X0069016Y0280199D01*
X0069061Y0280302D01*
X0069109Y0280403D01*
X0069160Y0280502D01*
X0069215Y0280599D01*
X0069274Y0280694D01*
X0069335Y0280788D01*
X0069400Y0280879D01*
X0069469Y0280967D01*
X0069540Y0281053D01*
X0069614Y0281137D01*
X0069692Y0281217D01*
X0069772Y0281295D01*
X0069855Y0281371D01*
X0069940Y0281443D01*
X0070028Y0281512D01*
X0070118Y0281578D01*
X0070211Y0281640D01*
X0070306Y0281700D01*
X0070403Y0281756D01*
X0070501Y0281808D01*
X0070602Y0281857D01*
X0070704Y0281902D01*
X0070808Y0281944D01*
X0070913Y0281982D01*
X0071020Y0282016D01*
X0071127Y0282046D01*
X0071236Y0282073D01*
X0071345Y0282095D01*
X0071456Y0282114D01*
X0071566Y0282129D01*
X0071678Y0282140D01*
X0071789Y0282147D01*
X0071901Y0282150D01*
X0072013Y0282149D01*
X0072125Y0282144D01*
X0072236Y0282135D01*
X0072347Y0282122D01*
X0072458Y0282105D01*
X0072568Y0282085D01*
X0072677Y0282060D01*
X0072785Y0282032D01*
X0072892Y0281999D01*
X0072998Y0281963D01*
X0073102Y0281923D01*
X0073205Y0281880D01*
X0073307Y0281833D01*
X0073406Y0281782D01*
X0073504Y0281728D01*
X0073600Y0281670D01*
X0073694Y0281609D01*
X0073785Y0281545D01*
X0073874Y0281478D01*
X0073961Y0281407D01*
X0074045Y0281333D01*
X0074127Y0281257D01*
X0074205Y0281177D01*
X0074281Y0281095D01*
X0074354Y0281010D01*
X0074424Y0280923D01*
X0074490Y0280833D01*
X0074554Y0280741D01*
X0074614Y0280647D01*
X0074671Y0280551D01*
X0074724Y0280452D01*
X0074774Y0280352D01*
X0074820Y0280251D01*
X0074863Y0280147D01*
X0074902Y0280042D01*
X0074937Y0279936D01*
X0074968Y0279829D01*
X0074996Y0279720D01*
X0075019Y0279611D01*
X0075039Y0279501D01*
X0075055Y0279390D01*
X0075067Y0279279D01*
X0075075Y0279168D01*
X0075079Y0279056D01*
X0075079Y0278944D01*
X0075075Y0278832D01*
X0075067Y0278721D01*
X0075055Y0278610D01*
X0075039Y0278499D01*
X0075019Y0278389D01*
X0074996Y0278280D01*
X0074968Y0278171D01*
X0074937Y0278064D01*
X0074902Y0277958D01*
X0074863Y0277853D01*
X0074820Y0277749D01*
X0074774Y0277648D01*
X0074724Y0277548D01*
X0074671Y0277449D01*
X0074614Y0277353D01*
X0074554Y0277259D01*
X0074490Y0277167D01*
X0074424Y0277077D01*
X0074354Y0276990D01*
X0074281Y0276905D01*
X0074205Y0276823D01*
X0074127Y0276743D01*
X0074045Y0276667D01*
X0073961Y0276593D01*
X0073874Y0276522D01*
X0073785Y0276455D01*
X0073694Y0276391D01*
X0073600Y0276330D01*
X0073504Y0276272D01*
X0073406Y0276218D01*
X0073307Y0276167D01*
X0073205Y0276120D01*
X0073102Y0276077D01*
X0072998Y0276037D01*
X0072892Y0276001D01*
X0072785Y0275968D01*
X0072677Y0275940D01*
X0072568Y0275915D01*
X0072458Y0275895D01*
X0072347Y0275878D01*
X0072236Y0275865D01*
X0072125Y0275856D01*
X0072013Y0275851D01*
X0071901Y0275850D01*
X0071789Y0275853D01*
X0071678Y0275860D01*
X0071566Y0275871D01*
X0071456Y0275886D01*
X0071345Y0275905D01*
X0071236Y0275927D01*
X0071127Y0275954D01*
X0071020Y0275984D01*
X0070913Y0276018D01*
X0070808Y0276056D01*
X0070704Y0276098D01*
X0070602Y0276143D01*
X0070501Y0276192D01*
X0070403Y0276244D01*
X0070306Y0276300D01*
X0070211Y0276360D01*
X0070118Y0276422D01*
X0070028Y0276488D01*
X0069940Y0276557D01*
X0069855Y0276629D01*
X0069772Y0276705D01*
X0069692Y0276783D01*
X0069614Y0276863D01*
X0069540Y0276947D01*
X0069469Y0277033D01*
X0069400Y0277121D01*
X0069335Y0277212D01*
X0069274Y0277306D01*
X0069215Y0277401D01*
X0069160Y0277498D01*
X0069109Y0277597D01*
X0069061Y0277698D01*
X0069016Y0277801D01*
X0068975Y0277905D01*
X0068938Y0278011D01*
X0068905Y0278117D01*
X0068876Y0278225D01*
X0068850Y0278334D01*
X0068828Y0278444D01*
X0068811Y0278554D01*
X0068797Y0278665D01*
X0068787Y0278777D01*
X0068781Y0278888D01*
X0068779Y0279000D01*
X0068779Y0236598D02*
X0068781Y0236710D01*
X0068787Y0236821D01*
X0068797Y0236933D01*
X0068811Y0237044D01*
X0068828Y0237154D01*
X0068850Y0237264D01*
X0068876Y0237373D01*
X0068905Y0237481D01*
X0068938Y0237587D01*
X0068975Y0237693D01*
X0069016Y0237797D01*
X0069061Y0237900D01*
X0069109Y0238001D01*
X0069160Y0238100D01*
X0069215Y0238197D01*
X0069274Y0238292D01*
X0069335Y0238386D01*
X0069400Y0238477D01*
X0069469Y0238565D01*
X0069540Y0238651D01*
X0069614Y0238735D01*
X0069692Y0238815D01*
X0069772Y0238893D01*
X0069855Y0238969D01*
X0069940Y0239041D01*
X0070028Y0239110D01*
X0070118Y0239176D01*
X0070211Y0239238D01*
X0070306Y0239298D01*
X0070403Y0239354D01*
X0070501Y0239406D01*
X0070602Y0239455D01*
X0070704Y0239500D01*
X0070808Y0239542D01*
X0070913Y0239580D01*
X0071020Y0239614D01*
X0071127Y0239644D01*
X0071236Y0239671D01*
X0071345Y0239693D01*
X0071456Y0239712D01*
X0071566Y0239727D01*
X0071678Y0239738D01*
X0071789Y0239745D01*
X0071901Y0239748D01*
X0072013Y0239747D01*
X0072125Y0239742D01*
X0072236Y0239733D01*
X0072347Y0239720D01*
X0072458Y0239703D01*
X0072568Y0239683D01*
X0072677Y0239658D01*
X0072785Y0239630D01*
X0072892Y0239597D01*
X0072998Y0239561D01*
X0073102Y0239521D01*
X0073205Y0239478D01*
X0073307Y0239431D01*
X0073406Y0239380D01*
X0073504Y0239326D01*
X0073600Y0239268D01*
X0073694Y0239207D01*
X0073785Y0239143D01*
X0073874Y0239076D01*
X0073961Y0239005D01*
X0074045Y0238931D01*
X0074127Y0238855D01*
X0074205Y0238775D01*
X0074281Y0238693D01*
X0074354Y0238608D01*
X0074424Y0238521D01*
X0074490Y0238431D01*
X0074554Y0238339D01*
X0074614Y0238245D01*
X0074671Y0238149D01*
X0074724Y0238050D01*
X0074774Y0237950D01*
X0074820Y0237849D01*
X0074863Y0237745D01*
X0074902Y0237640D01*
X0074937Y0237534D01*
X0074968Y0237427D01*
X0074996Y0237318D01*
X0075019Y0237209D01*
X0075039Y0237099D01*
X0075055Y0236988D01*
X0075067Y0236877D01*
X0075075Y0236766D01*
X0075079Y0236654D01*
X0075079Y0236542D01*
X0075075Y0236430D01*
X0075067Y0236319D01*
X0075055Y0236208D01*
X0075039Y0236097D01*
X0075019Y0235987D01*
X0074996Y0235878D01*
X0074968Y0235769D01*
X0074937Y0235662D01*
X0074902Y0235556D01*
X0074863Y0235451D01*
X0074820Y0235347D01*
X0074774Y0235246D01*
X0074724Y0235146D01*
X0074671Y0235047D01*
X0074614Y0234951D01*
X0074554Y0234857D01*
X0074490Y0234765D01*
X0074424Y0234675D01*
X0074354Y0234588D01*
X0074281Y0234503D01*
X0074205Y0234421D01*
X0074127Y0234341D01*
X0074045Y0234265D01*
X0073961Y0234191D01*
X0073874Y0234120D01*
X0073785Y0234053D01*
X0073694Y0233989D01*
X0073600Y0233928D01*
X0073504Y0233870D01*
X0073406Y0233816D01*
X0073307Y0233765D01*
X0073205Y0233718D01*
X0073102Y0233675D01*
X0072998Y0233635D01*
X0072892Y0233599D01*
X0072785Y0233566D01*
X0072677Y0233538D01*
X0072568Y0233513D01*
X0072458Y0233493D01*
X0072347Y0233476D01*
X0072236Y0233463D01*
X0072125Y0233454D01*
X0072013Y0233449D01*
X0071901Y0233448D01*
X0071789Y0233451D01*
X0071678Y0233458D01*
X0071566Y0233469D01*
X0071456Y0233484D01*
X0071345Y0233503D01*
X0071236Y0233525D01*
X0071127Y0233552D01*
X0071020Y0233582D01*
X0070913Y0233616D01*
X0070808Y0233654D01*
X0070704Y0233696D01*
X0070602Y0233741D01*
X0070501Y0233790D01*
X0070403Y0233842D01*
X0070306Y0233898D01*
X0070211Y0233958D01*
X0070118Y0234020D01*
X0070028Y0234086D01*
X0069940Y0234155D01*
X0069855Y0234227D01*
X0069772Y0234303D01*
X0069692Y0234381D01*
X0069614Y0234461D01*
X0069540Y0234545D01*
X0069469Y0234631D01*
X0069400Y0234719D01*
X0069335Y0234810D01*
X0069274Y0234904D01*
X0069215Y0234999D01*
X0069160Y0235096D01*
X0069109Y0235195D01*
X0069061Y0235296D01*
X0069016Y0235399D01*
X0068975Y0235503D01*
X0068938Y0235609D01*
X0068905Y0235715D01*
X0068876Y0235823D01*
X0068850Y0235932D01*
X0068828Y0236042D01*
X0068811Y0236152D01*
X0068797Y0236263D01*
X0068787Y0236375D01*
X0068781Y0236486D01*
X0068779Y0236598D01*
X0068781Y0236710D01*
X0068787Y0236821D01*
X0068797Y0236933D01*
X0068811Y0237044D01*
X0068828Y0237154D01*
X0068850Y0237264D01*
X0068876Y0237373D01*
X0068905Y0237481D01*
X0068938Y0237587D01*
X0068975Y0237693D01*
X0069016Y0237797D01*
X0069061Y0237900D01*
X0069109Y0238001D01*
X0069160Y0238100D01*
X0069215Y0238197D01*
X0069274Y0238292D01*
X0069335Y0238386D01*
X0069400Y0238477D01*
X0069469Y0238565D01*
X0069540Y0238651D01*
X0069614Y0238735D01*
X0069692Y0238815D01*
X0069772Y0238893D01*
X0069855Y0238969D01*
X0069940Y0239041D01*
X0070028Y0239110D01*
X0070118Y0239176D01*
X0070211Y0239238D01*
X0070306Y0239298D01*
X0070403Y0239354D01*
X0070501Y0239406D01*
X0070602Y0239455D01*
X0070704Y0239500D01*
X0070808Y0239542D01*
X0070913Y0239580D01*
X0071020Y0239614D01*
X0071127Y0239644D01*
X0071236Y0239671D01*
X0071345Y0239693D01*
X0071456Y0239712D01*
X0071566Y0239727D01*
X0071678Y0239738D01*
X0071789Y0239745D01*
X0071901Y0239748D01*
X0072013Y0239747D01*
X0072125Y0239742D01*
X0072236Y0239733D01*
X0072347Y0239720D01*
X0072458Y0239703D01*
X0072568Y0239683D01*
X0072677Y0239658D01*
X0072785Y0239630D01*
X0072892Y0239597D01*
X0072998Y0239561D01*
X0073102Y0239521D01*
X0073205Y0239478D01*
X0073307Y0239431D01*
X0073406Y0239380D01*
X0073504Y0239326D01*
X0073600Y0239268D01*
X0073694Y0239207D01*
X0073785Y0239143D01*
X0073874Y0239076D01*
X0073961Y0239005D01*
X0074045Y0238931D01*
X0074127Y0238855D01*
X0074205Y0238775D01*
X0074281Y0238693D01*
X0074354Y0238608D01*
X0074424Y0238521D01*
X0074490Y0238431D01*
X0074554Y0238339D01*
X0074614Y0238245D01*
X0074671Y0238149D01*
X0074724Y0238050D01*
X0074774Y0237950D01*
X0074820Y0237849D01*
X0074863Y0237745D01*
X0074902Y0237640D01*
X0074937Y0237534D01*
X0074968Y0237427D01*
X0074996Y0237318D01*
X0075019Y0237209D01*
X0075039Y0237099D01*
X0075055Y0236988D01*
X0075067Y0236877D01*
X0075075Y0236766D01*
X0075079Y0236654D01*
X0075079Y0236542D01*
X0075075Y0236430D01*
X0075067Y0236319D01*
X0075055Y0236208D01*
X0075039Y0236097D01*
X0075019Y0235987D01*
X0074996Y0235878D01*
X0074968Y0235769D01*
X0074937Y0235662D01*
X0074902Y0235556D01*
X0074863Y0235451D01*
X0074820Y0235347D01*
X0074774Y0235246D01*
X0074724Y0235146D01*
X0074671Y0235047D01*
X0074614Y0234951D01*
X0074554Y0234857D01*
X0074490Y0234765D01*
X0074424Y0234675D01*
X0074354Y0234588D01*
X0074281Y0234503D01*
X0074205Y0234421D01*
X0074127Y0234341D01*
X0074045Y0234265D01*
X0073961Y0234191D01*
X0073874Y0234120D01*
X0073785Y0234053D01*
X0073694Y0233989D01*
X0073600Y0233928D01*
X0073504Y0233870D01*
X0073406Y0233816D01*
X0073307Y0233765D01*
X0073205Y0233718D01*
X0073102Y0233675D01*
X0072998Y0233635D01*
X0072892Y0233599D01*
X0072785Y0233566D01*
X0072677Y0233538D01*
X0072568Y0233513D01*
X0072458Y0233493D01*
X0072347Y0233476D01*
X0072236Y0233463D01*
X0072125Y0233454D01*
X0072013Y0233449D01*
X0071901Y0233448D01*
X0071789Y0233451D01*
X0071678Y0233458D01*
X0071566Y0233469D01*
X0071456Y0233484D01*
X0071345Y0233503D01*
X0071236Y0233525D01*
X0071127Y0233552D01*
X0071020Y0233582D01*
X0070913Y0233616D01*
X0070808Y0233654D01*
X0070704Y0233696D01*
X0070602Y0233741D01*
X0070501Y0233790D01*
X0070403Y0233842D01*
X0070306Y0233898D01*
X0070211Y0233958D01*
X0070118Y0234020D01*
X0070028Y0234086D01*
X0069940Y0234155D01*
X0069855Y0234227D01*
X0069772Y0234303D01*
X0069692Y0234381D01*
X0069614Y0234461D01*
X0069540Y0234545D01*
X0069469Y0234631D01*
X0069400Y0234719D01*
X0069335Y0234810D01*
X0069274Y0234904D01*
X0069215Y0234999D01*
X0069160Y0235096D01*
X0069109Y0235195D01*
X0069061Y0235296D01*
X0069016Y0235399D01*
X0068975Y0235503D01*
X0068938Y0235609D01*
X0068905Y0235715D01*
X0068876Y0235823D01*
X0068850Y0235932D01*
X0068828Y0236042D01*
X0068811Y0236152D01*
X0068797Y0236263D01*
X0068787Y0236375D01*
X0068781Y0236486D01*
X0068779Y0236598D01*
X0057559Y0019610D02*
X0057561Y0019763D01*
X0057567Y0019917D01*
X0057577Y0020070D01*
X0057591Y0020222D01*
X0057609Y0020375D01*
X0057631Y0020526D01*
X0057656Y0020677D01*
X0057686Y0020828D01*
X0057720Y0020978D01*
X0057757Y0021126D01*
X0057798Y0021274D01*
X0057843Y0021420D01*
X0057892Y0021566D01*
X0057945Y0021710D01*
X0058001Y0021852D01*
X0058061Y0021993D01*
X0058125Y0022133D01*
X0058192Y0022271D01*
X0058263Y0022407D01*
X0058338Y0022541D01*
X0058415Y0022673D01*
X0058497Y0022803D01*
X0058581Y0022931D01*
X0058669Y0023057D01*
X0058760Y0023180D01*
X0058854Y0023301D01*
X0058952Y0023419D01*
X0059052Y0023535D01*
X0059156Y0023648D01*
X0059262Y0023759D01*
X0059371Y0023867D01*
X0059483Y0023972D01*
X0059597Y0024073D01*
X0059715Y0024172D01*
X0059834Y0024268D01*
X0059956Y0024361D01*
X0060081Y0024450D01*
X0060208Y0024537D01*
X0060337Y0024619D01*
X0060468Y0024699D01*
X0060601Y0024775D01*
X0060736Y0024848D01*
X0060873Y0024917D01*
X0061012Y0024982D01*
X0061152Y0025044D01*
X0061294Y0025102D01*
X0061437Y0025157D01*
X0061582Y0025208D01*
X0061728Y0025255D01*
X0061875Y0025298D01*
X0062023Y0025337D01*
X0062172Y0025373D01*
X0062322Y0025404D01*
X0062473Y0025432D01*
X0062624Y0025456D01*
X0062777Y0025476D01*
X0062929Y0025492D01*
X0063082Y0025504D01*
X0063235Y0025512D01*
X0063388Y0025516D01*
X0063542Y0025516D01*
X0063695Y0025512D01*
X0063848Y0025504D01*
X0064001Y0025492D01*
X0064153Y0025476D01*
X0064306Y0025456D01*
X0064457Y0025432D01*
X0064608Y0025404D01*
X0064758Y0025373D01*
X0064907Y0025337D01*
X0065055Y0025298D01*
X0065202Y0025255D01*
X0065348Y0025208D01*
X0065493Y0025157D01*
X0065636Y0025102D01*
X0065778Y0025044D01*
X0065918Y0024982D01*
X0066057Y0024917D01*
X0066194Y0024848D01*
X0066329Y0024775D01*
X0066462Y0024699D01*
X0066593Y0024619D01*
X0066722Y0024537D01*
X0066849Y0024450D01*
X0066974Y0024361D01*
X0067096Y0024268D01*
X0067215Y0024172D01*
X0067333Y0024073D01*
X0067447Y0023972D01*
X0067559Y0023867D01*
X0067668Y0023759D01*
X0067774Y0023648D01*
X0067878Y0023535D01*
X0067978Y0023419D01*
X0068076Y0023301D01*
X0068170Y0023180D01*
X0068261Y0023057D01*
X0068349Y0022931D01*
X0068433Y0022803D01*
X0068515Y0022673D01*
X0068592Y0022541D01*
X0068667Y0022407D01*
X0068738Y0022271D01*
X0068805Y0022133D01*
X0068869Y0021993D01*
X0068929Y0021852D01*
X0068985Y0021710D01*
X0069038Y0021566D01*
X0069087Y0021420D01*
X0069132Y0021274D01*
X0069173Y0021126D01*
X0069210Y0020978D01*
X0069244Y0020828D01*
X0069274Y0020677D01*
X0069299Y0020526D01*
X0069321Y0020375D01*
X0069339Y0020222D01*
X0069353Y0020070D01*
X0069363Y0019917D01*
X0069369Y0019763D01*
X0069371Y0019610D01*
X0069369Y0019457D01*
X0069363Y0019303D01*
X0069353Y0019150D01*
X0069339Y0018998D01*
X0069321Y0018845D01*
X0069299Y0018694D01*
X0069274Y0018543D01*
X0069244Y0018392D01*
X0069210Y0018242D01*
X0069173Y0018094D01*
X0069132Y0017946D01*
X0069087Y0017800D01*
X0069038Y0017654D01*
X0068985Y0017510D01*
X0068929Y0017368D01*
X0068869Y0017227D01*
X0068805Y0017087D01*
X0068738Y0016949D01*
X0068667Y0016813D01*
X0068592Y0016679D01*
X0068515Y0016547D01*
X0068433Y0016417D01*
X0068349Y0016289D01*
X0068261Y0016163D01*
X0068170Y0016040D01*
X0068076Y0015919D01*
X0067978Y0015801D01*
X0067878Y0015685D01*
X0067774Y0015572D01*
X0067668Y0015461D01*
X0067559Y0015353D01*
X0067447Y0015248D01*
X0067333Y0015147D01*
X0067215Y0015048D01*
X0067096Y0014952D01*
X0066974Y0014859D01*
X0066849Y0014770D01*
X0066722Y0014683D01*
X0066593Y0014601D01*
X0066462Y0014521D01*
X0066329Y0014445D01*
X0066194Y0014372D01*
X0066057Y0014303D01*
X0065918Y0014238D01*
X0065778Y0014176D01*
X0065636Y0014118D01*
X0065493Y0014063D01*
X0065348Y0014012D01*
X0065202Y0013965D01*
X0065055Y0013922D01*
X0064907Y0013883D01*
X0064758Y0013847D01*
X0064608Y0013816D01*
X0064457Y0013788D01*
X0064306Y0013764D01*
X0064153Y0013744D01*
X0064001Y0013728D01*
X0063848Y0013716D01*
X0063695Y0013708D01*
X0063542Y0013704D01*
X0063388Y0013704D01*
X0063235Y0013708D01*
X0063082Y0013716D01*
X0062929Y0013728D01*
X0062777Y0013744D01*
X0062624Y0013764D01*
X0062473Y0013788D01*
X0062322Y0013816D01*
X0062172Y0013847D01*
X0062023Y0013883D01*
X0061875Y0013922D01*
X0061728Y0013965D01*
X0061582Y0014012D01*
X0061437Y0014063D01*
X0061294Y0014118D01*
X0061152Y0014176D01*
X0061012Y0014238D01*
X0060873Y0014303D01*
X0060736Y0014372D01*
X0060601Y0014445D01*
X0060468Y0014521D01*
X0060337Y0014601D01*
X0060208Y0014683D01*
X0060081Y0014770D01*
X0059956Y0014859D01*
X0059834Y0014952D01*
X0059715Y0015048D01*
X0059597Y0015147D01*
X0059483Y0015248D01*
X0059371Y0015353D01*
X0059262Y0015461D01*
X0059156Y0015572D01*
X0059052Y0015685D01*
X0058952Y0015801D01*
X0058854Y0015919D01*
X0058760Y0016040D01*
X0058669Y0016163D01*
X0058581Y0016289D01*
X0058497Y0016417D01*
X0058415Y0016547D01*
X0058338Y0016679D01*
X0058263Y0016813D01*
X0058192Y0016949D01*
X0058125Y0017087D01*
X0058061Y0017227D01*
X0058001Y0017368D01*
X0057945Y0017510D01*
X0057892Y0017654D01*
X0057843Y0017800D01*
X0057798Y0017946D01*
X0057757Y0018094D01*
X0057720Y0018242D01*
X0057686Y0018392D01*
X0057656Y0018543D01*
X0057631Y0018694D01*
X0057609Y0018845D01*
X0057591Y0018998D01*
X0057577Y0019150D01*
X0057567Y0019303D01*
X0057561Y0019457D01*
X0057559Y0019610D01*
X0039055Y0019610D02*
X0039057Y0019763D01*
X0039063Y0019917D01*
X0039073Y0020070D01*
X0039087Y0020222D01*
X0039105Y0020375D01*
X0039127Y0020526D01*
X0039152Y0020677D01*
X0039182Y0020828D01*
X0039216Y0020978D01*
X0039253Y0021126D01*
X0039294Y0021274D01*
X0039339Y0021420D01*
X0039388Y0021566D01*
X0039441Y0021710D01*
X0039497Y0021852D01*
X0039557Y0021993D01*
X0039621Y0022133D01*
X0039688Y0022271D01*
X0039759Y0022407D01*
X0039834Y0022541D01*
X0039911Y0022673D01*
X0039993Y0022803D01*
X0040077Y0022931D01*
X0040165Y0023057D01*
X0040256Y0023180D01*
X0040350Y0023301D01*
X0040448Y0023419D01*
X0040548Y0023535D01*
X0040652Y0023648D01*
X0040758Y0023759D01*
X0040867Y0023867D01*
X0040979Y0023972D01*
X0041093Y0024073D01*
X0041211Y0024172D01*
X0041330Y0024268D01*
X0041452Y0024361D01*
X0041577Y0024450D01*
X0041704Y0024537D01*
X0041833Y0024619D01*
X0041964Y0024699D01*
X0042097Y0024775D01*
X0042232Y0024848D01*
X0042369Y0024917D01*
X0042508Y0024982D01*
X0042648Y0025044D01*
X0042790Y0025102D01*
X0042933Y0025157D01*
X0043078Y0025208D01*
X0043224Y0025255D01*
X0043371Y0025298D01*
X0043519Y0025337D01*
X0043668Y0025373D01*
X0043818Y0025404D01*
X0043969Y0025432D01*
X0044120Y0025456D01*
X0044273Y0025476D01*
X0044425Y0025492D01*
X0044578Y0025504D01*
X0044731Y0025512D01*
X0044884Y0025516D01*
X0045038Y0025516D01*
X0045191Y0025512D01*
X0045344Y0025504D01*
X0045497Y0025492D01*
X0045649Y0025476D01*
X0045802Y0025456D01*
X0045953Y0025432D01*
X0046104Y0025404D01*
X0046254Y0025373D01*
X0046403Y0025337D01*
X0046551Y0025298D01*
X0046698Y0025255D01*
X0046844Y0025208D01*
X0046989Y0025157D01*
X0047132Y0025102D01*
X0047274Y0025044D01*
X0047414Y0024982D01*
X0047553Y0024917D01*
X0047690Y0024848D01*
X0047825Y0024775D01*
X0047958Y0024699D01*
X0048089Y0024619D01*
X0048218Y0024537D01*
X0048345Y0024450D01*
X0048470Y0024361D01*
X0048592Y0024268D01*
X0048711Y0024172D01*
X0048829Y0024073D01*
X0048943Y0023972D01*
X0049055Y0023867D01*
X0049164Y0023759D01*
X0049270Y0023648D01*
X0049374Y0023535D01*
X0049474Y0023419D01*
X0049572Y0023301D01*
X0049666Y0023180D01*
X0049757Y0023057D01*
X0049845Y0022931D01*
X0049929Y0022803D01*
X0050011Y0022673D01*
X0050088Y0022541D01*
X0050163Y0022407D01*
X0050234Y0022271D01*
X0050301Y0022133D01*
X0050365Y0021993D01*
X0050425Y0021852D01*
X0050481Y0021710D01*
X0050534Y0021566D01*
X0050583Y0021420D01*
X0050628Y0021274D01*
X0050669Y0021126D01*
X0050706Y0020978D01*
X0050740Y0020828D01*
X0050770Y0020677D01*
X0050795Y0020526D01*
X0050817Y0020375D01*
X0050835Y0020222D01*
X0050849Y0020070D01*
X0050859Y0019917D01*
X0050865Y0019763D01*
X0050867Y0019610D01*
X0050865Y0019457D01*
X0050859Y0019303D01*
X0050849Y0019150D01*
X0050835Y0018998D01*
X0050817Y0018845D01*
X0050795Y0018694D01*
X0050770Y0018543D01*
X0050740Y0018392D01*
X0050706Y0018242D01*
X0050669Y0018094D01*
X0050628Y0017946D01*
X0050583Y0017800D01*
X0050534Y0017654D01*
X0050481Y0017510D01*
X0050425Y0017368D01*
X0050365Y0017227D01*
X0050301Y0017087D01*
X0050234Y0016949D01*
X0050163Y0016813D01*
X0050088Y0016679D01*
X0050011Y0016547D01*
X0049929Y0016417D01*
X0049845Y0016289D01*
X0049757Y0016163D01*
X0049666Y0016040D01*
X0049572Y0015919D01*
X0049474Y0015801D01*
X0049374Y0015685D01*
X0049270Y0015572D01*
X0049164Y0015461D01*
X0049055Y0015353D01*
X0048943Y0015248D01*
X0048829Y0015147D01*
X0048711Y0015048D01*
X0048592Y0014952D01*
X0048470Y0014859D01*
X0048345Y0014770D01*
X0048218Y0014683D01*
X0048089Y0014601D01*
X0047958Y0014521D01*
X0047825Y0014445D01*
X0047690Y0014372D01*
X0047553Y0014303D01*
X0047414Y0014238D01*
X0047274Y0014176D01*
X0047132Y0014118D01*
X0046989Y0014063D01*
X0046844Y0014012D01*
X0046698Y0013965D01*
X0046551Y0013922D01*
X0046403Y0013883D01*
X0046254Y0013847D01*
X0046104Y0013816D01*
X0045953Y0013788D01*
X0045802Y0013764D01*
X0045649Y0013744D01*
X0045497Y0013728D01*
X0045344Y0013716D01*
X0045191Y0013708D01*
X0045038Y0013704D01*
X0044884Y0013704D01*
X0044731Y0013708D01*
X0044578Y0013716D01*
X0044425Y0013728D01*
X0044273Y0013744D01*
X0044120Y0013764D01*
X0043969Y0013788D01*
X0043818Y0013816D01*
X0043668Y0013847D01*
X0043519Y0013883D01*
X0043371Y0013922D01*
X0043224Y0013965D01*
X0043078Y0014012D01*
X0042933Y0014063D01*
X0042790Y0014118D01*
X0042648Y0014176D01*
X0042508Y0014238D01*
X0042369Y0014303D01*
X0042232Y0014372D01*
X0042097Y0014445D01*
X0041964Y0014521D01*
X0041833Y0014601D01*
X0041704Y0014683D01*
X0041577Y0014770D01*
X0041452Y0014859D01*
X0041330Y0014952D01*
X0041211Y0015048D01*
X0041093Y0015147D01*
X0040979Y0015248D01*
X0040867Y0015353D01*
X0040758Y0015461D01*
X0040652Y0015572D01*
X0040548Y0015685D01*
X0040448Y0015801D01*
X0040350Y0015919D01*
X0040256Y0016040D01*
X0040165Y0016163D01*
X0040077Y0016289D01*
X0039993Y0016417D01*
X0039911Y0016547D01*
X0039834Y0016679D01*
X0039759Y0016813D01*
X0039688Y0016949D01*
X0039621Y0017087D01*
X0039557Y0017227D01*
X0039497Y0017368D01*
X0039441Y0017510D01*
X0039388Y0017654D01*
X0039339Y0017800D01*
X0039294Y0017946D01*
X0039253Y0018094D01*
X0039216Y0018242D01*
X0039182Y0018392D01*
X0039152Y0018543D01*
X0039127Y0018694D01*
X0039105Y0018845D01*
X0039087Y0018998D01*
X0039073Y0019150D01*
X0039063Y0019303D01*
X0039057Y0019457D01*
X0039055Y0019610D01*
D15*
X0071929Y0036618D03*
D16*
X0060118Y0036618D03*
X0048307Y0036618D03*
X0036496Y0036618D03*
D17*
X0033346Y0046776D03*
X0030197Y0036539D03*
X0034134Y0058587D03*
X0037283Y0072760D03*
X0034134Y0079846D03*
X0038071Y0093232D03*
X0037283Y0103469D03*
X0038858Y0116854D03*
X0038858Y0134965D03*
X0038858Y0150713D03*
X0027835Y0151500D03*
X0027047Y0147563D03*
X0019173Y0143626D03*
X0016811Y0147563D03*
X0014449Y0134965D03*
X0008937Y0134965D03*
X0014449Y0116067D03*
X0021535Y0104256D03*
X0028622Y0079846D03*
X0019173Y0079059D03*
X0018386Y0075122D03*
X0014449Y0073547D03*
X0015236Y0061736D03*
X0016811Y0049925D03*
X0042795Y0040476D03*
X0052244Y0055437D03*
X0052244Y0068035D03*
X0052244Y0075122D03*
X0059331Y0082209D03*
X0061693Y0090870D03*
X0061693Y0101894D03*
X0065630Y0116854D03*
X0065630Y0134965D03*
X0074291Y0101894D03*
X0074291Y0090870D03*
X0075866Y0082996D03*
X0075866Y0078272D03*
X0077441Y0056224D03*
X0071142Y0043626D03*
X0078228Y0036539D03*
X0066417Y0078272D03*
X0066417Y0082996D03*
X0060118Y0054650D03*
X0054606Y0038902D03*
X0042795Y0078272D03*
X0055394Y0169610D03*
X0056181Y0178272D03*
X0056181Y0186933D03*
X0050669Y0205043D03*
X0048307Y0198744D03*
X0046732Y0207406D03*
X0042795Y0211343D03*
X0046732Y0223154D03*
X0047520Y0229453D03*
X0050669Y0232602D03*
X0049094Y0236539D03*
X0045945Y0236539D03*
X0042795Y0236539D03*
X0039646Y0236539D03*
X0035709Y0228665D03*
X0030984Y0244413D03*
X0025472Y0237327D03*
X0021535Y0234177D03*
X0018386Y0222366D03*
X0017598Y0214492D03*
X0019961Y0210555D03*
X0027835Y0220791D03*
X0029409Y0207406D03*
X0034921Y0212130D03*
X0046732Y0248350D03*
X0047520Y0251500D03*
X0050669Y0251500D03*
X0054606Y0245201D03*
X0055394Y0250713D03*
X0055394Y0254650D03*
X0055394Y0261736D03*
X0055394Y0265673D03*
X0055394Y0269610D03*
X0058543Y0280634D03*
X0064843Y0280634D03*
X0072717Y0256224D03*
X0075866Y0252287D03*
X0078228Y0249925D03*
X0078228Y0245988D03*
X0076654Y0241264D03*
X0079016Y0234965D03*
X0085315Y0234965D03*
X0089252Y0249925D03*
X0089252Y0260161D03*
X0089252Y0270398D03*
X0085315Y0280634D03*
X0079016Y0280634D03*
X0078228Y0270398D03*
X0078228Y0264886D03*
X0078228Y0260161D03*
X0078228Y0254650D03*
X0070354Y0229453D03*
X0064843Y0234965D03*
X0063268Y0227878D03*
X0063268Y0223154D03*
X0058543Y0214492D03*
X0058543Y0234965D03*
X0065630Y0248350D03*
X0069567Y0209768D03*
X0064055Y0191657D03*
X0078228Y0194020D03*
X0079016Y0201894D03*
X0083740Y0189295D03*
X0091614Y0189295D03*
X0095551Y0184571D03*
X0091614Y0179846D03*
X0099488Y0197169D03*
X0099488Y0161736D03*
X0099488Y0134965D03*
X0092402Y0116854D03*
X0079803Y0105831D03*
X0093189Y0060161D03*
X0093189Y0051500D03*
X0099488Y0231815D03*
X0099488Y0270398D03*
X0099488Y0304256D03*
X0082165Y0320791D03*
X0054606Y0320791D03*
X0040433Y0267248D03*
X0040433Y0253075D03*
X0043583Y0249925D03*
X0028622Y0264886D03*
X0022323Y0260161D03*
X0022323Y0252287D03*
X0016811Y0256224D03*
X0008937Y0268823D03*
X0008937Y0303469D03*
X0025472Y0320791D03*
X0008937Y0229453D03*
X0008937Y0182209D03*
X0012874Y0170398D03*
X0019961Y0181421D03*
X0021535Y0170398D03*
D18*
X0058543Y0227878D02*
X0054606Y0231815D01*
X0054606Y0245201D01*
X0054665Y0245260D01*
X0060315Y0245260D01*
X0058543Y0227878D02*
X0063268Y0227878D01*
D19*
X0064411Y0229823D02*
X0101781Y0229823D01*
X0101781Y0229037D02*
X0065197Y0229037D01*
X0065452Y0228783D02*
X0064172Y0230062D01*
X0059448Y0230062D01*
X0058302Y0231209D01*
X0061496Y0231209D01*
X0061496Y0234571D01*
X0056791Y0234571D01*
X0056791Y0235358D01*
X0061496Y0235358D01*
X0061496Y0234571D01*
X0062283Y0234571D01*
X0062283Y0231209D01*
X0066995Y0231209D01*
X0067349Y0231304D01*
X0067667Y0231487D01*
X0067926Y0231747D01*
X0068110Y0232064D01*
X0068205Y0232419D01*
X0068205Y0233898D01*
X0069356Y0232747D01*
X0071025Y0232055D01*
X0072833Y0232055D01*
X0074503Y0232747D01*
X0075654Y0233898D01*
X0075654Y0232419D01*
X0075749Y0232064D01*
X0075932Y0231747D01*
X0076191Y0231487D01*
X0076509Y0231304D01*
X0076864Y0231209D01*
X0081575Y0231209D01*
X0081575Y0234571D01*
X0082362Y0234571D01*
X0082362Y0231209D01*
X0087073Y0231209D01*
X0087428Y0231304D01*
X0087746Y0231487D01*
X0088005Y0231747D01*
X0088188Y0232064D01*
X0088283Y0232419D01*
X0088283Y0234571D01*
X0082362Y0234571D01*
X0082362Y0235358D01*
X0088283Y0235358D01*
X0088283Y0237510D01*
X0088188Y0237865D01*
X0088005Y0238183D01*
X0087746Y0238442D01*
X0087428Y0238625D01*
X0087073Y0238720D01*
X0082362Y0238720D01*
X0082362Y0235358D01*
X0081575Y0235358D01*
X0076333Y0235358D01*
X0076007Y0234571D01*
X0081575Y0234571D01*
X0081575Y0235358D01*
X0081575Y0238720D01*
X0076864Y0238720D01*
X0076509Y0238625D01*
X0076191Y0238442D01*
X0076115Y0238365D01*
X0075781Y0239172D01*
X0074503Y0240450D01*
X0072833Y0241142D01*
X0071025Y0241142D01*
X0069356Y0240450D01*
X0068077Y0239172D01*
X0067743Y0238365D01*
X0067667Y0238442D01*
X0067349Y0238625D01*
X0066995Y0238720D01*
X0062283Y0238720D01*
X0062283Y0235358D01*
X0061496Y0235358D01*
X0061496Y0238720D01*
X0056791Y0238720D01*
X0056791Y0242865D01*
X0056955Y0242701D01*
X0063675Y0242701D01*
X0064252Y0243277D01*
X0064252Y0247242D01*
X0063734Y0247760D01*
X0064252Y0248277D01*
X0064252Y0252242D01*
X0063734Y0252760D01*
X0064252Y0253277D01*
X0064252Y0257242D01*
X0063734Y0257760D01*
X0064252Y0258277D01*
X0064252Y0262242D01*
X0063734Y0262760D01*
X0064252Y0263277D01*
X0064252Y0267242D01*
X0063734Y0267760D01*
X0064252Y0268277D01*
X0064252Y0272242D01*
X0063675Y0272819D01*
X0056955Y0272819D01*
X0056378Y0272242D01*
X0056378Y0271702D01*
X0056295Y0271785D01*
X0054493Y0271785D01*
X0053219Y0270511D01*
X0053219Y0268709D01*
X0054287Y0267642D01*
X0053219Y0266574D01*
X0053219Y0264772D01*
X0054287Y0263705D01*
X0053219Y0262637D01*
X0053219Y0260835D01*
X0054493Y0259561D01*
X0055620Y0259561D01*
X0056299Y0258882D01*
X0056378Y0258882D01*
X0056378Y0258277D01*
X0056895Y0257760D01*
X0056378Y0257242D01*
X0056378Y0256741D01*
X0056295Y0256824D01*
X0054493Y0256824D01*
X0053219Y0255550D01*
X0053219Y0253749D01*
X0054287Y0252681D01*
X0053219Y0251613D01*
X0053219Y0249812D01*
X0054493Y0248538D01*
X0056295Y0248538D01*
X0056378Y0248621D01*
X0056378Y0248277D01*
X0056895Y0247760D01*
X0056580Y0247444D01*
X0053761Y0247444D01*
X0053702Y0247385D01*
X0052422Y0246106D01*
X0052422Y0230910D01*
X0056359Y0226973D01*
X0057639Y0225694D01*
X0064172Y0225694D01*
X0065452Y0226973D01*
X0065452Y0228783D01*
X0065452Y0228252D02*
X0101781Y0228252D01*
X0101781Y0227466D02*
X0065452Y0227466D01*
X0065158Y0226680D02*
X0101781Y0226680D01*
X0101781Y0225894D02*
X0064373Y0225894D01*
X0062283Y0231395D02*
X0061496Y0231395D01*
X0061496Y0232181D02*
X0062283Y0232181D01*
X0062283Y0232967D02*
X0061496Y0232967D01*
X0061496Y0233753D02*
X0062283Y0233753D01*
X0062283Y0234539D02*
X0061496Y0234539D01*
X0061496Y0235325D02*
X0056791Y0235325D01*
X0056791Y0239254D02*
X0068160Y0239254D01*
X0067786Y0238468D02*
X0067621Y0238468D01*
X0068946Y0240040D02*
X0056791Y0240040D01*
X0056791Y0240826D02*
X0070263Y0240826D01*
X0067525Y0235358D02*
X0067851Y0234571D01*
X0062284Y0234571D01*
X0062284Y0235358D01*
X0067525Y0235358D01*
X0067539Y0235325D02*
X0062284Y0235325D01*
X0062283Y0236111D02*
X0061496Y0236111D01*
X0061496Y0236897D02*
X0062283Y0236897D01*
X0062283Y0237682D02*
X0061496Y0237682D01*
X0061496Y0238468D02*
X0062283Y0238468D01*
X0064158Y0243184D02*
X0079700Y0243184D01*
X0079606Y0243277D02*
X0080183Y0242701D01*
X0086904Y0242701D01*
X0087480Y0243277D01*
X0087480Y0247242D01*
X0087226Y0247497D01*
X0087352Y0247570D01*
X0087611Y0247829D01*
X0087795Y0248147D01*
X0087890Y0248502D01*
X0087890Y0249866D01*
X0083937Y0249866D01*
X0083937Y0250654D01*
X0087890Y0250654D01*
X0087890Y0252018D01*
X0087795Y0252373D01*
X0087611Y0252690D01*
X0087352Y0252950D01*
X0087226Y0253023D01*
X0087480Y0253277D01*
X0087480Y0257242D01*
X0087226Y0257497D01*
X0087352Y0257570D01*
X0087611Y0257829D01*
X0087795Y0258147D01*
X0087890Y0258502D01*
X0087890Y0259866D01*
X0083937Y0259866D01*
X0083937Y0260654D01*
X0087890Y0260654D01*
X0087890Y0262018D01*
X0087795Y0262373D01*
X0087611Y0262690D01*
X0087352Y0262950D01*
X0087226Y0263023D01*
X0087480Y0263277D01*
X0087480Y0267242D01*
X0087226Y0267497D01*
X0087352Y0267570D01*
X0087611Y0267829D01*
X0087795Y0268147D01*
X0087890Y0268502D01*
X0087890Y0269866D01*
X0083937Y0269866D01*
X0083937Y0270654D01*
X0083150Y0270654D01*
X0083150Y0273228D01*
X0080407Y0273228D01*
X0080053Y0273133D01*
X0079735Y0272950D01*
X0079475Y0272690D01*
X0079292Y0272373D01*
X0079197Y0272018D01*
X0079197Y0270654D01*
X0083150Y0270654D01*
X0083150Y0269866D01*
X0079197Y0269866D01*
X0079197Y0268502D01*
X0079292Y0268147D01*
X0079475Y0267829D01*
X0079735Y0267570D01*
X0079861Y0267497D01*
X0079606Y0267242D01*
X0079606Y0266638D01*
X0079552Y0266638D01*
X0079129Y0267061D01*
X0077328Y0267061D01*
X0076054Y0265787D01*
X0076054Y0264660D01*
X0074488Y0263094D01*
X0074488Y0253985D01*
X0073691Y0253188D01*
X0073691Y0251387D01*
X0074965Y0250113D01*
X0076767Y0250113D01*
X0078041Y0251387D01*
X0078041Y0252475D01*
X0079129Y0252475D01*
X0079769Y0253115D01*
X0079861Y0253023D01*
X0079735Y0252950D01*
X0079475Y0252690D01*
X0079292Y0252373D01*
X0079197Y0252018D01*
X0079197Y0250654D01*
X0083150Y0250654D01*
X0083150Y0249866D01*
X0079197Y0249866D01*
X0079197Y0248502D01*
X0079292Y0248147D01*
X0079475Y0247829D01*
X0079735Y0247570D01*
X0079861Y0247497D01*
X0079828Y0247464D01*
X0079129Y0248163D01*
X0077328Y0248163D01*
X0076054Y0246889D01*
X0076054Y0245087D01*
X0077328Y0243813D01*
X0079129Y0243813D01*
X0079198Y0243882D01*
X0079606Y0243882D01*
X0079606Y0243277D01*
X0078957Y0245260D02*
X0078228Y0245988D01*
X0078957Y0245260D02*
X0083543Y0245260D01*
X0083150Y0250257D02*
X0076911Y0250257D01*
X0077697Y0251043D02*
X0079197Y0251043D01*
X0079197Y0251829D02*
X0078041Y0251829D01*
X0079269Y0252615D02*
X0079432Y0252615D01*
X0078228Y0254650D02*
X0078839Y0255260D01*
X0083543Y0255260D01*
X0083150Y0259866D02*
X0079197Y0259866D01*
X0079197Y0258502D01*
X0079292Y0258147D01*
X0079475Y0257829D01*
X0079735Y0257570D01*
X0079861Y0257497D01*
X0079606Y0257242D01*
X0079606Y0256638D01*
X0079316Y0256638D01*
X0079129Y0256824D01*
X0077328Y0256824D01*
X0077244Y0256741D01*
X0077244Y0261953D01*
X0078002Y0262711D01*
X0079129Y0262711D01*
X0079651Y0263233D01*
X0079861Y0263023D01*
X0079735Y0262950D01*
X0079475Y0262690D01*
X0079292Y0262373D01*
X0079197Y0262018D01*
X0079197Y0260654D01*
X0083150Y0260654D01*
X0083150Y0259866D01*
X0083150Y0260474D02*
X0077244Y0260474D01*
X0077244Y0261260D02*
X0079197Y0261260D01*
X0079204Y0262046D02*
X0077337Y0262046D01*
X0075866Y0262524D02*
X0078228Y0264886D01*
X0078602Y0265260D01*
X0083543Y0265260D01*
X0083150Y0269905D02*
X0064252Y0269905D01*
X0064252Y0270691D02*
X0079197Y0270691D01*
X0079197Y0271477D02*
X0064252Y0271477D01*
X0064232Y0272263D02*
X0079262Y0272263D01*
X0079906Y0273049D02*
X0006644Y0273049D01*
X0006644Y0273834D02*
X0101781Y0273834D01*
X0101781Y0273049D02*
X0087181Y0273049D01*
X0087034Y0273133D02*
X0087352Y0272950D01*
X0087611Y0272690D01*
X0087795Y0272373D01*
X0087890Y0272018D01*
X0087890Y0270654D01*
X0083937Y0270654D01*
X0083937Y0273228D01*
X0086680Y0273228D01*
X0087034Y0273133D01*
X0087824Y0272263D02*
X0101781Y0272263D01*
X0101781Y0271477D02*
X0087890Y0271477D01*
X0087890Y0270691D02*
X0101781Y0270691D01*
X0101781Y0269905D02*
X0083937Y0269905D01*
X0083937Y0270691D02*
X0083150Y0270691D01*
X0083150Y0271477D02*
X0083937Y0271477D01*
X0083937Y0272263D02*
X0083150Y0272263D01*
X0083150Y0273049D02*
X0083937Y0273049D01*
X0082362Y0276878D02*
X0082362Y0280240D01*
X0081575Y0280240D01*
X0081575Y0276878D01*
X0076864Y0276878D01*
X0076509Y0276973D01*
X0076191Y0277156D01*
X0076115Y0277233D01*
X0075781Y0276426D01*
X0074503Y0275148D01*
X0072833Y0274457D01*
X0071025Y0274457D01*
X0069356Y0275148D01*
X0068077Y0276426D01*
X0067743Y0277233D01*
X0067667Y0277156D01*
X0067349Y0276973D01*
X0066995Y0276878D01*
X0062283Y0276878D01*
X0062283Y0280240D01*
X0061496Y0280240D01*
X0061496Y0276878D01*
X0056785Y0276878D01*
X0056431Y0276973D01*
X0056113Y0277156D01*
X0055853Y0277416D01*
X0055670Y0277734D01*
X0055575Y0278088D01*
X0055575Y0280240D01*
X0061496Y0280240D01*
X0061496Y0281028D01*
X0061496Y0284390D01*
X0056785Y0284390D01*
X0056431Y0284295D01*
X0056113Y0284111D01*
X0055853Y0283852D01*
X0055670Y0283534D01*
X0055575Y0283180D01*
X0055575Y0281028D01*
X0061496Y0281028D01*
X0062283Y0281028D01*
X0062283Y0284390D01*
X0066995Y0284390D01*
X0067349Y0284295D01*
X0067667Y0284111D01*
X0067926Y0283852D01*
X0068110Y0283534D01*
X0068205Y0283180D01*
X0068205Y0281701D01*
X0069356Y0282852D01*
X0071025Y0283543D01*
X0072833Y0283543D01*
X0074503Y0282852D01*
X0075654Y0281701D01*
X0075654Y0283180D01*
X0075749Y0283534D01*
X0075932Y0283852D01*
X0076191Y0284111D01*
X0076509Y0284295D01*
X0076864Y0284390D01*
X0081575Y0284390D01*
X0081575Y0281028D01*
X0082362Y0281028D01*
X0082362Y0284390D01*
X0087073Y0284390D01*
X0087428Y0284295D01*
X0087746Y0284111D01*
X0088005Y0283852D01*
X0088188Y0283534D01*
X0088283Y0283180D01*
X0088283Y0281028D01*
X0082362Y0281028D01*
X0082362Y0280240D01*
X0088283Y0280240D01*
X0088283Y0278088D01*
X0088188Y0277734D01*
X0088005Y0277416D01*
X0087746Y0277156D01*
X0087428Y0276973D01*
X0087073Y0276878D01*
X0082362Y0276878D01*
X0082362Y0276978D02*
X0081575Y0276978D01*
X0081575Y0277764D02*
X0082362Y0277764D01*
X0082362Y0278550D02*
X0081575Y0278550D01*
X0081575Y0279336D02*
X0082362Y0279336D01*
X0082362Y0280122D02*
X0081575Y0280122D01*
X0081575Y0280240D02*
X0076333Y0280240D01*
X0076007Y0281028D01*
X0081575Y0281028D01*
X0081575Y0280240D01*
X0081575Y0280908D02*
X0076057Y0280908D01*
X0075654Y0282479D02*
X0074875Y0282479D01*
X0075677Y0283265D02*
X0073504Y0283265D01*
X0076009Y0276978D02*
X0076500Y0276978D01*
X0075547Y0276192D02*
X0101781Y0276192D01*
X0101781Y0275406D02*
X0074761Y0275406D01*
X0073228Y0274620D02*
X0101781Y0274620D01*
X0101781Y0276978D02*
X0087437Y0276978D01*
X0088197Y0277764D02*
X0101781Y0277764D01*
X0101781Y0278550D02*
X0088283Y0278550D01*
X0088283Y0279336D02*
X0101781Y0279336D01*
X0101781Y0280122D02*
X0088283Y0280122D01*
X0088283Y0281694D02*
X0101781Y0281694D01*
X0101781Y0282479D02*
X0088283Y0282479D01*
X0088260Y0283265D02*
X0101781Y0283265D01*
X0101781Y0284051D02*
X0087805Y0284051D01*
X0082362Y0284051D02*
X0081575Y0284051D01*
X0081575Y0283265D02*
X0082362Y0283265D01*
X0082362Y0282479D02*
X0081575Y0282479D01*
X0081575Y0281694D02*
X0082362Y0281694D01*
X0082362Y0280908D02*
X0101781Y0280908D01*
X0101781Y0284837D02*
X0006644Y0284837D01*
X0006644Y0284051D02*
X0056053Y0284051D01*
X0055598Y0283265D02*
X0006644Y0283265D01*
X0006644Y0282479D02*
X0055575Y0282479D01*
X0055575Y0281694D02*
X0006644Y0281694D01*
X0006644Y0280908D02*
X0061496Y0280908D01*
X0061496Y0281694D02*
X0062283Y0281694D01*
X0062284Y0281028D02*
X0067851Y0281028D01*
X0067525Y0280240D01*
X0062284Y0280240D01*
X0062284Y0281028D01*
X0062284Y0280908D02*
X0067802Y0280908D01*
X0068205Y0282479D02*
X0068983Y0282479D01*
X0068182Y0283265D02*
X0070355Y0283265D01*
X0067727Y0284051D02*
X0076132Y0284051D01*
X0070630Y0274620D02*
X0006644Y0274620D01*
X0006644Y0275406D02*
X0069098Y0275406D01*
X0068312Y0276192D02*
X0006644Y0276192D01*
X0006644Y0276978D02*
X0056422Y0276978D01*
X0055662Y0277764D02*
X0006644Y0277764D01*
X0006644Y0278550D02*
X0055575Y0278550D01*
X0055575Y0279336D02*
X0006644Y0279336D01*
X0006644Y0280122D02*
X0055575Y0280122D01*
X0056398Y0272263D02*
X0006644Y0272263D01*
X0006644Y0271477D02*
X0054185Y0271477D01*
X0053399Y0270691D02*
X0006644Y0270691D01*
X0006644Y0269905D02*
X0053219Y0269905D01*
X0053219Y0269119D02*
X0006644Y0269119D01*
X0006644Y0268333D02*
X0053595Y0268333D01*
X0054192Y0267547D02*
X0006644Y0267547D01*
X0006644Y0266761D02*
X0053406Y0266761D01*
X0053219Y0265975D02*
X0006644Y0265975D01*
X0006644Y0265189D02*
X0053219Y0265189D01*
X0053588Y0264403D02*
X0006644Y0264403D01*
X0006644Y0263618D02*
X0054199Y0263618D01*
X0053414Y0262832D02*
X0006644Y0262832D01*
X0006644Y0262046D02*
X0053219Y0262046D01*
X0053219Y0261260D02*
X0006644Y0261260D01*
X0006644Y0260474D02*
X0053580Y0260474D01*
X0054366Y0259688D02*
X0006644Y0259688D01*
X0006644Y0258902D02*
X0056279Y0258902D01*
X0056539Y0258116D02*
X0006644Y0258116D01*
X0006644Y0257330D02*
X0056466Y0257330D01*
X0056004Y0255260D02*
X0055394Y0254650D01*
X0056004Y0255260D02*
X0060315Y0255260D01*
X0060315Y0260260D02*
X0056870Y0260260D01*
X0055394Y0261736D01*
X0055807Y0265260D02*
X0055394Y0265673D01*
X0055807Y0265260D02*
X0060315Y0265260D01*
X0060315Y0270260D02*
X0056043Y0270260D01*
X0055394Y0269610D01*
X0054213Y0256544D02*
X0006644Y0256544D01*
X0006644Y0255758D02*
X0053427Y0255758D01*
X0053219Y0254973D02*
X0006644Y0254973D01*
X0006644Y0254187D02*
X0053219Y0254187D01*
X0053567Y0253401D02*
X0051844Y0253401D01*
X0051570Y0253675D02*
X0052844Y0252401D01*
X0052844Y0250599D01*
X0052047Y0249802D01*
X0052047Y0237543D01*
X0051269Y0236765D01*
X0051269Y0235639D01*
X0049995Y0234365D01*
X0048194Y0234365D01*
X0047520Y0235039D01*
X0046846Y0234365D01*
X0045044Y0234365D01*
X0044370Y0235039D01*
X0043696Y0234365D01*
X0041894Y0234365D01*
X0041220Y0235039D01*
X0040546Y0234365D01*
X0038745Y0234365D01*
X0037471Y0235639D01*
X0037471Y0237440D01*
X0038745Y0238714D01*
X0039872Y0238714D01*
X0042992Y0241835D01*
X0042992Y0247750D01*
X0042682Y0247750D01*
X0041408Y0249024D01*
X0041408Y0250826D01*
X0042682Y0252100D01*
X0044484Y0252100D01*
X0045345Y0251239D01*
X0045345Y0252401D01*
X0046619Y0253675D01*
X0048421Y0253675D01*
X0049094Y0253001D01*
X0049768Y0253675D01*
X0051570Y0253675D01*
X0052630Y0252615D02*
X0054220Y0252615D01*
X0053434Y0251829D02*
X0052844Y0251829D01*
X0052844Y0251043D02*
X0053219Y0251043D01*
X0053219Y0250257D02*
X0052502Y0250257D01*
X0052047Y0249471D02*
X0053560Y0249471D01*
X0054345Y0248685D02*
X0052047Y0248685D01*
X0052047Y0247899D02*
X0056756Y0247899D01*
X0055846Y0250260D02*
X0055394Y0250713D01*
X0055846Y0250260D02*
X0060315Y0250260D01*
X0063874Y0247899D02*
X0077064Y0247899D01*
X0076278Y0247113D02*
X0064252Y0247113D01*
X0064252Y0246327D02*
X0076054Y0246327D01*
X0076054Y0245542D02*
X0064252Y0245542D01*
X0064252Y0244756D02*
X0076385Y0244756D01*
X0077171Y0243970D02*
X0064252Y0243970D01*
X0064252Y0248685D02*
X0079197Y0248685D01*
X0079197Y0249471D02*
X0064252Y0249471D01*
X0064252Y0250257D02*
X0074821Y0250257D01*
X0074035Y0251043D02*
X0064252Y0251043D01*
X0064252Y0251829D02*
X0073691Y0251829D01*
X0073691Y0252615D02*
X0063879Y0252615D01*
X0064252Y0253401D02*
X0073904Y0253401D01*
X0074488Y0254187D02*
X0064252Y0254187D01*
X0064252Y0254973D02*
X0074488Y0254973D01*
X0074488Y0255758D02*
X0064252Y0255758D01*
X0064252Y0256544D02*
X0074488Y0256544D01*
X0074488Y0257330D02*
X0064164Y0257330D01*
X0064091Y0258116D02*
X0074488Y0258116D01*
X0074488Y0258902D02*
X0064252Y0258902D01*
X0064252Y0259688D02*
X0074488Y0259688D01*
X0074488Y0260474D02*
X0064252Y0260474D01*
X0064252Y0261260D02*
X0074488Y0261260D01*
X0074488Y0262046D02*
X0064252Y0262046D01*
X0063806Y0262832D02*
X0074488Y0262832D01*
X0075011Y0263618D02*
X0064252Y0263618D01*
X0064252Y0264403D02*
X0075797Y0264403D01*
X0076054Y0265189D02*
X0064252Y0265189D01*
X0064252Y0265975D02*
X0076242Y0265975D01*
X0077028Y0266761D02*
X0064252Y0266761D01*
X0063947Y0267547D02*
X0079774Y0267547D01*
X0079606Y0266761D02*
X0079429Y0266761D01*
X0079242Y0268333D02*
X0064252Y0268333D01*
X0064252Y0269119D02*
X0079197Y0269119D01*
X0079250Y0262832D02*
X0079617Y0262832D01*
X0079197Y0259688D02*
X0077244Y0259688D01*
X0077244Y0258902D02*
X0079197Y0258902D01*
X0079310Y0258116D02*
X0077244Y0258116D01*
X0077244Y0257330D02*
X0079694Y0257330D01*
X0079435Y0247899D02*
X0079393Y0247899D01*
X0075866Y0252287D02*
X0075866Y0262524D01*
X0073595Y0240826D02*
X0101781Y0240826D01*
X0101781Y0240040D02*
X0074913Y0240040D01*
X0075698Y0239254D02*
X0101781Y0239254D01*
X0101781Y0238468D02*
X0087700Y0238468D01*
X0088237Y0237682D02*
X0101781Y0237682D01*
X0101781Y0236897D02*
X0088283Y0236897D01*
X0088283Y0236111D02*
X0101781Y0236111D01*
X0101781Y0235325D02*
X0082362Y0235325D01*
X0082362Y0236111D02*
X0081575Y0236111D01*
X0081575Y0236897D02*
X0082362Y0236897D01*
X0082362Y0237682D02*
X0081575Y0237682D01*
X0081575Y0238468D02*
X0082362Y0238468D01*
X0081575Y0235325D02*
X0076319Y0235325D01*
X0075654Y0233753D02*
X0075509Y0233753D01*
X0075654Y0232967D02*
X0074723Y0232967D01*
X0075717Y0232181D02*
X0073137Y0232181D01*
X0070721Y0232181D02*
X0068141Y0232181D01*
X0068205Y0232967D02*
X0069135Y0232967D01*
X0068349Y0233753D02*
X0068205Y0233753D01*
X0067507Y0231395D02*
X0076351Y0231395D01*
X0076237Y0238468D02*
X0076072Y0238468D01*
X0081575Y0234539D02*
X0082362Y0234539D01*
X0082362Y0233753D02*
X0081575Y0233753D01*
X0081575Y0232967D02*
X0082362Y0232967D01*
X0082362Y0232181D02*
X0081575Y0232181D01*
X0081575Y0231395D02*
X0082362Y0231395D01*
X0087586Y0231395D02*
X0101781Y0231395D01*
X0101781Y0230609D02*
X0058901Y0230609D01*
X0057438Y0225894D02*
X0006644Y0225894D01*
X0006644Y0226680D02*
X0056653Y0226680D01*
X0055867Y0227466D02*
X0048608Y0227466D01*
X0048421Y0227278D02*
X0049694Y0228552D01*
X0049694Y0230354D01*
X0048421Y0231628D01*
X0046619Y0231628D01*
X0045822Y0230831D01*
X0040216Y0230831D01*
X0033150Y0237898D01*
X0032342Y0238705D01*
X0027170Y0238705D01*
X0026373Y0239502D01*
X0024572Y0239502D01*
X0023298Y0238228D01*
X0023298Y0236426D01*
X0024572Y0235152D01*
X0026373Y0235152D01*
X0027170Y0235949D01*
X0031201Y0235949D01*
X0039075Y0228075D01*
X0045822Y0228075D01*
X0046619Y0227278D01*
X0048421Y0227278D01*
X0049394Y0228252D02*
X0055081Y0228252D01*
X0054295Y0229037D02*
X0049694Y0229037D01*
X0049694Y0229823D02*
X0053509Y0229823D01*
X0052723Y0230609D02*
X0049439Y0230609D01*
X0048653Y0231395D02*
X0052422Y0231395D01*
X0052422Y0232181D02*
X0038866Y0232181D01*
X0038080Y0232967D02*
X0052422Y0232967D01*
X0052422Y0233753D02*
X0037294Y0233753D01*
X0036508Y0234539D02*
X0038571Y0234539D01*
X0037785Y0235325D02*
X0035722Y0235325D01*
X0034937Y0236111D02*
X0037471Y0236111D01*
X0037471Y0236897D02*
X0034151Y0236897D01*
X0033365Y0237682D02*
X0037713Y0237682D01*
X0038499Y0238468D02*
X0032579Y0238468D01*
X0031772Y0237327D02*
X0025472Y0237327D01*
X0024324Y0239254D02*
X0006644Y0239254D01*
X0006644Y0238468D02*
X0023538Y0238468D01*
X0023298Y0237682D02*
X0006644Y0237682D01*
X0006644Y0236897D02*
X0023298Y0236897D01*
X0023613Y0236111D02*
X0006644Y0236111D01*
X0006644Y0235325D02*
X0024399Y0235325D01*
X0026546Y0235325D02*
X0031825Y0235325D01*
X0032611Y0234539D02*
X0006644Y0234539D01*
X0006644Y0233753D02*
X0033397Y0233753D01*
X0034183Y0232967D02*
X0006644Y0232967D01*
X0006644Y0232181D02*
X0034969Y0232181D01*
X0035755Y0231395D02*
X0006644Y0231395D01*
X0006644Y0230609D02*
X0036540Y0230609D01*
X0037326Y0229823D02*
X0006644Y0229823D01*
X0006644Y0229037D02*
X0038112Y0229037D01*
X0038898Y0228252D02*
X0006644Y0228252D01*
X0006644Y0227466D02*
X0046431Y0227466D01*
X0045831Y0225328D02*
X0044557Y0224054D01*
X0044557Y0222253D01*
X0045354Y0221456D01*
X0045354Y0209103D01*
X0044557Y0208306D01*
X0044557Y0207592D01*
X0044173Y0207976D01*
X0044173Y0209645D01*
X0044970Y0210442D01*
X0044970Y0212243D01*
X0043696Y0213517D01*
X0041894Y0213517D01*
X0040620Y0212243D01*
X0040620Y0210442D01*
X0041417Y0209645D01*
X0041417Y0206835D01*
X0046929Y0201323D01*
X0047736Y0200516D01*
X0077318Y0200516D01*
X0078115Y0199719D01*
X0079917Y0199719D01*
X0081191Y0200993D01*
X0081191Y0202795D01*
X0079917Y0204068D01*
X0078115Y0204068D01*
X0077318Y0203272D01*
X0048878Y0203272D01*
X0046919Y0205231D01*
X0047633Y0205231D01*
X0048907Y0206505D01*
X0048907Y0208306D01*
X0048110Y0209103D01*
X0048110Y0221456D01*
X0048907Y0222253D01*
X0048907Y0224054D01*
X0047633Y0225328D01*
X0045831Y0225328D01*
X0045611Y0225108D02*
X0006644Y0225108D01*
X0006644Y0224322D02*
X0017266Y0224322D01*
X0017485Y0224541D02*
X0016211Y0223267D01*
X0016211Y0221465D01*
X0016220Y0221456D01*
X0016220Y0216190D01*
X0015424Y0215393D01*
X0015424Y0213591D01*
X0016698Y0212317D01*
X0018499Y0212317D01*
X0019773Y0213591D01*
X0019773Y0215393D01*
X0018976Y0216190D01*
X0018976Y0220191D01*
X0019287Y0220191D01*
X0020561Y0221465D01*
X0020561Y0223267D01*
X0019287Y0224541D01*
X0017485Y0224541D01*
X0016480Y0223536D02*
X0006644Y0223536D01*
X0006644Y0222750D02*
X0016211Y0222750D01*
X0016211Y0221964D02*
X0006644Y0221964D01*
X0006644Y0221178D02*
X0016220Y0221178D01*
X0016220Y0220392D02*
X0006644Y0220392D01*
X0006644Y0219606D02*
X0016220Y0219606D01*
X0016220Y0218821D02*
X0006644Y0218821D01*
X0006644Y0218035D02*
X0016220Y0218035D01*
X0016220Y0217249D02*
X0006644Y0217249D01*
X0006644Y0216463D02*
X0016220Y0216463D01*
X0015708Y0215677D02*
X0006644Y0215677D01*
X0006644Y0214891D02*
X0015424Y0214891D01*
X0015424Y0214105D02*
X0006644Y0214105D01*
X0006644Y0213319D02*
X0015696Y0213319D01*
X0016482Y0212533D02*
X0006644Y0212533D01*
X0006644Y0211747D02*
X0040620Y0211747D01*
X0040620Y0210961D02*
X0006644Y0210961D01*
X0006644Y0210176D02*
X0040887Y0210176D01*
X0041417Y0209390D02*
X0006644Y0209390D01*
X0006644Y0208604D02*
X0041417Y0208604D01*
X0041417Y0207818D02*
X0006644Y0207818D01*
X0006644Y0207032D02*
X0041417Y0207032D01*
X0042006Y0206246D02*
X0006644Y0206246D01*
X0006644Y0205460D02*
X0042792Y0205460D01*
X0043578Y0204674D02*
X0006644Y0204674D01*
X0006644Y0203888D02*
X0044364Y0203888D01*
X0045150Y0203102D02*
X0006644Y0203102D01*
X0006644Y0202316D02*
X0045936Y0202316D01*
X0046722Y0201530D02*
X0006644Y0201530D01*
X0006644Y0200745D02*
X0047508Y0200745D01*
X0048307Y0201894D02*
X0079016Y0201894D01*
X0080156Y0199959D02*
X0101781Y0199959D01*
X0101781Y0200745D02*
X0080942Y0200745D01*
X0081191Y0201530D02*
X0101781Y0201530D01*
X0101781Y0202316D02*
X0081191Y0202316D01*
X0080883Y0203102D02*
X0101781Y0203102D01*
X0101781Y0203888D02*
X0080097Y0203888D01*
X0077935Y0203888D02*
X0048261Y0203888D01*
X0047475Y0204674D02*
X0101781Y0204674D01*
X0101781Y0205460D02*
X0047862Y0205460D01*
X0048648Y0206246D02*
X0101781Y0206246D01*
X0101781Y0207032D02*
X0048907Y0207032D01*
X0048907Y0207818D02*
X0101781Y0207818D01*
X0101781Y0208604D02*
X0048610Y0208604D01*
X0048110Y0209390D02*
X0101781Y0209390D01*
X0101781Y0210176D02*
X0048110Y0210176D01*
X0048110Y0210961D02*
X0101781Y0210961D01*
X0101781Y0211747D02*
X0048110Y0211747D01*
X0048110Y0212533D02*
X0101781Y0212533D01*
X0101781Y0213319D02*
X0048110Y0213319D01*
X0048110Y0214105D02*
X0101781Y0214105D01*
X0101781Y0214891D02*
X0048110Y0214891D01*
X0048110Y0215677D02*
X0101781Y0215677D01*
X0101781Y0216463D02*
X0048110Y0216463D01*
X0048110Y0217249D02*
X0101781Y0217249D01*
X0101781Y0218035D02*
X0048110Y0218035D01*
X0048110Y0218821D02*
X0101781Y0218821D01*
X0101781Y0219606D02*
X0048110Y0219606D01*
X0048110Y0220392D02*
X0101781Y0220392D01*
X0101781Y0221178D02*
X0048110Y0221178D01*
X0048619Y0221964D02*
X0101781Y0221964D01*
X0101781Y0222750D02*
X0048907Y0222750D01*
X0048907Y0223536D02*
X0101781Y0223536D01*
X0101781Y0224322D02*
X0048640Y0224322D01*
X0047854Y0225108D02*
X0101781Y0225108D01*
X0101781Y0232181D02*
X0088220Y0232181D01*
X0088283Y0232967D02*
X0101781Y0232967D01*
X0101781Y0233753D02*
X0088283Y0233753D01*
X0088283Y0234539D02*
X0101781Y0234539D01*
X0101781Y0241612D02*
X0056791Y0241612D01*
X0056791Y0242398D02*
X0101781Y0242398D01*
X0101781Y0243184D02*
X0087387Y0243184D01*
X0087480Y0243970D02*
X0101781Y0243970D01*
X0101781Y0244756D02*
X0087480Y0244756D01*
X0087480Y0245542D02*
X0101781Y0245542D01*
X0101781Y0246327D02*
X0087480Y0246327D01*
X0087480Y0247113D02*
X0101781Y0247113D01*
X0101781Y0247899D02*
X0087652Y0247899D01*
X0087890Y0248685D02*
X0101781Y0248685D01*
X0101781Y0249471D02*
X0087890Y0249471D01*
X0087890Y0251043D02*
X0101781Y0251043D01*
X0101781Y0251829D02*
X0087890Y0251829D01*
X0087655Y0252615D02*
X0101781Y0252615D01*
X0101781Y0253401D02*
X0087480Y0253401D01*
X0087480Y0254187D02*
X0101781Y0254187D01*
X0101781Y0254973D02*
X0087480Y0254973D01*
X0087480Y0255758D02*
X0101781Y0255758D01*
X0101781Y0256544D02*
X0087480Y0256544D01*
X0087392Y0257330D02*
X0101781Y0257330D01*
X0101781Y0258116D02*
X0087777Y0258116D01*
X0087890Y0258902D02*
X0101781Y0258902D01*
X0101781Y0259688D02*
X0087890Y0259688D01*
X0087890Y0261260D02*
X0101781Y0261260D01*
X0101781Y0262046D02*
X0087882Y0262046D01*
X0087470Y0262832D02*
X0101781Y0262832D01*
X0101781Y0263618D02*
X0087480Y0263618D01*
X0087480Y0264403D02*
X0101781Y0264403D01*
X0101781Y0265189D02*
X0087480Y0265189D01*
X0087480Y0265975D02*
X0101781Y0265975D01*
X0101781Y0266761D02*
X0087480Y0266761D01*
X0087313Y0267547D02*
X0101781Y0267547D01*
X0101781Y0268333D02*
X0087845Y0268333D01*
X0087890Y0269119D02*
X0101781Y0269119D01*
X0101781Y0260474D02*
X0083937Y0260474D01*
X0083937Y0250257D02*
X0101781Y0250257D01*
X0101781Y0285623D02*
X0006644Y0285623D01*
X0006644Y0286409D02*
X0101781Y0286409D01*
X0101781Y0287195D02*
X0006644Y0287195D01*
X0006644Y0287981D02*
X0101781Y0287981D01*
X0101781Y0288767D02*
X0006644Y0288767D01*
X0006644Y0289553D02*
X0101781Y0289553D01*
X0101781Y0290339D02*
X0006644Y0290339D01*
X0006644Y0291125D02*
X0101781Y0291125D01*
X0101781Y0291910D02*
X0006644Y0291910D01*
X0006644Y0292696D02*
X0101781Y0292696D01*
X0101781Y0293482D02*
X0006644Y0293482D01*
X0006644Y0294268D02*
X0101781Y0294268D01*
X0101781Y0295054D02*
X0006644Y0295054D01*
X0006644Y0295840D02*
X0101781Y0295840D01*
X0101781Y0296626D02*
X0006644Y0296626D01*
X0006644Y0297412D02*
X0101781Y0297412D01*
X0101781Y0298198D02*
X0006644Y0298198D01*
X0006644Y0298984D02*
X0101781Y0298984D01*
X0101781Y0299770D02*
X0006644Y0299770D01*
X0006644Y0300555D02*
X0101781Y0300555D01*
X0101781Y0301341D02*
X0006644Y0301341D01*
X0006644Y0302127D02*
X0101781Y0302127D01*
X0101781Y0302913D02*
X0006644Y0302913D01*
X0006644Y0303699D02*
X0101781Y0303699D01*
X0101781Y0304485D02*
X0006644Y0304485D01*
X0006644Y0305271D02*
X0012335Y0305271D01*
X0012885Y0305043D02*
X0016800Y0305043D01*
X0020418Y0306542D01*
X0023187Y0309310D01*
X0024685Y0312928D01*
X0024685Y0316844D01*
X0023187Y0320461D01*
X0020563Y0323085D01*
X0087862Y0323085D01*
X0085239Y0320461D01*
X0083740Y0316844D01*
X0083740Y0312928D01*
X0085239Y0309310D01*
X0088007Y0306542D01*
X0091625Y0305043D01*
X0095540Y0305043D01*
X0099158Y0306542D01*
X0101781Y0309165D01*
X0101781Y0132602D01*
X0006644Y0132602D01*
X0006644Y0309165D01*
X0009267Y0306542D01*
X0012885Y0305043D01*
X0010438Y0306057D02*
X0006644Y0306057D01*
X0006644Y0306843D02*
X0008966Y0306843D01*
X0008180Y0307629D02*
X0006644Y0307629D01*
X0006644Y0308415D02*
X0007394Y0308415D01*
X0017350Y0305271D02*
X0091075Y0305271D01*
X0089178Y0306057D02*
X0019247Y0306057D01*
X0020719Y0306843D02*
X0087706Y0306843D01*
X0086920Y0307629D02*
X0021505Y0307629D01*
X0022291Y0308415D02*
X0086134Y0308415D01*
X0085349Y0309201D02*
X0023077Y0309201D01*
X0023467Y0309986D02*
X0084959Y0309986D01*
X0084633Y0310772D02*
X0023792Y0310772D01*
X0024118Y0311558D02*
X0084308Y0311558D01*
X0083982Y0312344D02*
X0024443Y0312344D01*
X0024685Y0313130D02*
X0083740Y0313130D01*
X0083740Y0313916D02*
X0024685Y0313916D01*
X0024685Y0314702D02*
X0083740Y0314702D01*
X0083740Y0315488D02*
X0024685Y0315488D01*
X0024685Y0316274D02*
X0083740Y0316274D01*
X0083830Y0317060D02*
X0024596Y0317060D01*
X0024270Y0317846D02*
X0084155Y0317846D01*
X0084481Y0318631D02*
X0023944Y0318631D01*
X0023619Y0319417D02*
X0084806Y0319417D01*
X0085132Y0320203D02*
X0023293Y0320203D01*
X0022659Y0320989D02*
X0085767Y0320989D01*
X0086553Y0321775D02*
X0021873Y0321775D01*
X0021087Y0322561D02*
X0087338Y0322561D01*
X0096090Y0305271D02*
X0101781Y0305271D01*
X0101781Y0306057D02*
X0097987Y0306057D01*
X0099459Y0306843D02*
X0101781Y0306843D01*
X0101781Y0307629D02*
X0100245Y0307629D01*
X0101031Y0308415D02*
X0101781Y0308415D01*
X0067849Y0276978D02*
X0067358Y0276978D01*
X0062283Y0276978D02*
X0061496Y0276978D01*
X0061496Y0277764D02*
X0062283Y0277764D01*
X0062283Y0278550D02*
X0061496Y0278550D01*
X0061496Y0279336D02*
X0062283Y0279336D01*
X0062283Y0280122D02*
X0061496Y0280122D01*
X0061496Y0282479D02*
X0062283Y0282479D01*
X0062283Y0283265D02*
X0061496Y0283265D01*
X0061496Y0284051D02*
X0062283Y0284051D01*
X0050669Y0251500D02*
X0050669Y0238114D01*
X0049094Y0236539D01*
X0048019Y0234539D02*
X0047020Y0234539D01*
X0045945Y0236539D02*
X0049094Y0239689D01*
X0049094Y0249925D01*
X0047520Y0251500D01*
X0048695Y0253401D02*
X0049494Y0253401D01*
X0046345Y0253401D02*
X0006644Y0253401D01*
X0006644Y0252615D02*
X0045559Y0252615D01*
X0045345Y0251829D02*
X0044755Y0251829D01*
X0043583Y0249925D02*
X0044370Y0249138D01*
X0044370Y0241264D01*
X0039646Y0236539D01*
X0040721Y0234539D02*
X0041720Y0234539D01*
X0042795Y0236539D02*
X0045157Y0238902D01*
X0045945Y0238902D01*
X0047520Y0240476D01*
X0047520Y0246776D01*
X0046732Y0247563D01*
X0046732Y0248350D01*
X0042992Y0247113D02*
X0006644Y0247113D01*
X0006644Y0246327D02*
X0042992Y0246327D01*
X0042992Y0245542D02*
X0006644Y0245542D01*
X0006644Y0244756D02*
X0042992Y0244756D01*
X0042992Y0243970D02*
X0006644Y0243970D01*
X0006644Y0243184D02*
X0042992Y0243184D01*
X0042992Y0242398D02*
X0006644Y0242398D01*
X0006644Y0241612D02*
X0042770Y0241612D01*
X0041984Y0240826D02*
X0006644Y0240826D01*
X0006644Y0240040D02*
X0041198Y0240040D01*
X0040412Y0239254D02*
X0026621Y0239254D01*
X0031772Y0237327D02*
X0039646Y0229453D01*
X0047520Y0229453D01*
X0046386Y0231395D02*
X0039652Y0231395D01*
X0043870Y0234539D02*
X0044870Y0234539D01*
X0044825Y0224322D02*
X0019506Y0224322D01*
X0020292Y0223536D02*
X0044557Y0223536D01*
X0044557Y0222750D02*
X0020561Y0222750D01*
X0020561Y0221964D02*
X0044846Y0221964D01*
X0045354Y0221178D02*
X0020274Y0221178D01*
X0019488Y0220392D02*
X0045354Y0220392D01*
X0045354Y0219606D02*
X0018976Y0219606D01*
X0018976Y0218821D02*
X0045354Y0218821D01*
X0045354Y0218035D02*
X0018976Y0218035D01*
X0018976Y0217249D02*
X0045354Y0217249D01*
X0045354Y0216463D02*
X0018976Y0216463D01*
X0019489Y0215677D02*
X0045354Y0215677D01*
X0045354Y0214891D02*
X0019773Y0214891D01*
X0019773Y0214105D02*
X0045354Y0214105D01*
X0045354Y0213319D02*
X0043894Y0213319D01*
X0044680Y0212533D02*
X0045354Y0212533D01*
X0045354Y0211747D02*
X0044970Y0211747D01*
X0044970Y0210961D02*
X0045354Y0210961D01*
X0045354Y0210176D02*
X0044704Y0210176D01*
X0044173Y0209390D02*
X0045354Y0209390D01*
X0044855Y0208604D02*
X0044173Y0208604D01*
X0044332Y0207818D02*
X0044557Y0207818D01*
X0042795Y0207406D02*
X0048307Y0201894D01*
X0046732Y0207406D02*
X0046732Y0223154D01*
X0050170Y0234539D02*
X0052422Y0234539D01*
X0052422Y0235325D02*
X0050955Y0235325D01*
X0051269Y0236111D02*
X0052422Y0236111D01*
X0052422Y0236897D02*
X0051400Y0236897D01*
X0052047Y0237682D02*
X0052422Y0237682D01*
X0052422Y0238468D02*
X0052047Y0238468D01*
X0052047Y0239254D02*
X0052422Y0239254D01*
X0052422Y0240040D02*
X0052047Y0240040D01*
X0052047Y0240826D02*
X0052422Y0240826D01*
X0052422Y0241612D02*
X0052047Y0241612D01*
X0052047Y0242398D02*
X0052422Y0242398D01*
X0052422Y0243184D02*
X0052047Y0243184D01*
X0052047Y0243970D02*
X0052422Y0243970D01*
X0052422Y0244756D02*
X0052047Y0244756D01*
X0052047Y0245542D02*
X0052422Y0245542D01*
X0052644Y0246327D02*
X0052047Y0246327D01*
X0052047Y0247113D02*
X0053430Y0247113D01*
X0042533Y0247899D02*
X0006644Y0247899D01*
X0006644Y0248685D02*
X0041747Y0248685D01*
X0041408Y0249471D02*
X0006644Y0249471D01*
X0006644Y0250257D02*
X0041408Y0250257D01*
X0041625Y0251043D02*
X0006644Y0251043D01*
X0006644Y0251829D02*
X0042411Y0251829D01*
X0041696Y0213319D02*
X0019501Y0213319D01*
X0018715Y0212533D02*
X0040910Y0212533D01*
X0042795Y0211343D02*
X0042795Y0207406D01*
X0022436Y0172572D02*
X0023710Y0171298D01*
X0023710Y0169497D01*
X0022436Y0168223D01*
X0020635Y0168223D01*
X0019838Y0169020D01*
X0014572Y0169020D01*
X0013775Y0168223D01*
X0011973Y0168223D01*
X0010699Y0169497D01*
X0010699Y0171298D01*
X0011973Y0172572D01*
X0013775Y0172572D01*
X0014572Y0171776D01*
X0019838Y0171776D01*
X0020635Y0172572D01*
X0022436Y0172572D01*
X0022557Y0172452D02*
X0101781Y0172452D01*
X0101781Y0173238D02*
X0006644Y0173238D01*
X0006644Y0174024D02*
X0101781Y0174024D01*
X0101781Y0174809D02*
X0006644Y0174809D01*
X0006644Y0175595D02*
X0101781Y0175595D01*
X0101781Y0176381D02*
X0006644Y0176381D01*
X0006644Y0177167D02*
X0101781Y0177167D01*
X0101781Y0177953D02*
X0006644Y0177953D01*
X0006644Y0178739D02*
X0101781Y0178739D01*
X0101781Y0179525D02*
X0006644Y0179525D01*
X0006644Y0180311D02*
X0101781Y0180311D01*
X0101781Y0181097D02*
X0006644Y0181097D01*
X0006644Y0181883D02*
X0101781Y0181883D01*
X0101781Y0182669D02*
X0006644Y0182669D01*
X0006644Y0183454D02*
X0101781Y0183454D01*
X0101781Y0184240D02*
X0006644Y0184240D01*
X0006644Y0185026D02*
X0101781Y0185026D01*
X0101781Y0185812D02*
X0006644Y0185812D01*
X0006644Y0186598D02*
X0101781Y0186598D01*
X0101781Y0187384D02*
X0006644Y0187384D01*
X0006644Y0188170D02*
X0101781Y0188170D01*
X0101781Y0188956D02*
X0006644Y0188956D01*
X0006644Y0189742D02*
X0101781Y0189742D01*
X0101781Y0190528D02*
X0006644Y0190528D01*
X0006644Y0191314D02*
X0101781Y0191314D01*
X0101781Y0192100D02*
X0006644Y0192100D01*
X0006644Y0192885D02*
X0101781Y0192885D01*
X0101781Y0193671D02*
X0006644Y0193671D01*
X0006644Y0194457D02*
X0101781Y0194457D01*
X0101781Y0195243D02*
X0006644Y0195243D01*
X0006644Y0196029D02*
X0101781Y0196029D01*
X0101781Y0196815D02*
X0006644Y0196815D01*
X0006644Y0197601D02*
X0101781Y0197601D01*
X0101781Y0198387D02*
X0006644Y0198387D01*
X0006644Y0199173D02*
X0101781Y0199173D01*
X0101781Y0171666D02*
X0023343Y0171666D01*
X0023710Y0170880D02*
X0101781Y0170880D01*
X0101781Y0170094D02*
X0023710Y0170094D01*
X0023521Y0169308D02*
X0101781Y0169308D01*
X0101781Y0168522D02*
X0022736Y0168522D01*
X0021535Y0170398D02*
X0012874Y0170398D01*
X0011067Y0171666D02*
X0006644Y0171666D01*
X0006644Y0172452D02*
X0011852Y0172452D01*
X0010699Y0170880D02*
X0006644Y0170880D01*
X0006644Y0170094D02*
X0010699Y0170094D01*
X0010888Y0169308D02*
X0006644Y0169308D01*
X0006644Y0168522D02*
X0011674Y0168522D01*
X0014074Y0168522D02*
X0020335Y0168522D01*
X0020514Y0172452D02*
X0013896Y0172452D01*
X0006644Y0167736D02*
X0101781Y0167736D01*
X0101781Y0166950D02*
X0006644Y0166950D01*
X0006644Y0166164D02*
X0101781Y0166164D01*
X0101781Y0165378D02*
X0006644Y0165378D01*
X0006644Y0164593D02*
X0101781Y0164593D01*
X0101781Y0163807D02*
X0006644Y0163807D01*
X0006644Y0163021D02*
X0101781Y0163021D01*
X0101781Y0162235D02*
X0006644Y0162235D01*
X0006644Y0161449D02*
X0101781Y0161449D01*
X0101781Y0160663D02*
X0006644Y0160663D01*
X0006644Y0159877D02*
X0101781Y0159877D01*
X0101781Y0159091D02*
X0006644Y0159091D01*
X0006644Y0158305D02*
X0101781Y0158305D01*
X0101781Y0157519D02*
X0006644Y0157519D01*
X0006644Y0156733D02*
X0101781Y0156733D01*
X0101781Y0155948D02*
X0006644Y0155948D01*
X0006644Y0155162D02*
X0101781Y0155162D01*
X0101781Y0154376D02*
X0006644Y0154376D01*
X0006644Y0153590D02*
X0101781Y0153590D01*
X0101781Y0152804D02*
X0006644Y0152804D01*
X0006644Y0152018D02*
X0101781Y0152018D01*
X0101781Y0151232D02*
X0006644Y0151232D01*
X0006644Y0150446D02*
X0101781Y0150446D01*
X0101781Y0149660D02*
X0028026Y0149660D01*
X0027948Y0149738D02*
X0026146Y0149738D01*
X0025756Y0149347D01*
X0018102Y0149347D01*
X0017712Y0149738D01*
X0015910Y0149738D01*
X0014636Y0148464D01*
X0014636Y0146662D01*
X0015910Y0145388D01*
X0017712Y0145388D01*
X0018102Y0145779D01*
X0025756Y0145779D01*
X0026146Y0145388D01*
X0027948Y0145388D01*
X0029222Y0146662D01*
X0029222Y0148464D01*
X0027948Y0149738D01*
X0028812Y0148874D02*
X0101781Y0148874D01*
X0101781Y0148088D02*
X0029222Y0148088D01*
X0029222Y0147302D02*
X0101781Y0147302D01*
X0101781Y0146517D02*
X0029076Y0146517D01*
X0028291Y0145731D02*
X0101781Y0145731D01*
X0101781Y0144945D02*
X0006644Y0144945D01*
X0006644Y0145731D02*
X0015568Y0145731D01*
X0014782Y0146517D02*
X0006644Y0146517D01*
X0006644Y0147302D02*
X0014636Y0147302D01*
X0014636Y0148088D02*
X0006644Y0148088D01*
X0006644Y0148874D02*
X0015047Y0148874D01*
X0015833Y0149660D02*
X0006644Y0149660D01*
X0006644Y0144159D02*
X0101781Y0144159D01*
X0101781Y0143373D02*
X0006644Y0143373D01*
X0006644Y0142587D02*
X0101781Y0142587D01*
X0101781Y0141801D02*
X0006644Y0141801D01*
X0006644Y0141015D02*
X0101781Y0141015D01*
X0101781Y0140229D02*
X0006644Y0140229D01*
X0006644Y0139443D02*
X0101781Y0139443D01*
X0101781Y0138657D02*
X0006644Y0138657D01*
X0006644Y0137872D02*
X0101781Y0137872D01*
X0101781Y0137086D02*
X0006644Y0137086D01*
X0006644Y0136300D02*
X0101781Y0136300D01*
X0101781Y0135514D02*
X0006644Y0135514D01*
X0006644Y0134728D02*
X0101781Y0134728D01*
X0101781Y0133942D02*
X0006644Y0133942D01*
X0006644Y0133156D02*
X0101781Y0133156D01*
X0077875Y0199959D02*
X0006644Y0199959D01*
X0017598Y0214492D02*
X0017598Y0221579D01*
X0018386Y0222366D01*
X0017789Y0149660D02*
X0026069Y0149660D01*
X0025804Y0145731D02*
X0018054Y0145731D01*
X0034134Y0079846D02*
X0029409Y0075122D01*
X0018386Y0075122D01*
D20*
X0016811Y0147563D02*
X0027047Y0147563D01*
D21*
X0015236Y0120004D02*
X0093189Y0120004D01*
X0095551Y0117642D01*
X0095551Y0049925D01*
X0079803Y0034177D01*
X0076441Y0034177D01*
X0076441Y0036118D01*
X0072429Y0036118D01*
X0072429Y0037118D01*
X0071429Y0037118D01*
X0071429Y0036118D01*
X0067417Y0036118D01*
X0067417Y0034177D01*
X0063479Y0034177D01*
X0063596Y0034294D01*
X0064220Y0035802D01*
X0064220Y0037434D01*
X0063596Y0038942D01*
X0062442Y0040096D01*
X0060934Y0040720D01*
X0059302Y0040720D01*
X0057794Y0040096D01*
X0056640Y0038942D01*
X0056016Y0037434D01*
X0056016Y0035802D01*
X0056640Y0034294D01*
X0056757Y0034177D01*
X0051668Y0034177D01*
X0051785Y0034294D01*
X0052409Y0035802D01*
X0052409Y0037434D01*
X0051785Y0038942D01*
X0050631Y0040096D01*
X0049123Y0040720D01*
X0047491Y0040720D01*
X0045983Y0040096D01*
X0044829Y0038942D01*
X0044205Y0037434D01*
X0044205Y0035802D01*
X0044829Y0034294D01*
X0044946Y0034177D01*
X0039857Y0034177D01*
X0039974Y0034294D01*
X0040598Y0035802D01*
X0040598Y0037434D01*
X0039974Y0038942D01*
X0038820Y0040096D01*
X0037312Y0040720D01*
X0035680Y0040720D01*
X0034172Y0040096D01*
X0033018Y0038942D01*
X0032394Y0037434D01*
X0032394Y0035802D01*
X0033018Y0034294D01*
X0033135Y0034177D01*
X0028622Y0034177D01*
X0012874Y0049925D01*
X0012874Y0117642D01*
X0015236Y0120004D01*
X0014836Y0119604D02*
X0093589Y0119604D01*
X0094587Y0118605D02*
X0013838Y0118605D01*
X0012874Y0117607D02*
X0095551Y0117607D01*
X0095551Y0116608D02*
X0012874Y0116608D01*
X0012874Y0115610D02*
X0095551Y0115610D01*
X0095551Y0114611D02*
X0012874Y0114611D01*
X0012874Y0113613D02*
X0095551Y0113613D01*
X0095551Y0112614D02*
X0012874Y0112614D01*
X0012874Y0111616D02*
X0095551Y0111616D01*
X0095551Y0110617D02*
X0012874Y0110617D01*
X0012874Y0109619D02*
X0095551Y0109619D01*
X0095551Y0108620D02*
X0012874Y0108620D01*
X0012874Y0107622D02*
X0095551Y0107622D01*
X0095551Y0106623D02*
X0012874Y0106623D01*
X0012874Y0105625D02*
X0095551Y0105625D01*
X0095551Y0104626D02*
X0012874Y0104626D01*
X0012874Y0103628D02*
X0095551Y0103628D01*
X0095551Y0102629D02*
X0012874Y0102629D01*
X0012874Y0101631D02*
X0095551Y0101631D01*
X0095551Y0100632D02*
X0012874Y0100632D01*
X0012874Y0099634D02*
X0095551Y0099634D01*
X0095551Y0098635D02*
X0012874Y0098635D01*
X0012874Y0097637D02*
X0095551Y0097637D01*
X0095551Y0096638D02*
X0012874Y0096638D01*
X0012874Y0095640D02*
X0095551Y0095640D01*
X0095551Y0094641D02*
X0012874Y0094641D01*
X0012874Y0093643D02*
X0095551Y0093643D01*
X0095551Y0092644D02*
X0012874Y0092644D01*
X0012874Y0091646D02*
X0095551Y0091646D01*
X0095551Y0090647D02*
X0012874Y0090647D01*
X0012874Y0089649D02*
X0095551Y0089649D01*
X0095551Y0088650D02*
X0012874Y0088650D01*
X0012874Y0087652D02*
X0095551Y0087652D01*
X0095551Y0086653D02*
X0012874Y0086653D01*
X0012874Y0085655D02*
X0095551Y0085655D01*
X0095551Y0084656D02*
X0012874Y0084656D01*
X0012874Y0083658D02*
X0095551Y0083658D01*
X0095551Y0082659D02*
X0012874Y0082659D01*
X0012874Y0081661D02*
X0032722Y0081661D01*
X0033189Y0082128D02*
X0031853Y0080791D01*
X0031853Y0079664D01*
X0028795Y0076606D01*
X0020128Y0076606D01*
X0019331Y0077403D01*
X0017441Y0077403D01*
X0016105Y0076067D01*
X0016105Y0074177D01*
X0017441Y0072841D01*
X0019331Y0072841D01*
X0020128Y0073638D01*
X0030024Y0073638D01*
X0033952Y0077565D01*
X0035079Y0077565D01*
X0036415Y0078902D01*
X0036415Y0080791D01*
X0035079Y0082128D01*
X0033189Y0082128D01*
X0035180Y0077666D02*
X0095551Y0077666D01*
X0095551Y0076668D02*
X0033054Y0076668D01*
X0032056Y0075669D02*
X0095551Y0075669D01*
X0095551Y0074671D02*
X0031057Y0074671D01*
X0030059Y0073672D02*
X0095551Y0073672D01*
X0095551Y0072674D02*
X0012874Y0072674D01*
X0012874Y0073672D02*
X0016609Y0073672D01*
X0016105Y0074671D02*
X0012874Y0074671D01*
X0012874Y0075669D02*
X0016105Y0075669D01*
X0016706Y0076668D02*
X0012874Y0076668D01*
X0012874Y0077666D02*
X0029855Y0077666D01*
X0028856Y0076668D02*
X0020066Y0076668D01*
X0012874Y0078665D02*
X0030853Y0078665D01*
X0031852Y0079664D02*
X0012874Y0079664D01*
X0012874Y0080662D02*
X0031853Y0080662D01*
X0035546Y0081661D02*
X0095551Y0081661D01*
X0095551Y0080662D02*
X0036415Y0080662D01*
X0036415Y0079664D02*
X0095551Y0079664D01*
X0095551Y0078665D02*
X0036178Y0078665D01*
X0033799Y0039723D02*
X0023076Y0039723D01*
X0022078Y0040722D02*
X0067888Y0040722D01*
X0067996Y0040830D02*
X0067717Y0040551D01*
X0067520Y0040209D01*
X0067417Y0039827D01*
X0067417Y0037118D01*
X0071429Y0037118D01*
X0071429Y0041130D01*
X0068720Y0041130D01*
X0068338Y0041028D01*
X0067996Y0040830D01*
X0067417Y0039723D02*
X0062815Y0039723D01*
X0063686Y0038725D02*
X0067417Y0038725D01*
X0067417Y0037726D02*
X0064100Y0037726D01*
X0064220Y0036728D02*
X0071429Y0036728D01*
X0071429Y0037726D02*
X0072429Y0037726D01*
X0072429Y0037118D02*
X0072429Y0041130D01*
X0075138Y0041130D01*
X0075520Y0041028D01*
X0075862Y0040830D01*
X0076141Y0040551D01*
X0076339Y0040209D01*
X0076441Y0039827D01*
X0076441Y0037118D01*
X0072429Y0037118D01*
X0072429Y0036728D02*
X0082354Y0036728D01*
X0083352Y0037726D02*
X0076441Y0037726D01*
X0076441Y0038725D02*
X0084351Y0038725D01*
X0085349Y0039723D02*
X0076441Y0039723D01*
X0075971Y0040722D02*
X0086348Y0040722D01*
X0087346Y0041720D02*
X0021079Y0041720D01*
X0020081Y0042719D02*
X0088345Y0042719D01*
X0089343Y0043717D02*
X0019082Y0043717D01*
X0018084Y0044716D02*
X0090342Y0044716D01*
X0091340Y0045714D02*
X0017085Y0045714D01*
X0016087Y0046713D02*
X0092339Y0046713D01*
X0093337Y0047711D02*
X0015088Y0047711D01*
X0014090Y0048710D02*
X0094336Y0048710D01*
X0095334Y0049708D02*
X0013091Y0049708D01*
X0012874Y0050707D02*
X0095551Y0050707D01*
X0095551Y0051705D02*
X0012874Y0051705D01*
X0012874Y0052704D02*
X0095551Y0052704D01*
X0095551Y0053702D02*
X0012874Y0053702D01*
X0012874Y0054701D02*
X0095551Y0054701D01*
X0095551Y0055699D02*
X0012874Y0055699D01*
X0012874Y0056698D02*
X0095551Y0056698D01*
X0095551Y0057696D02*
X0012874Y0057696D01*
X0012874Y0058695D02*
X0095551Y0058695D01*
X0095551Y0059693D02*
X0012874Y0059693D01*
X0012874Y0060692D02*
X0095551Y0060692D01*
X0095551Y0061690D02*
X0012874Y0061690D01*
X0012874Y0062689D02*
X0095551Y0062689D01*
X0095551Y0063687D02*
X0012874Y0063687D01*
X0012874Y0064686D02*
X0095551Y0064686D01*
X0095551Y0065684D02*
X0012874Y0065684D01*
X0012874Y0066683D02*
X0095551Y0066683D01*
X0095551Y0067681D02*
X0012874Y0067681D01*
X0012874Y0068680D02*
X0095551Y0068680D01*
X0095551Y0069678D02*
X0012874Y0069678D01*
X0012874Y0070677D02*
X0095551Y0070677D01*
X0095551Y0071675D02*
X0012874Y0071675D01*
X0024075Y0038725D02*
X0032928Y0038725D01*
X0032515Y0037726D02*
X0025073Y0037726D01*
X0026072Y0036728D02*
X0032394Y0036728D01*
X0032424Y0035729D02*
X0027070Y0035729D01*
X0028069Y0034730D02*
X0032838Y0034730D01*
X0039193Y0039723D02*
X0045610Y0039723D01*
X0044739Y0038725D02*
X0040064Y0038725D01*
X0040477Y0037726D02*
X0044326Y0037726D01*
X0044205Y0036728D02*
X0040598Y0036728D01*
X0040568Y0035729D02*
X0044235Y0035729D01*
X0044649Y0034730D02*
X0040155Y0034730D01*
X0051004Y0039723D02*
X0057421Y0039723D01*
X0056550Y0038725D02*
X0051875Y0038725D01*
X0052289Y0037726D02*
X0056137Y0037726D01*
X0056016Y0036728D02*
X0052409Y0036728D01*
X0052379Y0035729D02*
X0056046Y0035729D01*
X0056460Y0034730D02*
X0051966Y0034730D01*
X0063777Y0034730D02*
X0067417Y0034730D01*
X0067417Y0035729D02*
X0064190Y0035729D01*
X0071429Y0038725D02*
X0072429Y0038725D01*
X0072429Y0039723D02*
X0071429Y0039723D01*
X0071429Y0040722D02*
X0072429Y0040722D01*
X0076441Y0035729D02*
X0081355Y0035729D01*
X0080356Y0034730D02*
X0076441Y0034730D01*
M02*
