G75*
%MOIN*%
%OFA0B0*%
%FSLAX25Y25*%
%IPPOS*%
%LPD*%
%AMOC8*
5,1,8,0,0,1.08239X$1,22.5*
%
%ADD10C,0.00787*%
%ADD11C,0.00500*%
%ADD12C,0.00000*%
%ADD13C,0.00600*%
%ADD14C,0.01000*%
%ADD15R,0.05000X0.05000*%
%ADD16C,0.00787*%
%ADD17R,0.00787X0.00787*%
D10*
X0007362Y0126303D02*
X0101063Y0126303D01*
X0076654Y0064098D02*
X0080591Y0060161D01*
X0077441Y0065673D02*
X0076654Y0066461D01*
X0075866Y0065673D01*
X0076654Y0066461D02*
X0076654Y0064098D01*
X0067205Y0064098D02*
X0066417Y0064886D01*
X0065630Y0064098D01*
X0066417Y0064886D02*
X0066417Y0057012D01*
X0061693Y0074335D02*
X0060906Y0074335D01*
X0060906Y0075122D01*
X0061693Y0075122D02*
X0060906Y0074335D01*
X0061693Y0075122D02*
X0061693Y0077484D01*
X0056181Y0231815D02*
X0056181Y0283783D01*
X0087677Y0283783D01*
X0087677Y0231815D01*
X0056181Y0231815D01*
D11*
X0005000Y0320791D02*
X0005000Y0013705D01*
X0005002Y0013581D01*
X0005008Y0013458D01*
X0005017Y0013334D01*
X0005031Y0013212D01*
X0005048Y0013089D01*
X0005070Y0012967D01*
X0005095Y0012846D01*
X0005124Y0012726D01*
X0005156Y0012607D01*
X0005193Y0012488D01*
X0005233Y0012371D01*
X0005276Y0012256D01*
X0005324Y0012141D01*
X0005375Y0012029D01*
X0005429Y0011918D01*
X0005487Y0011808D01*
X0005548Y0011701D01*
X0005613Y0011595D01*
X0005681Y0011492D01*
X0005752Y0011391D01*
X0005826Y0011292D01*
X0005903Y0011195D01*
X0005984Y0011101D01*
X0006067Y0011010D01*
X0006153Y0010921D01*
X0006242Y0010835D01*
X0006333Y0010752D01*
X0006427Y0010671D01*
X0006524Y0010594D01*
X0006623Y0010520D01*
X0006724Y0010449D01*
X0006827Y0010381D01*
X0006933Y0010316D01*
X0007040Y0010255D01*
X0007150Y0010197D01*
X0007261Y0010143D01*
X0007373Y0010092D01*
X0007488Y0010044D01*
X0007603Y0010001D01*
X0007720Y0009961D01*
X0007839Y0009924D01*
X0007958Y0009892D01*
X0008078Y0009863D01*
X0008199Y0009838D01*
X0008321Y0009816D01*
X0008444Y0009799D01*
X0008566Y0009785D01*
X0008690Y0009776D01*
X0008813Y0009770D01*
X0008937Y0009768D01*
X0099488Y0009768D01*
X0099612Y0009770D01*
X0099735Y0009776D01*
X0099859Y0009785D01*
X0099981Y0009799D01*
X0100104Y0009816D01*
X0100226Y0009838D01*
X0100347Y0009863D01*
X0100467Y0009892D01*
X0100586Y0009924D01*
X0100705Y0009961D01*
X0100822Y0010001D01*
X0100937Y0010044D01*
X0101052Y0010092D01*
X0101164Y0010143D01*
X0101275Y0010197D01*
X0101385Y0010255D01*
X0101492Y0010316D01*
X0101598Y0010381D01*
X0101701Y0010449D01*
X0101802Y0010520D01*
X0101901Y0010594D01*
X0101998Y0010671D01*
X0102092Y0010752D01*
X0102183Y0010835D01*
X0102272Y0010921D01*
X0102358Y0011010D01*
X0102441Y0011101D01*
X0102522Y0011195D01*
X0102599Y0011292D01*
X0102673Y0011391D01*
X0102744Y0011492D01*
X0102812Y0011595D01*
X0102877Y0011701D01*
X0102938Y0011808D01*
X0102996Y0011918D01*
X0103050Y0012029D01*
X0103101Y0012141D01*
X0103149Y0012256D01*
X0103192Y0012371D01*
X0103232Y0012488D01*
X0103269Y0012607D01*
X0103301Y0012726D01*
X0103330Y0012846D01*
X0103355Y0012967D01*
X0103377Y0013089D01*
X0103394Y0013212D01*
X0103408Y0013334D01*
X0103417Y0013458D01*
X0103423Y0013581D01*
X0103425Y0013705D01*
X0103425Y0320791D01*
X0103423Y0320915D01*
X0103417Y0321038D01*
X0103408Y0321162D01*
X0103394Y0321284D01*
X0103377Y0321407D01*
X0103355Y0321529D01*
X0103330Y0321650D01*
X0103301Y0321770D01*
X0103269Y0321889D01*
X0103232Y0322008D01*
X0103192Y0322125D01*
X0103149Y0322240D01*
X0103101Y0322355D01*
X0103050Y0322467D01*
X0102996Y0322578D01*
X0102938Y0322688D01*
X0102877Y0322795D01*
X0102812Y0322901D01*
X0102744Y0323004D01*
X0102673Y0323105D01*
X0102599Y0323204D01*
X0102522Y0323301D01*
X0102441Y0323395D01*
X0102358Y0323486D01*
X0102272Y0323575D01*
X0102183Y0323661D01*
X0102092Y0323744D01*
X0101998Y0323825D01*
X0101901Y0323902D01*
X0101802Y0323976D01*
X0101701Y0324047D01*
X0101598Y0324115D01*
X0101492Y0324180D01*
X0101385Y0324241D01*
X0101275Y0324299D01*
X0101164Y0324353D01*
X0101052Y0324404D01*
X0100937Y0324452D01*
X0100822Y0324495D01*
X0100705Y0324535D01*
X0100586Y0324572D01*
X0100467Y0324604D01*
X0100347Y0324633D01*
X0100226Y0324658D01*
X0100104Y0324680D01*
X0099981Y0324697D01*
X0099859Y0324711D01*
X0099735Y0324720D01*
X0099612Y0324726D01*
X0099488Y0324728D01*
X0008937Y0324728D01*
X0008813Y0324726D01*
X0008690Y0324720D01*
X0008566Y0324711D01*
X0008444Y0324697D01*
X0008321Y0324680D01*
X0008199Y0324658D01*
X0008078Y0324633D01*
X0007958Y0324604D01*
X0007839Y0324572D01*
X0007720Y0324535D01*
X0007603Y0324495D01*
X0007488Y0324452D01*
X0007373Y0324404D01*
X0007261Y0324353D01*
X0007150Y0324299D01*
X0007040Y0324241D01*
X0006933Y0324180D01*
X0006827Y0324115D01*
X0006724Y0324047D01*
X0006623Y0323976D01*
X0006524Y0323902D01*
X0006427Y0323825D01*
X0006333Y0323744D01*
X0006242Y0323661D01*
X0006153Y0323575D01*
X0006067Y0323486D01*
X0005984Y0323395D01*
X0005903Y0323301D01*
X0005826Y0323204D01*
X0005752Y0323105D01*
X0005681Y0323004D01*
X0005613Y0322901D01*
X0005548Y0322795D01*
X0005487Y0322688D01*
X0005429Y0322578D01*
X0005375Y0322467D01*
X0005324Y0322355D01*
X0005276Y0322240D01*
X0005233Y0322125D01*
X0005193Y0322008D01*
X0005156Y0321889D01*
X0005124Y0321770D01*
X0005095Y0321650D01*
X0005070Y0321529D01*
X0005048Y0321407D01*
X0005031Y0321284D01*
X0005017Y0321162D01*
X0005008Y0321038D01*
X0005002Y0320915D01*
X0005000Y0320791D01*
X0023898Y0232602D02*
X0039646Y0232602D01*
X0039646Y0216854D01*
X0023898Y0216854D01*
X0023898Y0232602D01*
X0035709Y0220004D02*
X0035711Y0220060D01*
X0035717Y0220115D01*
X0035727Y0220169D01*
X0035740Y0220223D01*
X0035758Y0220276D01*
X0035779Y0220327D01*
X0035803Y0220377D01*
X0035831Y0220425D01*
X0035863Y0220471D01*
X0035897Y0220515D01*
X0035935Y0220556D01*
X0035975Y0220594D01*
X0036018Y0220629D01*
X0036063Y0220661D01*
X0036111Y0220690D01*
X0036160Y0220716D01*
X0036211Y0220738D01*
X0036263Y0220756D01*
X0036317Y0220770D01*
X0036372Y0220781D01*
X0036427Y0220788D01*
X0036482Y0220791D01*
X0036538Y0220790D01*
X0036593Y0220785D01*
X0036648Y0220776D01*
X0036702Y0220764D01*
X0036755Y0220747D01*
X0036807Y0220727D01*
X0036857Y0220703D01*
X0036905Y0220676D01*
X0036952Y0220646D01*
X0036996Y0220612D01*
X0037038Y0220575D01*
X0037076Y0220535D01*
X0037113Y0220493D01*
X0037146Y0220448D01*
X0037175Y0220402D01*
X0037202Y0220353D01*
X0037224Y0220302D01*
X0037244Y0220250D01*
X0037259Y0220196D01*
X0037271Y0220142D01*
X0037279Y0220087D01*
X0037283Y0220032D01*
X0037283Y0219976D01*
X0037279Y0219921D01*
X0037271Y0219866D01*
X0037259Y0219812D01*
X0037244Y0219758D01*
X0037224Y0219706D01*
X0037202Y0219655D01*
X0037175Y0219606D01*
X0037146Y0219560D01*
X0037113Y0219515D01*
X0037076Y0219473D01*
X0037038Y0219433D01*
X0036996Y0219396D01*
X0036952Y0219362D01*
X0036905Y0219332D01*
X0036857Y0219305D01*
X0036807Y0219281D01*
X0036755Y0219261D01*
X0036702Y0219244D01*
X0036648Y0219232D01*
X0036593Y0219223D01*
X0036538Y0219218D01*
X0036482Y0219217D01*
X0036427Y0219220D01*
X0036372Y0219227D01*
X0036317Y0219238D01*
X0036263Y0219252D01*
X0036211Y0219270D01*
X0036160Y0219292D01*
X0036111Y0219318D01*
X0036063Y0219347D01*
X0036018Y0219379D01*
X0035975Y0219414D01*
X0035935Y0219452D01*
X0035897Y0219493D01*
X0035863Y0219537D01*
X0035831Y0219583D01*
X0035803Y0219631D01*
X0035779Y0219681D01*
X0035758Y0219732D01*
X0035740Y0219785D01*
X0035727Y0219839D01*
X0035717Y0219893D01*
X0035711Y0219948D01*
X0035709Y0220004D01*
X0036768Y0193508D02*
X0031768Y0193508D01*
X0031768Y0183508D01*
X0026768Y0183508D01*
X0026768Y0193508D01*
X0031768Y0193508D01*
X0031768Y0183508D02*
X0036768Y0183508D01*
X0036768Y0193508D01*
X0041768Y0193508D01*
X0041768Y0183508D01*
X0036768Y0183508D01*
X0041768Y0183508D02*
X0046768Y0183508D01*
X0046768Y0188508D01*
X0021768Y0188508D01*
X0021768Y0193508D01*
X0026768Y0193508D01*
X0026768Y0183508D02*
X0021768Y0183508D01*
X0021768Y0188508D01*
X0041768Y0193508D02*
X0046768Y0193508D01*
X0046768Y0188508D01*
X0049685Y0203469D02*
X0049685Y0214689D01*
X0051063Y0216067D01*
X0059528Y0216067D01*
X0059528Y0203469D01*
X0049685Y0203469D01*
X0049685Y0214689D02*
X0049685Y0216067D01*
X0051063Y0216067D01*
X0041417Y0167248D02*
X0091614Y0167248D01*
X0094567Y0164295D01*
X0094567Y0088508D01*
X0041417Y0088508D01*
X0041417Y0167248D01*
X0053425Y0055988D02*
X0029016Y0055988D01*
X0029016Y0042287D01*
X0053425Y0042287D01*
X0053425Y0055988D01*
X0045157Y0051500D02*
X0045157Y0046776D01*
X0036496Y0046776D01*
X0036496Y0051500D01*
X0045157Y0051500D01*
X0044370Y0050713D02*
X0042008Y0050713D01*
X0042008Y0047563D01*
X0044370Y0047563D01*
X0044370Y0050713D01*
X0044370Y0050646D02*
X0042008Y0050646D01*
X0042008Y0050147D02*
X0044370Y0050147D01*
X0044370Y0049649D02*
X0042008Y0049649D01*
X0042008Y0049150D02*
X0044370Y0049150D01*
X0044370Y0048652D02*
X0042008Y0048652D01*
X0042008Y0048153D02*
X0044370Y0048153D01*
X0044370Y0047655D02*
X0042008Y0047655D01*
D12*
X0039055Y0019610D02*
X0039057Y0019763D01*
X0039063Y0019917D01*
X0039073Y0020070D01*
X0039087Y0020222D01*
X0039105Y0020375D01*
X0039127Y0020526D01*
X0039152Y0020677D01*
X0039182Y0020828D01*
X0039216Y0020978D01*
X0039253Y0021126D01*
X0039294Y0021274D01*
X0039339Y0021420D01*
X0039388Y0021566D01*
X0039441Y0021710D01*
X0039497Y0021852D01*
X0039557Y0021993D01*
X0039621Y0022133D01*
X0039688Y0022271D01*
X0039759Y0022407D01*
X0039834Y0022541D01*
X0039911Y0022673D01*
X0039993Y0022803D01*
X0040077Y0022931D01*
X0040165Y0023057D01*
X0040256Y0023180D01*
X0040350Y0023301D01*
X0040448Y0023419D01*
X0040548Y0023535D01*
X0040652Y0023648D01*
X0040758Y0023759D01*
X0040867Y0023867D01*
X0040979Y0023972D01*
X0041093Y0024073D01*
X0041211Y0024172D01*
X0041330Y0024268D01*
X0041452Y0024361D01*
X0041577Y0024450D01*
X0041704Y0024537D01*
X0041833Y0024619D01*
X0041964Y0024699D01*
X0042097Y0024775D01*
X0042232Y0024848D01*
X0042369Y0024917D01*
X0042508Y0024982D01*
X0042648Y0025044D01*
X0042790Y0025102D01*
X0042933Y0025157D01*
X0043078Y0025208D01*
X0043224Y0025255D01*
X0043371Y0025298D01*
X0043519Y0025337D01*
X0043668Y0025373D01*
X0043818Y0025404D01*
X0043969Y0025432D01*
X0044120Y0025456D01*
X0044273Y0025476D01*
X0044425Y0025492D01*
X0044578Y0025504D01*
X0044731Y0025512D01*
X0044884Y0025516D01*
X0045038Y0025516D01*
X0045191Y0025512D01*
X0045344Y0025504D01*
X0045497Y0025492D01*
X0045649Y0025476D01*
X0045802Y0025456D01*
X0045953Y0025432D01*
X0046104Y0025404D01*
X0046254Y0025373D01*
X0046403Y0025337D01*
X0046551Y0025298D01*
X0046698Y0025255D01*
X0046844Y0025208D01*
X0046989Y0025157D01*
X0047132Y0025102D01*
X0047274Y0025044D01*
X0047414Y0024982D01*
X0047553Y0024917D01*
X0047690Y0024848D01*
X0047825Y0024775D01*
X0047958Y0024699D01*
X0048089Y0024619D01*
X0048218Y0024537D01*
X0048345Y0024450D01*
X0048470Y0024361D01*
X0048592Y0024268D01*
X0048711Y0024172D01*
X0048829Y0024073D01*
X0048943Y0023972D01*
X0049055Y0023867D01*
X0049164Y0023759D01*
X0049270Y0023648D01*
X0049374Y0023535D01*
X0049474Y0023419D01*
X0049572Y0023301D01*
X0049666Y0023180D01*
X0049757Y0023057D01*
X0049845Y0022931D01*
X0049929Y0022803D01*
X0050011Y0022673D01*
X0050088Y0022541D01*
X0050163Y0022407D01*
X0050234Y0022271D01*
X0050301Y0022133D01*
X0050365Y0021993D01*
X0050425Y0021852D01*
X0050481Y0021710D01*
X0050534Y0021566D01*
X0050583Y0021420D01*
X0050628Y0021274D01*
X0050669Y0021126D01*
X0050706Y0020978D01*
X0050740Y0020828D01*
X0050770Y0020677D01*
X0050795Y0020526D01*
X0050817Y0020375D01*
X0050835Y0020222D01*
X0050849Y0020070D01*
X0050859Y0019917D01*
X0050865Y0019763D01*
X0050867Y0019610D01*
X0050865Y0019457D01*
X0050859Y0019303D01*
X0050849Y0019150D01*
X0050835Y0018998D01*
X0050817Y0018845D01*
X0050795Y0018694D01*
X0050770Y0018543D01*
X0050740Y0018392D01*
X0050706Y0018242D01*
X0050669Y0018094D01*
X0050628Y0017946D01*
X0050583Y0017800D01*
X0050534Y0017654D01*
X0050481Y0017510D01*
X0050425Y0017368D01*
X0050365Y0017227D01*
X0050301Y0017087D01*
X0050234Y0016949D01*
X0050163Y0016813D01*
X0050088Y0016679D01*
X0050011Y0016547D01*
X0049929Y0016417D01*
X0049845Y0016289D01*
X0049757Y0016163D01*
X0049666Y0016040D01*
X0049572Y0015919D01*
X0049474Y0015801D01*
X0049374Y0015685D01*
X0049270Y0015572D01*
X0049164Y0015461D01*
X0049055Y0015353D01*
X0048943Y0015248D01*
X0048829Y0015147D01*
X0048711Y0015048D01*
X0048592Y0014952D01*
X0048470Y0014859D01*
X0048345Y0014770D01*
X0048218Y0014683D01*
X0048089Y0014601D01*
X0047958Y0014521D01*
X0047825Y0014445D01*
X0047690Y0014372D01*
X0047553Y0014303D01*
X0047414Y0014238D01*
X0047274Y0014176D01*
X0047132Y0014118D01*
X0046989Y0014063D01*
X0046844Y0014012D01*
X0046698Y0013965D01*
X0046551Y0013922D01*
X0046403Y0013883D01*
X0046254Y0013847D01*
X0046104Y0013816D01*
X0045953Y0013788D01*
X0045802Y0013764D01*
X0045649Y0013744D01*
X0045497Y0013728D01*
X0045344Y0013716D01*
X0045191Y0013708D01*
X0045038Y0013704D01*
X0044884Y0013704D01*
X0044731Y0013708D01*
X0044578Y0013716D01*
X0044425Y0013728D01*
X0044273Y0013744D01*
X0044120Y0013764D01*
X0043969Y0013788D01*
X0043818Y0013816D01*
X0043668Y0013847D01*
X0043519Y0013883D01*
X0043371Y0013922D01*
X0043224Y0013965D01*
X0043078Y0014012D01*
X0042933Y0014063D01*
X0042790Y0014118D01*
X0042648Y0014176D01*
X0042508Y0014238D01*
X0042369Y0014303D01*
X0042232Y0014372D01*
X0042097Y0014445D01*
X0041964Y0014521D01*
X0041833Y0014601D01*
X0041704Y0014683D01*
X0041577Y0014770D01*
X0041452Y0014859D01*
X0041330Y0014952D01*
X0041211Y0015048D01*
X0041093Y0015147D01*
X0040979Y0015248D01*
X0040867Y0015353D01*
X0040758Y0015461D01*
X0040652Y0015572D01*
X0040548Y0015685D01*
X0040448Y0015801D01*
X0040350Y0015919D01*
X0040256Y0016040D01*
X0040165Y0016163D01*
X0040077Y0016289D01*
X0039993Y0016417D01*
X0039911Y0016547D01*
X0039834Y0016679D01*
X0039759Y0016813D01*
X0039688Y0016949D01*
X0039621Y0017087D01*
X0039557Y0017227D01*
X0039497Y0017368D01*
X0039441Y0017510D01*
X0039388Y0017654D01*
X0039339Y0017800D01*
X0039294Y0017946D01*
X0039253Y0018094D01*
X0039216Y0018242D01*
X0039182Y0018392D01*
X0039152Y0018543D01*
X0039127Y0018694D01*
X0039105Y0018845D01*
X0039087Y0018998D01*
X0039073Y0019150D01*
X0039063Y0019303D01*
X0039057Y0019457D01*
X0039055Y0019610D01*
X0057559Y0019610D02*
X0057561Y0019763D01*
X0057567Y0019917D01*
X0057577Y0020070D01*
X0057591Y0020222D01*
X0057609Y0020375D01*
X0057631Y0020526D01*
X0057656Y0020677D01*
X0057686Y0020828D01*
X0057720Y0020978D01*
X0057757Y0021126D01*
X0057798Y0021274D01*
X0057843Y0021420D01*
X0057892Y0021566D01*
X0057945Y0021710D01*
X0058001Y0021852D01*
X0058061Y0021993D01*
X0058125Y0022133D01*
X0058192Y0022271D01*
X0058263Y0022407D01*
X0058338Y0022541D01*
X0058415Y0022673D01*
X0058497Y0022803D01*
X0058581Y0022931D01*
X0058669Y0023057D01*
X0058760Y0023180D01*
X0058854Y0023301D01*
X0058952Y0023419D01*
X0059052Y0023535D01*
X0059156Y0023648D01*
X0059262Y0023759D01*
X0059371Y0023867D01*
X0059483Y0023972D01*
X0059597Y0024073D01*
X0059715Y0024172D01*
X0059834Y0024268D01*
X0059956Y0024361D01*
X0060081Y0024450D01*
X0060208Y0024537D01*
X0060337Y0024619D01*
X0060468Y0024699D01*
X0060601Y0024775D01*
X0060736Y0024848D01*
X0060873Y0024917D01*
X0061012Y0024982D01*
X0061152Y0025044D01*
X0061294Y0025102D01*
X0061437Y0025157D01*
X0061582Y0025208D01*
X0061728Y0025255D01*
X0061875Y0025298D01*
X0062023Y0025337D01*
X0062172Y0025373D01*
X0062322Y0025404D01*
X0062473Y0025432D01*
X0062624Y0025456D01*
X0062777Y0025476D01*
X0062929Y0025492D01*
X0063082Y0025504D01*
X0063235Y0025512D01*
X0063388Y0025516D01*
X0063542Y0025516D01*
X0063695Y0025512D01*
X0063848Y0025504D01*
X0064001Y0025492D01*
X0064153Y0025476D01*
X0064306Y0025456D01*
X0064457Y0025432D01*
X0064608Y0025404D01*
X0064758Y0025373D01*
X0064907Y0025337D01*
X0065055Y0025298D01*
X0065202Y0025255D01*
X0065348Y0025208D01*
X0065493Y0025157D01*
X0065636Y0025102D01*
X0065778Y0025044D01*
X0065918Y0024982D01*
X0066057Y0024917D01*
X0066194Y0024848D01*
X0066329Y0024775D01*
X0066462Y0024699D01*
X0066593Y0024619D01*
X0066722Y0024537D01*
X0066849Y0024450D01*
X0066974Y0024361D01*
X0067096Y0024268D01*
X0067215Y0024172D01*
X0067333Y0024073D01*
X0067447Y0023972D01*
X0067559Y0023867D01*
X0067668Y0023759D01*
X0067774Y0023648D01*
X0067878Y0023535D01*
X0067978Y0023419D01*
X0068076Y0023301D01*
X0068170Y0023180D01*
X0068261Y0023057D01*
X0068349Y0022931D01*
X0068433Y0022803D01*
X0068515Y0022673D01*
X0068592Y0022541D01*
X0068667Y0022407D01*
X0068738Y0022271D01*
X0068805Y0022133D01*
X0068869Y0021993D01*
X0068929Y0021852D01*
X0068985Y0021710D01*
X0069038Y0021566D01*
X0069087Y0021420D01*
X0069132Y0021274D01*
X0069173Y0021126D01*
X0069210Y0020978D01*
X0069244Y0020828D01*
X0069274Y0020677D01*
X0069299Y0020526D01*
X0069321Y0020375D01*
X0069339Y0020222D01*
X0069353Y0020070D01*
X0069363Y0019917D01*
X0069369Y0019763D01*
X0069371Y0019610D01*
X0069369Y0019457D01*
X0069363Y0019303D01*
X0069353Y0019150D01*
X0069339Y0018998D01*
X0069321Y0018845D01*
X0069299Y0018694D01*
X0069274Y0018543D01*
X0069244Y0018392D01*
X0069210Y0018242D01*
X0069173Y0018094D01*
X0069132Y0017946D01*
X0069087Y0017800D01*
X0069038Y0017654D01*
X0068985Y0017510D01*
X0068929Y0017368D01*
X0068869Y0017227D01*
X0068805Y0017087D01*
X0068738Y0016949D01*
X0068667Y0016813D01*
X0068592Y0016679D01*
X0068515Y0016547D01*
X0068433Y0016417D01*
X0068349Y0016289D01*
X0068261Y0016163D01*
X0068170Y0016040D01*
X0068076Y0015919D01*
X0067978Y0015801D01*
X0067878Y0015685D01*
X0067774Y0015572D01*
X0067668Y0015461D01*
X0067559Y0015353D01*
X0067447Y0015248D01*
X0067333Y0015147D01*
X0067215Y0015048D01*
X0067096Y0014952D01*
X0066974Y0014859D01*
X0066849Y0014770D01*
X0066722Y0014683D01*
X0066593Y0014601D01*
X0066462Y0014521D01*
X0066329Y0014445D01*
X0066194Y0014372D01*
X0066057Y0014303D01*
X0065918Y0014238D01*
X0065778Y0014176D01*
X0065636Y0014118D01*
X0065493Y0014063D01*
X0065348Y0014012D01*
X0065202Y0013965D01*
X0065055Y0013922D01*
X0064907Y0013883D01*
X0064758Y0013847D01*
X0064608Y0013816D01*
X0064457Y0013788D01*
X0064306Y0013764D01*
X0064153Y0013744D01*
X0064001Y0013728D01*
X0063848Y0013716D01*
X0063695Y0013708D01*
X0063542Y0013704D01*
X0063388Y0013704D01*
X0063235Y0013708D01*
X0063082Y0013716D01*
X0062929Y0013728D01*
X0062777Y0013744D01*
X0062624Y0013764D01*
X0062473Y0013788D01*
X0062322Y0013816D01*
X0062172Y0013847D01*
X0062023Y0013883D01*
X0061875Y0013922D01*
X0061728Y0013965D01*
X0061582Y0014012D01*
X0061437Y0014063D01*
X0061294Y0014118D01*
X0061152Y0014176D01*
X0061012Y0014238D01*
X0060873Y0014303D01*
X0060736Y0014372D01*
X0060601Y0014445D01*
X0060468Y0014521D01*
X0060337Y0014601D01*
X0060208Y0014683D01*
X0060081Y0014770D01*
X0059956Y0014859D01*
X0059834Y0014952D01*
X0059715Y0015048D01*
X0059597Y0015147D01*
X0059483Y0015248D01*
X0059371Y0015353D01*
X0059262Y0015461D01*
X0059156Y0015572D01*
X0059052Y0015685D01*
X0058952Y0015801D01*
X0058854Y0015919D01*
X0058760Y0016040D01*
X0058669Y0016163D01*
X0058581Y0016289D01*
X0058497Y0016417D01*
X0058415Y0016547D01*
X0058338Y0016679D01*
X0058263Y0016813D01*
X0058192Y0016949D01*
X0058125Y0017087D01*
X0058061Y0017227D01*
X0058001Y0017368D01*
X0057945Y0017510D01*
X0057892Y0017654D01*
X0057843Y0017800D01*
X0057798Y0017946D01*
X0057757Y0018094D01*
X0057720Y0018242D01*
X0057686Y0018392D01*
X0057656Y0018543D01*
X0057631Y0018694D01*
X0057609Y0018845D01*
X0057591Y0018998D01*
X0057577Y0019150D01*
X0057567Y0019303D01*
X0057561Y0019457D01*
X0057559Y0019610D01*
X0068779Y0236598D02*
X0068781Y0236710D01*
X0068787Y0236821D01*
X0068797Y0236933D01*
X0068811Y0237044D01*
X0068828Y0237154D01*
X0068850Y0237264D01*
X0068876Y0237373D01*
X0068905Y0237481D01*
X0068938Y0237587D01*
X0068975Y0237693D01*
X0069016Y0237797D01*
X0069061Y0237900D01*
X0069109Y0238001D01*
X0069160Y0238100D01*
X0069215Y0238197D01*
X0069274Y0238292D01*
X0069335Y0238386D01*
X0069400Y0238477D01*
X0069469Y0238565D01*
X0069540Y0238651D01*
X0069614Y0238735D01*
X0069692Y0238815D01*
X0069772Y0238893D01*
X0069855Y0238969D01*
X0069940Y0239041D01*
X0070028Y0239110D01*
X0070118Y0239176D01*
X0070211Y0239238D01*
X0070306Y0239298D01*
X0070403Y0239354D01*
X0070501Y0239406D01*
X0070602Y0239455D01*
X0070704Y0239500D01*
X0070808Y0239542D01*
X0070913Y0239580D01*
X0071020Y0239614D01*
X0071127Y0239644D01*
X0071236Y0239671D01*
X0071345Y0239693D01*
X0071456Y0239712D01*
X0071566Y0239727D01*
X0071678Y0239738D01*
X0071789Y0239745D01*
X0071901Y0239748D01*
X0072013Y0239747D01*
X0072125Y0239742D01*
X0072236Y0239733D01*
X0072347Y0239720D01*
X0072458Y0239703D01*
X0072568Y0239683D01*
X0072677Y0239658D01*
X0072785Y0239630D01*
X0072892Y0239597D01*
X0072998Y0239561D01*
X0073102Y0239521D01*
X0073205Y0239478D01*
X0073307Y0239431D01*
X0073406Y0239380D01*
X0073504Y0239326D01*
X0073600Y0239268D01*
X0073694Y0239207D01*
X0073785Y0239143D01*
X0073874Y0239076D01*
X0073961Y0239005D01*
X0074045Y0238931D01*
X0074127Y0238855D01*
X0074205Y0238775D01*
X0074281Y0238693D01*
X0074354Y0238608D01*
X0074424Y0238521D01*
X0074490Y0238431D01*
X0074554Y0238339D01*
X0074614Y0238245D01*
X0074671Y0238149D01*
X0074724Y0238050D01*
X0074774Y0237950D01*
X0074820Y0237849D01*
X0074863Y0237745D01*
X0074902Y0237640D01*
X0074937Y0237534D01*
X0074968Y0237427D01*
X0074996Y0237318D01*
X0075019Y0237209D01*
X0075039Y0237099D01*
X0075055Y0236988D01*
X0075067Y0236877D01*
X0075075Y0236766D01*
X0075079Y0236654D01*
X0075079Y0236542D01*
X0075075Y0236430D01*
X0075067Y0236319D01*
X0075055Y0236208D01*
X0075039Y0236097D01*
X0075019Y0235987D01*
X0074996Y0235878D01*
X0074968Y0235769D01*
X0074937Y0235662D01*
X0074902Y0235556D01*
X0074863Y0235451D01*
X0074820Y0235347D01*
X0074774Y0235246D01*
X0074724Y0235146D01*
X0074671Y0235047D01*
X0074614Y0234951D01*
X0074554Y0234857D01*
X0074490Y0234765D01*
X0074424Y0234675D01*
X0074354Y0234588D01*
X0074281Y0234503D01*
X0074205Y0234421D01*
X0074127Y0234341D01*
X0074045Y0234265D01*
X0073961Y0234191D01*
X0073874Y0234120D01*
X0073785Y0234053D01*
X0073694Y0233989D01*
X0073600Y0233928D01*
X0073504Y0233870D01*
X0073406Y0233816D01*
X0073307Y0233765D01*
X0073205Y0233718D01*
X0073102Y0233675D01*
X0072998Y0233635D01*
X0072892Y0233599D01*
X0072785Y0233566D01*
X0072677Y0233538D01*
X0072568Y0233513D01*
X0072458Y0233493D01*
X0072347Y0233476D01*
X0072236Y0233463D01*
X0072125Y0233454D01*
X0072013Y0233449D01*
X0071901Y0233448D01*
X0071789Y0233451D01*
X0071678Y0233458D01*
X0071566Y0233469D01*
X0071456Y0233484D01*
X0071345Y0233503D01*
X0071236Y0233525D01*
X0071127Y0233552D01*
X0071020Y0233582D01*
X0070913Y0233616D01*
X0070808Y0233654D01*
X0070704Y0233696D01*
X0070602Y0233741D01*
X0070501Y0233790D01*
X0070403Y0233842D01*
X0070306Y0233898D01*
X0070211Y0233958D01*
X0070118Y0234020D01*
X0070028Y0234086D01*
X0069940Y0234155D01*
X0069855Y0234227D01*
X0069772Y0234303D01*
X0069692Y0234381D01*
X0069614Y0234461D01*
X0069540Y0234545D01*
X0069469Y0234631D01*
X0069400Y0234719D01*
X0069335Y0234810D01*
X0069274Y0234904D01*
X0069215Y0234999D01*
X0069160Y0235096D01*
X0069109Y0235195D01*
X0069061Y0235296D01*
X0069016Y0235399D01*
X0068975Y0235503D01*
X0068938Y0235609D01*
X0068905Y0235715D01*
X0068876Y0235823D01*
X0068850Y0235932D01*
X0068828Y0236042D01*
X0068811Y0236152D01*
X0068797Y0236263D01*
X0068787Y0236375D01*
X0068781Y0236486D01*
X0068779Y0236598D01*
X0068781Y0236710D01*
X0068787Y0236821D01*
X0068797Y0236933D01*
X0068811Y0237044D01*
X0068828Y0237154D01*
X0068850Y0237264D01*
X0068876Y0237373D01*
X0068905Y0237481D01*
X0068938Y0237587D01*
X0068975Y0237693D01*
X0069016Y0237797D01*
X0069061Y0237900D01*
X0069109Y0238001D01*
X0069160Y0238100D01*
X0069215Y0238197D01*
X0069274Y0238292D01*
X0069335Y0238386D01*
X0069400Y0238477D01*
X0069469Y0238565D01*
X0069540Y0238651D01*
X0069614Y0238735D01*
X0069692Y0238815D01*
X0069772Y0238893D01*
X0069855Y0238969D01*
X0069940Y0239041D01*
X0070028Y0239110D01*
X0070118Y0239176D01*
X0070211Y0239238D01*
X0070306Y0239298D01*
X0070403Y0239354D01*
X0070501Y0239406D01*
X0070602Y0239455D01*
X0070704Y0239500D01*
X0070808Y0239542D01*
X0070913Y0239580D01*
X0071020Y0239614D01*
X0071127Y0239644D01*
X0071236Y0239671D01*
X0071345Y0239693D01*
X0071456Y0239712D01*
X0071566Y0239727D01*
X0071678Y0239738D01*
X0071789Y0239745D01*
X0071901Y0239748D01*
X0072013Y0239747D01*
X0072125Y0239742D01*
X0072236Y0239733D01*
X0072347Y0239720D01*
X0072458Y0239703D01*
X0072568Y0239683D01*
X0072677Y0239658D01*
X0072785Y0239630D01*
X0072892Y0239597D01*
X0072998Y0239561D01*
X0073102Y0239521D01*
X0073205Y0239478D01*
X0073307Y0239431D01*
X0073406Y0239380D01*
X0073504Y0239326D01*
X0073600Y0239268D01*
X0073694Y0239207D01*
X0073785Y0239143D01*
X0073874Y0239076D01*
X0073961Y0239005D01*
X0074045Y0238931D01*
X0074127Y0238855D01*
X0074205Y0238775D01*
X0074281Y0238693D01*
X0074354Y0238608D01*
X0074424Y0238521D01*
X0074490Y0238431D01*
X0074554Y0238339D01*
X0074614Y0238245D01*
X0074671Y0238149D01*
X0074724Y0238050D01*
X0074774Y0237950D01*
X0074820Y0237849D01*
X0074863Y0237745D01*
X0074902Y0237640D01*
X0074937Y0237534D01*
X0074968Y0237427D01*
X0074996Y0237318D01*
X0075019Y0237209D01*
X0075039Y0237099D01*
X0075055Y0236988D01*
X0075067Y0236877D01*
X0075075Y0236766D01*
X0075079Y0236654D01*
X0075079Y0236542D01*
X0075075Y0236430D01*
X0075067Y0236319D01*
X0075055Y0236208D01*
X0075039Y0236097D01*
X0075019Y0235987D01*
X0074996Y0235878D01*
X0074968Y0235769D01*
X0074937Y0235662D01*
X0074902Y0235556D01*
X0074863Y0235451D01*
X0074820Y0235347D01*
X0074774Y0235246D01*
X0074724Y0235146D01*
X0074671Y0235047D01*
X0074614Y0234951D01*
X0074554Y0234857D01*
X0074490Y0234765D01*
X0074424Y0234675D01*
X0074354Y0234588D01*
X0074281Y0234503D01*
X0074205Y0234421D01*
X0074127Y0234341D01*
X0074045Y0234265D01*
X0073961Y0234191D01*
X0073874Y0234120D01*
X0073785Y0234053D01*
X0073694Y0233989D01*
X0073600Y0233928D01*
X0073504Y0233870D01*
X0073406Y0233816D01*
X0073307Y0233765D01*
X0073205Y0233718D01*
X0073102Y0233675D01*
X0072998Y0233635D01*
X0072892Y0233599D01*
X0072785Y0233566D01*
X0072677Y0233538D01*
X0072568Y0233513D01*
X0072458Y0233493D01*
X0072347Y0233476D01*
X0072236Y0233463D01*
X0072125Y0233454D01*
X0072013Y0233449D01*
X0071901Y0233448D01*
X0071789Y0233451D01*
X0071678Y0233458D01*
X0071566Y0233469D01*
X0071456Y0233484D01*
X0071345Y0233503D01*
X0071236Y0233525D01*
X0071127Y0233552D01*
X0071020Y0233582D01*
X0070913Y0233616D01*
X0070808Y0233654D01*
X0070704Y0233696D01*
X0070602Y0233741D01*
X0070501Y0233790D01*
X0070403Y0233842D01*
X0070306Y0233898D01*
X0070211Y0233958D01*
X0070118Y0234020D01*
X0070028Y0234086D01*
X0069940Y0234155D01*
X0069855Y0234227D01*
X0069772Y0234303D01*
X0069692Y0234381D01*
X0069614Y0234461D01*
X0069540Y0234545D01*
X0069469Y0234631D01*
X0069400Y0234719D01*
X0069335Y0234810D01*
X0069274Y0234904D01*
X0069215Y0234999D01*
X0069160Y0235096D01*
X0069109Y0235195D01*
X0069061Y0235296D01*
X0069016Y0235399D01*
X0068975Y0235503D01*
X0068938Y0235609D01*
X0068905Y0235715D01*
X0068876Y0235823D01*
X0068850Y0235932D01*
X0068828Y0236042D01*
X0068811Y0236152D01*
X0068797Y0236263D01*
X0068787Y0236375D01*
X0068781Y0236486D01*
X0068779Y0236598D01*
X0068779Y0279000D02*
X0068781Y0279112D01*
X0068787Y0279223D01*
X0068797Y0279335D01*
X0068811Y0279446D01*
X0068828Y0279556D01*
X0068850Y0279666D01*
X0068876Y0279775D01*
X0068905Y0279883D01*
X0068938Y0279989D01*
X0068975Y0280095D01*
X0069016Y0280199D01*
X0069061Y0280302D01*
X0069109Y0280403D01*
X0069160Y0280502D01*
X0069215Y0280599D01*
X0069274Y0280694D01*
X0069335Y0280788D01*
X0069400Y0280879D01*
X0069469Y0280967D01*
X0069540Y0281053D01*
X0069614Y0281137D01*
X0069692Y0281217D01*
X0069772Y0281295D01*
X0069855Y0281371D01*
X0069940Y0281443D01*
X0070028Y0281512D01*
X0070118Y0281578D01*
X0070211Y0281640D01*
X0070306Y0281700D01*
X0070403Y0281756D01*
X0070501Y0281808D01*
X0070602Y0281857D01*
X0070704Y0281902D01*
X0070808Y0281944D01*
X0070913Y0281982D01*
X0071020Y0282016D01*
X0071127Y0282046D01*
X0071236Y0282073D01*
X0071345Y0282095D01*
X0071456Y0282114D01*
X0071566Y0282129D01*
X0071678Y0282140D01*
X0071789Y0282147D01*
X0071901Y0282150D01*
X0072013Y0282149D01*
X0072125Y0282144D01*
X0072236Y0282135D01*
X0072347Y0282122D01*
X0072458Y0282105D01*
X0072568Y0282085D01*
X0072677Y0282060D01*
X0072785Y0282032D01*
X0072892Y0281999D01*
X0072998Y0281963D01*
X0073102Y0281923D01*
X0073205Y0281880D01*
X0073307Y0281833D01*
X0073406Y0281782D01*
X0073504Y0281728D01*
X0073600Y0281670D01*
X0073694Y0281609D01*
X0073785Y0281545D01*
X0073874Y0281478D01*
X0073961Y0281407D01*
X0074045Y0281333D01*
X0074127Y0281257D01*
X0074205Y0281177D01*
X0074281Y0281095D01*
X0074354Y0281010D01*
X0074424Y0280923D01*
X0074490Y0280833D01*
X0074554Y0280741D01*
X0074614Y0280647D01*
X0074671Y0280551D01*
X0074724Y0280452D01*
X0074774Y0280352D01*
X0074820Y0280251D01*
X0074863Y0280147D01*
X0074902Y0280042D01*
X0074937Y0279936D01*
X0074968Y0279829D01*
X0074996Y0279720D01*
X0075019Y0279611D01*
X0075039Y0279501D01*
X0075055Y0279390D01*
X0075067Y0279279D01*
X0075075Y0279168D01*
X0075079Y0279056D01*
X0075079Y0278944D01*
X0075075Y0278832D01*
X0075067Y0278721D01*
X0075055Y0278610D01*
X0075039Y0278499D01*
X0075019Y0278389D01*
X0074996Y0278280D01*
X0074968Y0278171D01*
X0074937Y0278064D01*
X0074902Y0277958D01*
X0074863Y0277853D01*
X0074820Y0277749D01*
X0074774Y0277648D01*
X0074724Y0277548D01*
X0074671Y0277449D01*
X0074614Y0277353D01*
X0074554Y0277259D01*
X0074490Y0277167D01*
X0074424Y0277077D01*
X0074354Y0276990D01*
X0074281Y0276905D01*
X0074205Y0276823D01*
X0074127Y0276743D01*
X0074045Y0276667D01*
X0073961Y0276593D01*
X0073874Y0276522D01*
X0073785Y0276455D01*
X0073694Y0276391D01*
X0073600Y0276330D01*
X0073504Y0276272D01*
X0073406Y0276218D01*
X0073307Y0276167D01*
X0073205Y0276120D01*
X0073102Y0276077D01*
X0072998Y0276037D01*
X0072892Y0276001D01*
X0072785Y0275968D01*
X0072677Y0275940D01*
X0072568Y0275915D01*
X0072458Y0275895D01*
X0072347Y0275878D01*
X0072236Y0275865D01*
X0072125Y0275856D01*
X0072013Y0275851D01*
X0071901Y0275850D01*
X0071789Y0275853D01*
X0071678Y0275860D01*
X0071566Y0275871D01*
X0071456Y0275886D01*
X0071345Y0275905D01*
X0071236Y0275927D01*
X0071127Y0275954D01*
X0071020Y0275984D01*
X0070913Y0276018D01*
X0070808Y0276056D01*
X0070704Y0276098D01*
X0070602Y0276143D01*
X0070501Y0276192D01*
X0070403Y0276244D01*
X0070306Y0276300D01*
X0070211Y0276360D01*
X0070118Y0276422D01*
X0070028Y0276488D01*
X0069940Y0276557D01*
X0069855Y0276629D01*
X0069772Y0276705D01*
X0069692Y0276783D01*
X0069614Y0276863D01*
X0069540Y0276947D01*
X0069469Y0277033D01*
X0069400Y0277121D01*
X0069335Y0277212D01*
X0069274Y0277306D01*
X0069215Y0277401D01*
X0069160Y0277498D01*
X0069109Y0277597D01*
X0069061Y0277698D01*
X0069016Y0277801D01*
X0068975Y0277905D01*
X0068938Y0278011D01*
X0068905Y0278117D01*
X0068876Y0278225D01*
X0068850Y0278334D01*
X0068828Y0278444D01*
X0068811Y0278554D01*
X0068797Y0278665D01*
X0068787Y0278777D01*
X0068781Y0278888D01*
X0068779Y0279000D01*
X0068781Y0279112D01*
X0068787Y0279223D01*
X0068797Y0279335D01*
X0068811Y0279446D01*
X0068828Y0279556D01*
X0068850Y0279666D01*
X0068876Y0279775D01*
X0068905Y0279883D01*
X0068938Y0279989D01*
X0068975Y0280095D01*
X0069016Y0280199D01*
X0069061Y0280302D01*
X0069109Y0280403D01*
X0069160Y0280502D01*
X0069215Y0280599D01*
X0069274Y0280694D01*
X0069335Y0280788D01*
X0069400Y0280879D01*
X0069469Y0280967D01*
X0069540Y0281053D01*
X0069614Y0281137D01*
X0069692Y0281217D01*
X0069772Y0281295D01*
X0069855Y0281371D01*
X0069940Y0281443D01*
X0070028Y0281512D01*
X0070118Y0281578D01*
X0070211Y0281640D01*
X0070306Y0281700D01*
X0070403Y0281756D01*
X0070501Y0281808D01*
X0070602Y0281857D01*
X0070704Y0281902D01*
X0070808Y0281944D01*
X0070913Y0281982D01*
X0071020Y0282016D01*
X0071127Y0282046D01*
X0071236Y0282073D01*
X0071345Y0282095D01*
X0071456Y0282114D01*
X0071566Y0282129D01*
X0071678Y0282140D01*
X0071789Y0282147D01*
X0071901Y0282150D01*
X0072013Y0282149D01*
X0072125Y0282144D01*
X0072236Y0282135D01*
X0072347Y0282122D01*
X0072458Y0282105D01*
X0072568Y0282085D01*
X0072677Y0282060D01*
X0072785Y0282032D01*
X0072892Y0281999D01*
X0072998Y0281963D01*
X0073102Y0281923D01*
X0073205Y0281880D01*
X0073307Y0281833D01*
X0073406Y0281782D01*
X0073504Y0281728D01*
X0073600Y0281670D01*
X0073694Y0281609D01*
X0073785Y0281545D01*
X0073874Y0281478D01*
X0073961Y0281407D01*
X0074045Y0281333D01*
X0074127Y0281257D01*
X0074205Y0281177D01*
X0074281Y0281095D01*
X0074354Y0281010D01*
X0074424Y0280923D01*
X0074490Y0280833D01*
X0074554Y0280741D01*
X0074614Y0280647D01*
X0074671Y0280551D01*
X0074724Y0280452D01*
X0074774Y0280352D01*
X0074820Y0280251D01*
X0074863Y0280147D01*
X0074902Y0280042D01*
X0074937Y0279936D01*
X0074968Y0279829D01*
X0074996Y0279720D01*
X0075019Y0279611D01*
X0075039Y0279501D01*
X0075055Y0279390D01*
X0075067Y0279279D01*
X0075075Y0279168D01*
X0075079Y0279056D01*
X0075079Y0278944D01*
X0075075Y0278832D01*
X0075067Y0278721D01*
X0075055Y0278610D01*
X0075039Y0278499D01*
X0075019Y0278389D01*
X0074996Y0278280D01*
X0074968Y0278171D01*
X0074937Y0278064D01*
X0074902Y0277958D01*
X0074863Y0277853D01*
X0074820Y0277749D01*
X0074774Y0277648D01*
X0074724Y0277548D01*
X0074671Y0277449D01*
X0074614Y0277353D01*
X0074554Y0277259D01*
X0074490Y0277167D01*
X0074424Y0277077D01*
X0074354Y0276990D01*
X0074281Y0276905D01*
X0074205Y0276823D01*
X0074127Y0276743D01*
X0074045Y0276667D01*
X0073961Y0276593D01*
X0073874Y0276522D01*
X0073785Y0276455D01*
X0073694Y0276391D01*
X0073600Y0276330D01*
X0073504Y0276272D01*
X0073406Y0276218D01*
X0073307Y0276167D01*
X0073205Y0276120D01*
X0073102Y0276077D01*
X0072998Y0276037D01*
X0072892Y0276001D01*
X0072785Y0275968D01*
X0072677Y0275940D01*
X0072568Y0275915D01*
X0072458Y0275895D01*
X0072347Y0275878D01*
X0072236Y0275865D01*
X0072125Y0275856D01*
X0072013Y0275851D01*
X0071901Y0275850D01*
X0071789Y0275853D01*
X0071678Y0275860D01*
X0071566Y0275871D01*
X0071456Y0275886D01*
X0071345Y0275905D01*
X0071236Y0275927D01*
X0071127Y0275954D01*
X0071020Y0275984D01*
X0070913Y0276018D01*
X0070808Y0276056D01*
X0070704Y0276098D01*
X0070602Y0276143D01*
X0070501Y0276192D01*
X0070403Y0276244D01*
X0070306Y0276300D01*
X0070211Y0276360D01*
X0070118Y0276422D01*
X0070028Y0276488D01*
X0069940Y0276557D01*
X0069855Y0276629D01*
X0069772Y0276705D01*
X0069692Y0276783D01*
X0069614Y0276863D01*
X0069540Y0276947D01*
X0069469Y0277033D01*
X0069400Y0277121D01*
X0069335Y0277212D01*
X0069274Y0277306D01*
X0069215Y0277401D01*
X0069160Y0277498D01*
X0069109Y0277597D01*
X0069061Y0277698D01*
X0069016Y0277801D01*
X0068975Y0277905D01*
X0068938Y0278011D01*
X0068905Y0278117D01*
X0068876Y0278225D01*
X0068850Y0278334D01*
X0068828Y0278444D01*
X0068811Y0278554D01*
X0068797Y0278665D01*
X0068787Y0278777D01*
X0068781Y0278888D01*
X0068779Y0279000D01*
D13*
X0067240Y0228569D02*
X0065538Y0226868D01*
X0067807Y0226868D01*
X0067240Y0225166D02*
X0067240Y0228569D01*
X0064124Y0228002D02*
X0063557Y0228569D01*
X0062422Y0228569D01*
X0061855Y0228002D01*
X0061855Y0225733D01*
X0062422Y0225166D01*
X0063557Y0225166D01*
X0064124Y0225733D01*
X0065393Y0215740D02*
X0065393Y0213471D01*
X0065393Y0214605D02*
X0061990Y0214605D01*
X0063124Y0213471D01*
X0062557Y0212057D02*
X0064826Y0212057D01*
X0065393Y0211489D01*
X0065393Y0210355D01*
X0064826Y0209788D01*
X0062557Y0209788D01*
X0061990Y0210355D01*
X0061990Y0211489D01*
X0062557Y0212057D01*
X0064259Y0210922D02*
X0065393Y0212057D01*
X0065538Y0200223D02*
X0067807Y0200223D01*
X0067807Y0199655D01*
X0065538Y0197387D01*
X0065538Y0196820D01*
X0064124Y0197387D02*
X0063557Y0196820D01*
X0062422Y0196820D01*
X0061855Y0197387D01*
X0061855Y0199655D01*
X0062422Y0200223D01*
X0063557Y0200223D01*
X0064124Y0199655D01*
X0063557Y0193923D02*
X0062422Y0193923D01*
X0061855Y0193356D01*
X0061855Y0191088D01*
X0062422Y0190520D01*
X0063557Y0190520D01*
X0064124Y0191088D01*
X0065538Y0191088D02*
X0065538Y0192222D01*
X0067240Y0192222D01*
X0067807Y0191655D01*
X0067807Y0191088D01*
X0067240Y0190520D01*
X0066105Y0190520D01*
X0065538Y0191088D01*
X0065538Y0192222D02*
X0066673Y0193356D01*
X0067807Y0193923D01*
X0069591Y0191919D02*
X0069591Y0189651D01*
X0070158Y0189083D01*
X0071293Y0189083D01*
X0071860Y0189651D01*
X0073274Y0189083D02*
X0075543Y0189083D01*
X0074409Y0189083D02*
X0074409Y0192486D01*
X0073274Y0191352D01*
X0071860Y0191919D02*
X0071293Y0192486D01*
X0070158Y0192486D01*
X0069591Y0191919D01*
X0064124Y0193356D02*
X0063557Y0193923D01*
X0058444Y0186744D02*
X0058444Y0184475D01*
X0058444Y0185609D02*
X0055041Y0185609D01*
X0056175Y0184475D01*
X0055608Y0183061D02*
X0056743Y0183061D01*
X0057310Y0182493D01*
X0057310Y0180792D01*
X0058444Y0180792D02*
X0055041Y0180792D01*
X0055041Y0182493D01*
X0055608Y0183061D01*
X0057310Y0181926D02*
X0058444Y0183061D01*
X0055425Y0214591D02*
X0054290Y0214591D01*
X0053723Y0215158D01*
X0053723Y0215726D01*
X0054290Y0216293D01*
X0055425Y0216293D01*
X0055992Y0215726D01*
X0055992Y0215158D01*
X0055425Y0214591D01*
X0055425Y0216293D02*
X0055992Y0216860D01*
X0055992Y0217427D01*
X0055425Y0217994D01*
X0054290Y0217994D01*
X0053723Y0217427D01*
X0053723Y0216860D01*
X0054290Y0216293D01*
X0052309Y0217427D02*
X0051741Y0217994D01*
X0050607Y0217994D01*
X0050040Y0217427D01*
X0050040Y0215158D01*
X0050607Y0214591D01*
X0051741Y0214591D01*
X0052309Y0215158D01*
X0044185Y0213041D02*
X0043618Y0213608D01*
X0042483Y0213608D01*
X0041916Y0213041D01*
X0044185Y0212474D02*
X0041916Y0210206D01*
X0044185Y0210206D01*
X0044185Y0212474D02*
X0044185Y0213041D01*
X0040502Y0213041D02*
X0040502Y0211907D01*
X0039935Y0211340D01*
X0038233Y0211340D01*
X0039367Y0211340D02*
X0040502Y0210206D01*
X0040502Y0213041D02*
X0039935Y0213608D01*
X0038233Y0213608D01*
X0038233Y0210206D01*
X0037770Y0236052D02*
X0037770Y0239455D01*
X0036635Y0238321D01*
X0036635Y0236052D02*
X0038904Y0236052D01*
X0035221Y0236619D02*
X0034654Y0236052D01*
X0033519Y0236052D01*
X0032952Y0236619D01*
X0032952Y0238888D01*
X0033519Y0239455D01*
X0034654Y0239455D01*
X0035221Y0238888D01*
X0032030Y0241560D02*
X0032598Y0242127D01*
X0032598Y0243261D01*
X0032030Y0243828D01*
X0032030Y0245243D02*
X0032598Y0245810D01*
X0032598Y0246944D01*
X0032030Y0247511D01*
X0031463Y0247511D01*
X0030896Y0246944D01*
X0030896Y0246377D01*
X0030896Y0246944D02*
X0030329Y0247511D01*
X0029762Y0247511D01*
X0029195Y0246944D01*
X0029195Y0245810D01*
X0029762Y0245243D01*
X0029762Y0243828D02*
X0029195Y0243261D01*
X0029195Y0242127D01*
X0029762Y0241560D01*
X0032030Y0241560D01*
X0031631Y0239455D02*
X0030497Y0239455D01*
X0031064Y0239455D02*
X0031064Y0236052D01*
X0030497Y0236052D02*
X0031631Y0236052D01*
X0025413Y0250626D02*
X0025413Y0250996D01*
X0025413Y0250626D02*
X0019232Y0250626D01*
X0019232Y0250996D01*
X0019232Y0254169D02*
X0019232Y0258280D01*
X0019232Y0261453D02*
X0019232Y0261823D01*
X0025413Y0261823D01*
X0025413Y0261453D01*
X0025413Y0258280D02*
X0025413Y0257909D01*
X0025413Y0254539D02*
X0025413Y0254169D01*
X0025523Y0278060D02*
X0027791Y0278060D01*
X0026657Y0278060D02*
X0026657Y0281463D01*
X0025523Y0280328D01*
X0024108Y0280896D02*
X0024108Y0278627D01*
X0023541Y0278060D01*
X0021840Y0278060D01*
X0021840Y0281463D01*
X0023541Y0281463D01*
X0024108Y0280896D01*
X0020425Y0281463D02*
X0018156Y0281463D01*
X0018156Y0278060D01*
X0020425Y0278060D01*
X0019291Y0279761D02*
X0018156Y0279761D01*
X0016742Y0278060D02*
X0014473Y0278060D01*
X0014473Y0281463D01*
X0013224Y0269425D02*
X0013224Y0267156D01*
X0010955Y0269425D01*
X0010388Y0269425D01*
X0009821Y0268858D01*
X0009821Y0267724D01*
X0010388Y0267156D01*
X0010388Y0265742D02*
X0009821Y0265175D01*
X0009821Y0264040D01*
X0010388Y0263473D01*
X0012656Y0263473D01*
X0013224Y0264040D01*
X0013224Y0265175D01*
X0012656Y0265742D01*
X0012948Y0260581D02*
X0012948Y0258313D01*
X0010679Y0260581D01*
X0010112Y0260581D01*
X0009545Y0260014D01*
X0009545Y0258880D01*
X0010112Y0258313D01*
X0010112Y0256898D02*
X0009545Y0256331D01*
X0009545Y0255197D01*
X0010112Y0254629D01*
X0012381Y0254629D01*
X0012948Y0255197D01*
X0012948Y0256331D01*
X0012381Y0256898D01*
X0012948Y0253308D02*
X0012948Y0252174D01*
X0012948Y0252741D02*
X0009545Y0252741D01*
X0009545Y0252174D02*
X0009545Y0253308D01*
X0009033Y0232417D02*
X0009033Y0230148D01*
X0010735Y0230148D01*
X0010168Y0231283D01*
X0010168Y0231850D01*
X0010735Y0232417D01*
X0011869Y0232417D01*
X0012436Y0231850D01*
X0012436Y0230716D01*
X0011869Y0230148D01*
X0011869Y0228734D02*
X0012436Y0228167D01*
X0012436Y0227033D01*
X0011869Y0226465D01*
X0009600Y0226465D01*
X0009033Y0227033D01*
X0009033Y0228167D01*
X0009600Y0228734D01*
X0018747Y0191610D02*
X0018747Y0189341D01*
X0017045Y0191043D01*
X0020448Y0191043D01*
X0020448Y0187927D02*
X0017045Y0185658D01*
X0017045Y0187927D02*
X0020448Y0185658D01*
X0027144Y0153423D02*
X0027711Y0153423D01*
X0029979Y0151154D01*
X0030546Y0151154D01*
X0030546Y0149740D02*
X0030546Y0147471D01*
X0030546Y0148606D02*
X0027144Y0148606D01*
X0028278Y0147471D01*
X0027711Y0146057D02*
X0027144Y0145490D01*
X0027144Y0144355D01*
X0027711Y0143788D01*
X0029979Y0143788D01*
X0030546Y0144355D01*
X0030546Y0145490D01*
X0029979Y0146057D01*
X0027144Y0151154D02*
X0027144Y0153423D01*
X0036730Y0162036D02*
X0036730Y0164305D01*
X0036730Y0163171D02*
X0040133Y0163171D01*
X0040133Y0165719D02*
X0040133Y0167988D01*
X0040133Y0166854D02*
X0036730Y0166854D01*
X0037864Y0165719D01*
X0033915Y0110459D02*
X0032214Y0108757D01*
X0034482Y0108757D01*
X0033915Y0107056D02*
X0033915Y0110459D01*
X0030799Y0107056D02*
X0028530Y0107056D01*
X0029665Y0107056D02*
X0029665Y0110459D01*
X0028530Y0109325D01*
X0027116Y0109892D02*
X0026549Y0110459D01*
X0025414Y0110459D01*
X0024847Y0109892D01*
X0024847Y0107623D01*
X0025414Y0107056D01*
X0026549Y0107056D01*
X0027116Y0107623D01*
X0019204Y0098309D02*
X0019771Y0097742D01*
X0019771Y0097175D01*
X0019204Y0096608D01*
X0018070Y0096608D01*
X0017503Y0097175D01*
X0017503Y0097742D01*
X0018070Y0098309D01*
X0019204Y0098309D01*
X0019204Y0096608D02*
X0019771Y0096041D01*
X0019771Y0095473D01*
X0019204Y0094906D01*
X0018070Y0094906D01*
X0017503Y0095473D01*
X0017503Y0096041D01*
X0018070Y0096608D01*
X0016088Y0094906D02*
X0013820Y0094906D01*
X0014954Y0094906D02*
X0014954Y0098309D01*
X0013820Y0097175D01*
X0012405Y0097742D02*
X0011838Y0098309D01*
X0010704Y0098309D01*
X0010136Y0097742D01*
X0010136Y0095473D01*
X0010704Y0094906D01*
X0011838Y0094906D01*
X0012405Y0095473D01*
X0012057Y0091290D02*
X0012624Y0090156D01*
X0013758Y0089021D01*
X0013758Y0090723D01*
X0014326Y0091290D01*
X0014893Y0091290D01*
X0015460Y0090723D01*
X0015460Y0089588D01*
X0014893Y0089021D01*
X0013758Y0089021D01*
X0012624Y0087607D02*
X0012057Y0087040D01*
X0012057Y0085905D01*
X0012624Y0085338D01*
X0014893Y0085338D01*
X0015460Y0085905D01*
X0015460Y0087040D01*
X0014893Y0087607D01*
X0015460Y0084017D02*
X0015460Y0082883D01*
X0015460Y0083450D02*
X0012057Y0083450D01*
X0012057Y0082883D02*
X0012057Y0084017D01*
X0012310Y0059189D02*
X0011742Y0058622D01*
X0011742Y0058054D01*
X0012310Y0056920D01*
X0010608Y0056920D01*
X0010608Y0059189D01*
X0011175Y0055506D02*
X0010608Y0054938D01*
X0010608Y0053237D01*
X0014011Y0053237D01*
X0012877Y0053237D02*
X0012877Y0054938D01*
X0012310Y0055506D01*
X0011175Y0055506D01*
X0012877Y0054371D02*
X0014011Y0055506D01*
X0013444Y0056920D02*
X0014011Y0057487D01*
X0014011Y0058622D01*
X0013444Y0059189D01*
X0012310Y0059189D01*
X0015470Y0050318D02*
X0018873Y0050318D01*
X0018873Y0049184D02*
X0018873Y0051453D01*
X0018306Y0047769D02*
X0018873Y0047202D01*
X0018873Y0046068D01*
X0018306Y0045501D01*
X0017172Y0046068D02*
X0017172Y0047202D01*
X0017739Y0047769D01*
X0018306Y0047769D01*
X0017172Y0046068D02*
X0016605Y0045501D01*
X0016037Y0045501D01*
X0015470Y0046068D01*
X0015470Y0047202D01*
X0016037Y0047769D01*
X0016605Y0049184D02*
X0015470Y0050318D01*
X0032072Y0050413D02*
X0032072Y0048144D01*
X0032072Y0049278D02*
X0035475Y0049278D01*
X0034340Y0050413D01*
X0037446Y0070835D02*
X0037446Y0074238D01*
X0039147Y0074238D01*
X0039714Y0073671D01*
X0039714Y0072537D01*
X0039147Y0071970D01*
X0037446Y0071970D01*
X0038580Y0071970D02*
X0039714Y0070835D01*
X0041129Y0072537D02*
X0043397Y0072537D01*
X0042830Y0074238D02*
X0041129Y0072537D01*
X0042830Y0074238D02*
X0042830Y0070835D01*
X0041884Y0080009D02*
X0044153Y0080009D01*
X0044720Y0080576D01*
X0044720Y0081710D01*
X0044153Y0082277D01*
X0044720Y0083692D02*
X0044720Y0085960D01*
X0044720Y0084826D02*
X0041317Y0084826D01*
X0042451Y0083692D01*
X0041884Y0082277D02*
X0041317Y0081710D01*
X0041317Y0080576D01*
X0041884Y0080009D01*
X0041884Y0087375D02*
X0041317Y0087942D01*
X0041317Y0089076D01*
X0041884Y0089644D01*
X0044153Y0087375D01*
X0044720Y0087942D01*
X0044720Y0089076D01*
X0044153Y0089644D01*
X0041884Y0089644D01*
X0041884Y0087375D02*
X0044153Y0087375D01*
X0049154Y0077571D02*
X0049154Y0077201D01*
X0049154Y0077571D02*
X0055335Y0077571D01*
X0055335Y0077201D01*
X0055335Y0074028D02*
X0055335Y0073657D01*
X0055335Y0070287D02*
X0055335Y0069917D01*
X0055335Y0066744D02*
X0055335Y0066374D01*
X0049154Y0066374D01*
X0049154Y0066744D01*
X0049154Y0069917D02*
X0049154Y0074028D01*
X0049868Y0051987D02*
X0047599Y0051987D01*
X0047032Y0051420D01*
X0047032Y0050286D01*
X0047599Y0049719D01*
X0049868Y0049719D01*
X0050435Y0050286D01*
X0050435Y0051420D01*
X0049868Y0051987D01*
X0050435Y0048304D02*
X0047032Y0046036D01*
X0050435Y0046036D01*
X0050435Y0048304D02*
X0047032Y0048304D01*
X0058364Y0078946D02*
X0058364Y0080080D01*
X0058364Y0079513D02*
X0061767Y0079513D01*
X0061767Y0078946D02*
X0061767Y0080080D01*
X0061200Y0081401D02*
X0061767Y0081968D01*
X0061767Y0083103D01*
X0061200Y0083670D01*
X0060065Y0085084D02*
X0060065Y0087353D01*
X0058364Y0086786D02*
X0060065Y0085084D01*
X0058931Y0083670D02*
X0058364Y0083103D01*
X0058364Y0081968D01*
X0058931Y0081401D01*
X0061200Y0081401D01*
X0061767Y0086786D02*
X0058364Y0086786D01*
X0061258Y0063259D02*
X0060691Y0062692D01*
X0060691Y0061558D01*
X0061258Y0060991D01*
X0061825Y0060991D01*
X0062392Y0061558D01*
X0062392Y0063259D01*
X0061258Y0063259D02*
X0063527Y0063259D01*
X0064094Y0062692D01*
X0064094Y0061558D01*
X0063527Y0060991D01*
X0063527Y0059576D02*
X0064094Y0059009D01*
X0064094Y0057875D01*
X0063527Y0057308D01*
X0061258Y0057308D01*
X0060691Y0057875D01*
X0060691Y0059009D01*
X0061258Y0059576D01*
X0064628Y0054251D02*
X0068031Y0054251D01*
X0068031Y0053117D02*
X0068031Y0055385D01*
X0068031Y0051702D02*
X0068031Y0049434D01*
X0068031Y0050568D02*
X0064628Y0050568D01*
X0065762Y0049434D01*
X0065195Y0048019D02*
X0064628Y0047452D01*
X0064628Y0046318D01*
X0065195Y0045751D01*
X0067464Y0045751D01*
X0068031Y0046318D01*
X0068031Y0047452D01*
X0067464Y0048019D01*
X0065762Y0053117D02*
X0064628Y0054251D01*
X0075514Y0054367D02*
X0078917Y0054367D01*
X0078917Y0053233D02*
X0078917Y0055502D01*
X0078917Y0056916D02*
X0076648Y0059185D01*
X0076081Y0059185D01*
X0075514Y0058618D01*
X0075514Y0057483D01*
X0076081Y0056916D01*
X0075514Y0054367D02*
X0076648Y0053233D01*
X0076081Y0051818D02*
X0075514Y0051251D01*
X0075514Y0050117D01*
X0076081Y0049550D01*
X0078349Y0049550D01*
X0078917Y0050117D01*
X0078917Y0051251D01*
X0078349Y0051818D01*
X0078917Y0056916D02*
X0078917Y0059185D01*
X0081402Y0058848D02*
X0081402Y0056580D01*
X0081970Y0056013D01*
X0083104Y0056013D01*
X0083671Y0056580D01*
X0083671Y0058848D02*
X0083104Y0059416D01*
X0081970Y0059416D01*
X0081402Y0058848D01*
X0081005Y0061973D02*
X0082706Y0061973D01*
X0083273Y0062540D01*
X0083273Y0064809D01*
X0082706Y0065376D01*
X0081005Y0065376D01*
X0081005Y0061973D01*
X0084688Y0061973D02*
X0086956Y0064242D01*
X0086956Y0064809D01*
X0086389Y0065376D01*
X0085255Y0065376D01*
X0084688Y0064809D01*
X0084688Y0061973D02*
X0086956Y0061973D01*
X0086220Y0059416D02*
X0086220Y0056013D01*
X0085086Y0056013D02*
X0087354Y0056013D01*
X0088769Y0056580D02*
X0089336Y0056013D01*
X0090470Y0056013D01*
X0091037Y0056580D01*
X0091037Y0057147D01*
X0090470Y0057714D01*
X0089903Y0057714D01*
X0090470Y0057714D02*
X0091037Y0058281D01*
X0091037Y0058848D01*
X0090470Y0059416D01*
X0089336Y0059416D01*
X0088769Y0058848D01*
X0089666Y0061973D02*
X0091367Y0061973D01*
X0091935Y0062540D01*
X0091935Y0064809D01*
X0091367Y0065376D01*
X0089666Y0065376D01*
X0089666Y0061973D01*
X0093349Y0061973D02*
X0095618Y0061973D01*
X0094483Y0061973D02*
X0094483Y0065376D01*
X0093349Y0064242D01*
X0092402Y0073941D02*
X0093976Y0076303D01*
X0090827Y0076303D01*
X0092402Y0073941D01*
X0086102Y0076303D02*
X0084528Y0073941D01*
X0082953Y0076303D01*
X0086102Y0076303D01*
X0086220Y0059416D02*
X0085086Y0058281D01*
X0080849Y0169373D02*
X0078581Y0169373D01*
X0078014Y0169940D01*
X0078014Y0171074D01*
X0078581Y0171641D01*
X0079148Y0173056D02*
X0078014Y0174190D01*
X0081417Y0174190D01*
X0081417Y0173056D02*
X0081417Y0175324D01*
X0080849Y0176739D02*
X0081417Y0177306D01*
X0081417Y0178440D01*
X0080849Y0179008D01*
X0079715Y0179008D01*
X0079148Y0178440D01*
X0079148Y0177873D01*
X0079715Y0176739D01*
X0078014Y0176739D01*
X0078014Y0179008D01*
X0080849Y0171641D02*
X0081417Y0171074D01*
X0081417Y0169940D01*
X0080849Y0169373D01*
X0082075Y0176772D02*
X0082075Y0182921D01*
X0083265Y0187635D02*
X0084399Y0187635D01*
X0083832Y0187635D02*
X0083832Y0191038D01*
X0083265Y0191038D02*
X0084399Y0191038D01*
X0085720Y0190470D02*
X0085720Y0188202D01*
X0086287Y0187635D01*
X0087421Y0187635D01*
X0087989Y0188202D01*
X0087989Y0190470D02*
X0087421Y0191038D01*
X0086287Y0191038D01*
X0085720Y0190470D01*
X0089403Y0191038D02*
X0089403Y0189336D01*
X0090537Y0189903D01*
X0091105Y0189903D01*
X0091672Y0189336D01*
X0091672Y0188202D01*
X0091105Y0187635D01*
X0089970Y0187635D01*
X0089403Y0188202D01*
X0089403Y0191038D02*
X0091672Y0191038D01*
X0093276Y0182921D02*
X0093276Y0176772D01*
X0079226Y0189651D02*
X0079226Y0190218D01*
X0078659Y0190785D01*
X0076958Y0190785D01*
X0076958Y0189651D01*
X0077525Y0189083D01*
X0078659Y0189083D01*
X0079226Y0189651D01*
X0078092Y0191919D02*
X0076958Y0190785D01*
X0078092Y0191919D02*
X0079226Y0192486D01*
X0089155Y0231560D02*
X0092558Y0233828D01*
X0092558Y0235243D02*
X0090290Y0237511D01*
X0089723Y0237511D01*
X0089155Y0236944D01*
X0089155Y0235810D01*
X0089723Y0235243D01*
X0089155Y0233828D02*
X0092558Y0231560D01*
X0092558Y0235243D02*
X0092558Y0237511D01*
X0043621Y0258662D02*
X0043621Y0259797D01*
X0043054Y0260364D01*
X0043621Y0261778D02*
X0043621Y0264047D01*
X0043621Y0262913D02*
X0040218Y0262913D01*
X0041353Y0261778D01*
X0040786Y0260364D02*
X0040218Y0259797D01*
X0040218Y0258662D01*
X0040786Y0258095D01*
X0043054Y0258095D01*
X0043621Y0258662D01*
X0037318Y0277922D02*
X0036184Y0277922D01*
X0035617Y0278489D01*
X0034202Y0277922D02*
X0033068Y0279056D01*
X0033635Y0279056D02*
X0031934Y0279056D01*
X0031934Y0277922D02*
X0031934Y0281325D01*
X0033635Y0281325D01*
X0034202Y0280758D01*
X0034202Y0279623D01*
X0033635Y0279056D01*
X0035617Y0280758D02*
X0036184Y0281325D01*
X0037318Y0281325D01*
X0037886Y0280758D01*
X0037886Y0280191D01*
X0037318Y0279623D01*
X0037886Y0279056D01*
X0037886Y0278489D01*
X0037318Y0277922D01*
X0037318Y0279623D02*
X0036751Y0279623D01*
X0014893Y0124361D02*
X0014326Y0124361D01*
X0013758Y0123794D01*
X0013758Y0123226D01*
X0013758Y0123794D02*
X0013191Y0124361D01*
X0012624Y0124361D01*
X0012057Y0123794D01*
X0012057Y0122659D01*
X0012624Y0122092D01*
X0012624Y0120678D02*
X0012057Y0120110D01*
X0012057Y0118976D01*
X0012624Y0118409D01*
X0014893Y0118409D01*
X0015460Y0118976D01*
X0015460Y0120110D01*
X0014893Y0120678D01*
X0014893Y0122092D02*
X0015460Y0122659D01*
X0015460Y0123794D01*
X0014893Y0124361D01*
X0015460Y0117088D02*
X0015460Y0115954D01*
X0015460Y0116521D02*
X0012057Y0116521D01*
X0012057Y0115954D02*
X0012057Y0117088D01*
D14*
X0023425Y0040476D02*
X0026654Y0040476D01*
X0026654Y0033390D01*
X0028622Y0033390D01*
X0028622Y0040476D01*
X0032559Y0040476D01*
X0032625Y0040474D01*
X0032691Y0040469D01*
X0032757Y0040459D01*
X0032822Y0040446D01*
X0032886Y0040430D01*
X0032949Y0040410D01*
X0033011Y0040386D01*
X0033071Y0040359D01*
X0033130Y0040329D01*
X0033187Y0040295D01*
X0033242Y0040258D01*
X0033295Y0040218D01*
X0033346Y0040176D01*
X0033394Y0040130D01*
X0033440Y0040082D01*
X0033482Y0040031D01*
X0033522Y0039978D01*
X0033559Y0039923D01*
X0033593Y0039866D01*
X0033623Y0039807D01*
X0033650Y0039747D01*
X0033674Y0039685D01*
X0033694Y0039622D01*
X0033710Y0039558D01*
X0033723Y0039493D01*
X0033733Y0039427D01*
X0033738Y0039361D01*
X0033740Y0039295D01*
X0033740Y0034177D01*
X0039252Y0034177D01*
X0039252Y0039295D01*
X0039254Y0039361D01*
X0039259Y0039427D01*
X0039269Y0039493D01*
X0039282Y0039558D01*
X0039298Y0039622D01*
X0039318Y0039685D01*
X0039342Y0039747D01*
X0039369Y0039807D01*
X0039399Y0039866D01*
X0039433Y0039923D01*
X0039470Y0039978D01*
X0039510Y0040031D01*
X0039552Y0040082D01*
X0039598Y0040130D01*
X0039646Y0040176D01*
X0039697Y0040218D01*
X0039750Y0040258D01*
X0039805Y0040295D01*
X0039862Y0040329D01*
X0039921Y0040359D01*
X0039981Y0040386D01*
X0040043Y0040410D01*
X0040106Y0040430D01*
X0040170Y0040446D01*
X0040235Y0040459D01*
X0040301Y0040469D01*
X0040367Y0040474D01*
X0040433Y0040476D01*
X0044370Y0040476D01*
X0044436Y0040474D01*
X0044502Y0040469D01*
X0044568Y0040459D01*
X0044633Y0040446D01*
X0044697Y0040430D01*
X0044760Y0040410D01*
X0044822Y0040386D01*
X0044882Y0040359D01*
X0044941Y0040329D01*
X0044998Y0040295D01*
X0045053Y0040258D01*
X0045106Y0040218D01*
X0045157Y0040176D01*
X0045205Y0040130D01*
X0045251Y0040082D01*
X0045293Y0040031D01*
X0045333Y0039978D01*
X0045370Y0039923D01*
X0045404Y0039866D01*
X0045434Y0039807D01*
X0045461Y0039747D01*
X0045485Y0039685D01*
X0045505Y0039622D01*
X0045521Y0039558D01*
X0045534Y0039493D01*
X0045544Y0039427D01*
X0045549Y0039361D01*
X0045551Y0039295D01*
X0045551Y0034177D01*
X0051063Y0034177D01*
X0051063Y0039295D01*
X0051065Y0039361D01*
X0051070Y0039427D01*
X0051080Y0039493D01*
X0051093Y0039558D01*
X0051109Y0039622D01*
X0051129Y0039685D01*
X0051153Y0039747D01*
X0051180Y0039807D01*
X0051210Y0039866D01*
X0051244Y0039923D01*
X0051281Y0039978D01*
X0051321Y0040031D01*
X0051363Y0040082D01*
X0051409Y0040130D01*
X0051457Y0040176D01*
X0051508Y0040218D01*
X0051561Y0040258D01*
X0051616Y0040295D01*
X0051673Y0040329D01*
X0051732Y0040359D01*
X0051792Y0040386D01*
X0051854Y0040410D01*
X0051917Y0040430D01*
X0051981Y0040446D01*
X0052046Y0040459D01*
X0052112Y0040469D01*
X0052178Y0040474D01*
X0052244Y0040476D01*
X0056181Y0040476D01*
X0056247Y0040474D01*
X0056313Y0040469D01*
X0056379Y0040459D01*
X0056444Y0040446D01*
X0056508Y0040430D01*
X0056571Y0040410D01*
X0056633Y0040386D01*
X0056693Y0040359D01*
X0056752Y0040329D01*
X0056809Y0040295D01*
X0056864Y0040258D01*
X0056917Y0040218D01*
X0056968Y0040176D01*
X0057016Y0040130D01*
X0057062Y0040082D01*
X0057104Y0040031D01*
X0057144Y0039978D01*
X0057181Y0039923D01*
X0057215Y0039866D01*
X0057245Y0039807D01*
X0057272Y0039747D01*
X0057296Y0039685D01*
X0057316Y0039622D01*
X0057332Y0039558D01*
X0057345Y0039493D01*
X0057355Y0039427D01*
X0057360Y0039361D01*
X0057362Y0039295D01*
X0057362Y0034177D01*
X0062874Y0034177D01*
X0062874Y0039295D01*
X0062876Y0039361D01*
X0062881Y0039427D01*
X0062891Y0039493D01*
X0062904Y0039558D01*
X0062920Y0039622D01*
X0062940Y0039685D01*
X0062964Y0039747D01*
X0062991Y0039807D01*
X0063021Y0039866D01*
X0063055Y0039923D01*
X0063092Y0039978D01*
X0063132Y0040031D01*
X0063174Y0040082D01*
X0063220Y0040130D01*
X0063268Y0040176D01*
X0063319Y0040218D01*
X0063372Y0040258D01*
X0063427Y0040295D01*
X0063484Y0040329D01*
X0063543Y0040359D01*
X0063603Y0040386D01*
X0063665Y0040410D01*
X0063728Y0040430D01*
X0063792Y0040446D01*
X0063857Y0040459D01*
X0063923Y0040469D01*
X0063989Y0040474D01*
X0064055Y0040476D01*
X0067992Y0040476D01*
X0068063Y0040464D01*
X0068132Y0040448D01*
X0068201Y0040429D01*
X0068269Y0040407D01*
X0068336Y0040380D01*
X0068401Y0040351D01*
X0068465Y0040318D01*
X0068527Y0040282D01*
X0068587Y0040243D01*
X0068645Y0040200D01*
X0068700Y0040155D01*
X0068754Y0040107D01*
X0068804Y0040057D01*
X0068852Y0040003D01*
X0068897Y0039948D01*
X0068940Y0039890D01*
X0068979Y0039830D01*
X0069015Y0039768D01*
X0069048Y0039704D01*
X0069077Y0039639D01*
X0069104Y0039572D01*
X0069126Y0039504D01*
X0069145Y0039435D01*
X0069161Y0039366D01*
X0069173Y0039295D01*
X0069173Y0034177D01*
X0074685Y0034177D01*
X0074685Y0039295D01*
X0074687Y0039361D01*
X0074692Y0039427D01*
X0074702Y0039493D01*
X0074715Y0039558D01*
X0074731Y0039622D01*
X0074751Y0039685D01*
X0074775Y0039747D01*
X0074802Y0039807D01*
X0074832Y0039866D01*
X0074866Y0039923D01*
X0074903Y0039978D01*
X0074943Y0040031D01*
X0074985Y0040082D01*
X0075031Y0040130D01*
X0075079Y0040176D01*
X0075130Y0040218D01*
X0075183Y0040258D01*
X0075238Y0040295D01*
X0075295Y0040329D01*
X0075354Y0040359D01*
X0075414Y0040386D01*
X0075476Y0040410D01*
X0075539Y0040430D01*
X0075603Y0040446D01*
X0075668Y0040459D01*
X0075734Y0040469D01*
X0075800Y0040474D01*
X0075866Y0040476D01*
X0079803Y0040476D01*
X0079803Y0033390D01*
X0081772Y0033390D01*
X0081772Y0040476D01*
X0085000Y0040476D01*
X0085000Y0005831D01*
X0079803Y0001500D01*
X0028622Y0001500D01*
X0023425Y0005831D01*
X0023425Y0040476D01*
X0050276Y0010161D02*
X0050276Y0007799D01*
X0058150Y0007799D01*
X0058150Y0003862D01*
X0050276Y0003862D01*
X0050276Y0007799D01*
X0050276Y0010161D02*
X0058150Y0010161D01*
X0058150Y0007799D01*
D15*
X0039268Y0186008D03*
D16*
X0083150Y0177878D03*
D17*
X0020354Y0273547D03*
M02*
